<mxfile host="65bd71144e">
    <diagram id="SYYZCUjf1UytjMKwdvtr" name="Page-1">
        <mxGraphModel dx="483" dy="520" grid="1" gridSize="10" guides="0" tooltips="1" connect="1" arrows="1" fold="1" page="1" pageScale="1" pageWidth="850" pageHeight="1100" math="0" shadow="0">
            <root>
                <mxCell id="0"/>
                <mxCell id="1" parent="0"/>
                <mxCell id="2" value="" style="rounded=1;whiteSpace=wrap;html=1;fillColor=#dae8fc;strokeColor=#6c8ebf;" parent="1" vertex="1">
                    <mxGeometry x="40" y="40" width="390" height="120" as="geometry"/>
                </mxCell>
                <mxCell id="3" value="&lt;b&gt;&lt;font style=&quot;font-size: 15px;&quot;&gt;User Interface&lt;/font&gt;&lt;/b&gt;" style="text;html=1;align=center;verticalAlign=middle;resizable=0;points=[];autosize=1;strokeColor=none;fillColor=none;rotation=-90;strokeWidth=2;" parent="1" vertex="1">
                    <mxGeometry y="85" width="120" height="30" as="geometry"/>
                </mxCell>
                <mxCell id="5" value="" style="rounded=1;whiteSpace=wrap;html=1;fillColor=#d5e8d4;strokeColor=#82b366;" parent="1" vertex="1">
                    <mxGeometry x="40" y="170" width="390" height="120" as="geometry"/>
                </mxCell>
                <mxCell id="6" value="&lt;b&gt;&lt;font style=&quot;font-size: 15px;&quot;&gt;Business&lt;/font&gt;&lt;/b&gt;" style="text;html=1;align=center;verticalAlign=middle;resizable=0;points=[];autosize=1;strokeColor=none;fillColor=none;rotation=-90;" parent="1" vertex="1">
                    <mxGeometry x="15" y="220" width="90" height="30" as="geometry"/>
                </mxCell>
                <mxCell id="7" value="" style="rounded=1;whiteSpace=wrap;html=1;fillColor=#e1d5e7;strokeColor=#9673a6;" parent="1" vertex="1">
                    <mxGeometry x="40" y="300" width="390" height="120" as="geometry"/>
                </mxCell>
                <mxCell id="8" value="&lt;b&gt;&lt;font style=&quot;font-size: 15px;&quot;&gt;Data&lt;/font&gt;&lt;/b&gt;" style="text;html=1;align=center;verticalAlign=middle;resizable=0;points=[];autosize=1;strokeColor=none;fillColor=none;rotation=-90;" parent="1" vertex="1">
                    <mxGeometry x="30" y="340" width="60" height="30" as="geometry"/>
                </mxCell>
                <mxCell id="9" value="" style="rounded=1;whiteSpace=wrap;html=1;" parent="1" vertex="1">
                    <mxGeometry x="40" y="430" width="200" height="130" as="geometry"/>
                </mxCell>
                <mxCell id="10" value="&lt;b&gt;&lt;font style=&quot;font-size: 15px;&quot;&gt;Data Spurces&lt;/font&gt;&lt;/b&gt;" style="text;html=1;align=center;verticalAlign=middle;resizable=0;points=[];autosize=1;strokeColor=none;fillColor=none;rotation=-90;" parent="1" vertex="1">
                    <mxGeometry y="480" width="120" height="30" as="geometry"/>
                </mxCell>
                <mxCell id="11" value="" style="rounded=1;whiteSpace=wrap;html=1;" parent="1" vertex="1">
                    <mxGeometry x="250" y="430" width="180" height="120" as="geometry"/>
                </mxCell>
                <mxCell id="12" value="&lt;b&gt;&lt;font style=&quot;font-size: 15px;&quot;&gt;Data Services&lt;/font&gt;&lt;/b&gt;" style="text;html=1;align=center;verticalAlign=middle;resizable=0;points=[];autosize=1;strokeColor=none;fillColor=none;rotation=-90;" parent="1" vertex="1">
                    <mxGeometry x="210" y="480" width="120" height="30" as="geometry"/>
                </mxCell>
                <mxCell id="13" value="" style="rounded=1;whiteSpace=wrap;html=1;fillColor=#f8cecc;rotation=90;strokeColor=#b85450;" parent="1" vertex="1">
                    <mxGeometry x="400" y="80" width="240" height="160" as="geometry"/>
                </mxCell>
                <mxCell id="15" value="&lt;b&gt;&lt;font style=&quot;font-size: 15px;&quot;&gt;Framework&lt;/font&gt;&lt;/b&gt;" style="text;html=1;align=center;verticalAlign=middle;resizable=0;points=[];autosize=1;strokeColor=none;fillColor=none;" parent="1" vertex="1">
                    <mxGeometry x="470" y="50" width="100" height="30" as="geometry"/>
                </mxCell>
                <mxCell id="17" value="" style="shape=image;verticalLabelPosition=bottom;labelBackgroundColor=default;verticalAlign=top;aspect=fixed;imageAspect=0;image=data:image/png,iVBORw0KGgoAAAANSUhEUgAAAK0AAABwCAYAAABsD/CyAAAAAXNSR0IArs4c6QAAAARnQU1BAACxjwv8YQUAAAAJcEhZcwAADsMAAA7DAcdvqGQAAFd/SURBVHhe7b0HmJ3XeR743t7m3ul9BoMZ9E4QRGEvYrOibsmyrBZbWfnJrqU4yT6JnV0r8eZJXBM/T9om9vqxY8uSaZmUJauSEilSbCJIkCCIDswA0zB95s6d29u+7zn3n7kAZ0CABEBwF9/Md/92+nnPd77v/Oec31UsF8u4QTfoPUTuyvEG3aD3DLlKNyTtDXqPkat8A7Q36D1GN9SDG/SeI6oHpRuS9ga9p8hVLJdvgPYGvaeIkvYGaP//Si7ye7HyaYi9c9CWL5p1Fc0SmSvjnD/nPzJ00cSUL/CweFleLqgKrfzkXaO3KPELs2mJnt7Cn0Mu15sDWK6Wl3FmqBoSy4X1btMVA+1KwC1V2Xo6M1fGKX+c8lASKsnQb2kF87Bc8lTObIE75eliLCsX7XVoa9qsLkt6dCFoTdGYH+XTen4zmFymPOTMPlt6XioBhUIBxWKRz8twu93w+bzm+KZgSBcD7UpwuZbgvuqgdRGBJjv6cfIlpy6W5FvShQWxTMGYaBnWMo8sVUd8ndBFSlyArX7s1I7AWhb6Kk8FQFGJdnQ8Hsfk5ATPS+ba4oc+5JQBejweZLIZAzixmw7cvOfz+uDxeqoAZ8P2eNyoqalBLBZDMBg0/qtBuRyQ35OgNcdKoZgMmH/7V00arHC5eY8FLH+mXJUE/rt5v6iKURh6YMJx/POex8cCN07pjoVLIXp+6CITYlVBXv+StlymBHXZzKgoNHKupBcKJeTzeQJyEvMEZqGQN/kVOHXf+i0jlUphfn7enC8y3RRYSAKxJKr8FkuStMaXSYLH7UEkEkE4FDJhptJphpXkeRH+gB9+H9nvp1T2IRAIEMgRNDQ0GiBHeB4JR8xzjyrlGtKVAa2CqKS7GqQqmiK7pQILeGFhATNT05ifi6NMKZFKp0yXlWQhJReSyOXyprByuRxhpjBU2JQGLDAVTICF6AtHUcPW7/f7CHwPotEatLe1IRQKwOf3GsnBBzbyClVn71pKg4vSBSVuQEtgqVyyeZZNJmfKS5zJZDA3N4dMKm3KRxI2l80hnUnzXF0+wWnKuGDrgOxhGUg6CvmKSlLVZt3mf0mogECUNA2Y+2mCfyG5wAaRM9eKy9RfRaoLuOFwyNRJmICNRqOoq6tFY30dwdxgGoBVOaSqVMV1hemKgFakQHLMbI4AVVe0kFhAPBFHMj6HqYkJnBsewcS5MSzMzKHAisiz0Au5LBKJeXKCfrIG3CVWgpGyTJbVvdjK2bJDZHe0FtHaWiMZdF9dWHd3NyItTahrbkJLc7MpvHC4hgD2GqD7/QFbcAxTwV6FMrx8uqDEi5SCyv/c7CwSSUq7TB5JgkegTSaTBE0BbnbzRQGajVwSMasyNIAqmDJzAlUv5qOEDAaCRlp6WE4qKy/LQ0eB2ePxGhVAJCBKyutaUJBELjFMFZRpIBQiajhqKJLUulY9ZTJZlNjYBPi6mAVvT08PGhsbTR2obkSm8VxhukzQ2m7FkabGIxMuoM4TfBPj4xg/dw4jw0MYHBzEFLu11NQ4RgYGEKeUdeUKCLHwQ/QfUm9Y6e4EToMmsp8GQrnAls3AVShFniuJUivSrIRSpSVLOilepaHIQmroXoXu3l50EsQNTc2I1dahu2cVr1chVlfHcFVhkuGK0ebiXSNTcJYKzN/c7DTG2bBHR0bZ0JNwqcH5AkbCzc3NUvolkUlnkCag1cCzBLj0UpETlCPRpKN6BUoenQavnsp08zpWAKwyN1JRR/rVPXOfZaTqUC/nJeAW3dGNGoSbABeIp6YmMTU9bfTpONM/w/OW1hasWbMGW7ds5bEPNZTEQTYKlXUleVeEVgAtW9oyVGARFemc2UORnXi2kEVyZhL9J0/i4P4DGDvTj4nTpzF9dhBZ6lghZralwMJj4QeY6hpmuIatNUD2yna6MGpeqlkoSU5BGcBW3BVYoAUP7/FYYgGmygWkKG0yLJA0nczyOk7QI1oPT00Uq9ZvQGNvHzbu2okdO7djVUuLKUTmgqn3syjPlwIlhqMO1Xaqy5FK/gqUvvLJYHKUnFNTsxgY6DcgkMTzUkqmKcUmJsYxPT2D2dkZpKlK5anfKmWSXE7ZOIASkJxkCXgOgKVqevkjVUr+pIuq97HS1kpcAVthWNASqBXDTKDXfem95qgGrzgr8athiCSZ1ZAGKJiGhoaY3lk0s8fbu3ev4QZKYBu+4rPSXbR0dvl0WaAtlW3hsJhwbnQYB158Fgd+8hTO9fcjeWYUfhZ2lFZEmJXhZyEHVcglD0rsUtjnwMeovMwkxaeVFLw2XZuMBWZIXbqkq5Mk/VYnThLYQzce6rQsARS9TA/95em/xPByvEx7XVhgRSWoY2TpJuX1I9zZgZa1vejZsB4Pf+RDaF27Bj4XU8fABdtKfaNg8sa0nBdrNcml4/qdUZHlND07h1MnT2FkdNTo59IfB9jg+wfOWrVAPY4GDVnptELJDlArwGLedW1BatPlgE6NX7qtlZZWQhqpWsWOdBVwNQSmc9sonLAt0OTWAbnj1wCQ8Rggk6WmGLtlZhr9/QOmh7z11n2447ZbaXOEjBqhtDlE32+bLgra6ke2YLwoUF898PIreP6pH+HoS89jji3MT8OhPl1AhBURIljFAWJRXCDQVXhtba1oZfcRioRRy9bnZYtnn4UyWz/7Lbg0bigpWFH6TdTUeSlmDOBVJ+U49bkZSh92RTPTU5ihUSc9Oi8rWZ5YmGW/B4WQD2mWSpKBzLN45hn2Au+5G+qxee9u7H3/Q7h5z21oitZRV5RHS9cStJlsHqPU8U8StJJOap5nz5w1oE3QMDXgUZnz3+qglGzMn+3OLXAsCzgWAg6Q7UgE88GjTwCXO93Xn5LP7JmunnEYoNKNI2ktSNU4dM40VEAr8FuprPAsWD0mXLrTNVnSWaMWQ4PD7Dmm0LOqG3fccRtqIjU00sLXHrQqvRR1mReeeQZPfOtbGNz/M/gmJlGXK6Le7UVdMmskaZgGQGMddUx2xf76BriaG+Grr0dTRzvqaSz5oxH462ISCQQrJWYFvOZaFUNJ68RHrR/ICrSVewu0oOdouM3GMc+uc57xZ6dnkWNXmuN5knpzIj6PJP0VVUlsBBlK41lXCROuIiZ5nouE0LhtI973kY/jrrvuQzsbk20hNDwMRq4NaJOpDPoJ0qNHjhodUVL2dP9pApl5yRcMuAxQSY6UI2IWQesAVIBSmuRegHKALLJgk7ogJ0vS1rjljwWfDc/GUfHLf10LyArDAehyoHX8KUwjsenHGGvMTx2N5r7e1ZS0QdTy3NgrJmVXEbRL5DLDIUcPvIK/+pM/xsDPfoaWuQR6y17UFr1WFSAoopSkbVs3o3PrFtTTkvS0t8Hb2QJ3YwMQDDFXAiZbmwBqhggqpIJiAbwJK0raIohJjMeIVCmEVEGQSKFMEBdGhpGjEbMwcg4TJ09j+LVDmGFrN9VJoBbIC1QbJt0lTBezGEUOdbfchoc++Snc/+ADqGXDquBWgfOwTJEYkgPj6B1Tmr3T6YEzeHn/y0bShkJhMzIwOzeH+HzCjL0KGIZUDAJZBXQGOLy2ALWAsSCWRF5KowWeb1H4GPcGZFaKy58eOeE4Ycn7+aCVbwtSI3krjUbPdM/L8nWMNvkJU6pq+CtEoRGgKqeRhaamRmMEOiV7lUHrNkMdQ6dP4gf/9b/hZ9/5Dhpoxa6jTlhPJbKUZyVTUjbt24ZVt+/BqnvuRnDzRo2lMOdMGsHiFGJZYLNQqtxS1CwAna4IlAvIOKMPHcXy7CSXakLx7FkM/fD7OPH9H+DcoaPwJLIIsiegZoMsHRZ9bsyU0njB5Uf77XfgE1/4PG7/uYeNauBheAaw1Q3qPFJkNrXvlKiGY4iN7KfP/JQqwgkzRKSKlpSNzy8Y0OaoHql2ZOzoRYHiFmhFAo2VkkyP/nk0YNRz3aNHgdtLnd66d8DpSMalfFh/YitBXVIteO0YaSLBROxIdwtgNRLZIjZugVKjFDU0ggPUYdV7qA2t6u5GS0sTw7syktbzb0iV80WyGqI6SWaAxxQV7CPP/RTP/tlfIjq3gK5iALGiDxlKu6SnhI6bt2DPb/xzdH7w/fB2r0LZR8CyhZdoPCgEgVVzENTxKuSiubuEO8v6s2Sfvpmc59Vk3Kpm5UUFWl+Lus3rsGrzegwcOYT0xAwoYFVj1DLkSOMGfoIjg3QhiWh9DBs3b0A5HGYQtkHZ+tTPcnxlSHFksznqf4NmuDBrxrbnKYEzBDRLns+D7J1kwKh7lU4oCabRDwEmQIB4DYCU3uq02aPuWd2U1/zXwT5iWQmAOiXJqw2jclGpB3u/0giqyOq9ZEpUpU3DWpEIQRoIEbwBAlmSnaoWe0X5r4vGUBuLmTwI4ApfgmGlOr4UWhnwSrmRjLKHslgYH0eZ1m5NvoRoia2wTIOHbtIUT8UILfFYFEwZJazPjDNSJFipwISLBQibUBa0OaqgbIu3rHO6N8znb8UqaDVj5cBUTOWckhS0xNHdiQKPhAByMu6YF8XsoWHoK7nRxIL3JuKYHjyD2bFzTM1SRapIGeAyfGXIiccAymTZxl6kKqQ3XfG5WTPUJUt8hobnXHzOvKZNJVPGn/TDWG3MzA0QIHRdW1tnWG+pJLWdo8Ae1StXnbNhhqmGGGue4HcahEBoilU5N0cyT5yjkaaUknJvhs38AfMaWW8z9dLB+GSmCuw+ihrJ4bmjzkindkY0RCZMc/b2SdW8AjHSSun6eKzJAw3ZMup5DFJymW7JT6ucwHn5TD/+9tFv48Brr2NexpIqgSEbLNG/IqnUjxlictjcX4ZXIglMhxczrhO2EcOkBLvV148dxZ//z7/AM6dPI85u1U2dS1nRSIGX7Cc3Ft1oyJQQWMjAkyTzntpopZ1eE5LEDFGaCjQOKXrBRV2xXiLozdgchcXExASGh4cwQv1d3fZW2g1r1641Y6LSh/X2Sm8XFxakDycrnKL/lDkK8OZYuZ9Jpw2nyXp167x9c14fJxK8pluNEatHEEiVHr0Jy+ZzpjxLxbIxIs0bM6o1es28pG3agjRS2RiDV65gl1UPBAsj+XTKyMrMZPzQYQw9/RxqKLQCbnZNGjckErNUD+YpHQYmxnBm6CxGhofNYLP85ckKo8zMKM2O5Squ5GlZUrbPz7qlalDnqMdKgkpFWaDud+bsIA7SUPzZU0/gp99+DMd/9BTyE9Noo1StdVH3YkgCppf5krpQoOGYoFSO9XRjy949CFPvUuiKTw3sapOiUOMTEMbGxmjopo3FXShRLydr6GhxrgEBk8vmDdjkpqurG3v27DXSVBNdpPvGKYlHRkbMGzQBTnUgFgAlpfXmSnMYdG5fnQukFsgGdLm8mXOQJ/gUp9FhmT6lQ/MbNPHGALJSNmpw1vCzurDI6MtSKQRUHiVho5T0MsT8FHCm3hfp7RfyioYYVW4jdhRRZnIKR7/2dfzwt38H9QRt1M0ugoZMwUXAenKY53GYImyc1VCur0PnhvXo3bIZgZZmNDe2siuLoqm5CbWNDfCxa5ICX2LYVmeyepPRq6ROkNS1qKtUgblMd0PmuZv3pNzPzbFbn9SbInalel+/MIeRs2cwcfI45k8dR2ZkCG1FPxrcfnTyGCNw3QyHmTUFLVDMu3MYDLnQftdt+NiXfg0N+25lxLZRvYPyvCQyJc44BNDx8Qn8gEaj3iZpPoEaoqSWBuc1IUYSzszpyBaYX/YI7Kr37N2HX/rUpwzgz9LwHKTfgTNn8cYbh41kVibUE1op5zFl55Aknspc3baPlr0mH2l+hvNyQaMN9pz3A35zz4Yl9SBIU4XPGOaFbvVccx50XxOXdD9E/+0tjWxk7bx2xI1pCuSL9akXp+VBW2ahMVAZTjL+0wTt4a9/HT8gaBsJ2npXEH6CNk+wZl0sVOoRSSZ0mmCfLmcwX84jQ8ynAx4E67vQ0NaKjm4e21vho+7rpT7lpk4s/UrWptdYnQFqG7Qu1WpZKEbCsFLyOTsJRxVUZthpVsrE6BimRs+hQGmhY5p6n5fSJspKrqd0qmcBtqAGQUrjcNEFPw0wAdYUFcMuEPy0zTESdKHt7tvwUYK2TqCVpL0WoHWOPJmm3vqd73zPgE8SL0+wZg1oJfEqoDVlUCCos6aBb9u2HZ/73OfMM/kbHhnF2cEhHDlyeHGKorHwmVcdjWHH+KxwsGxARsDKoPPRcPb6LBCd+wKeqRtKS8e9JtecD1oBVXNyZRRWg9aGUUMB1dPZThWmjv4JUlOuyr2pCV28LVoBtGzllUA9rMX05CQO/7VA+7topPVVjyDtnQCKBGuxnDPDRQWvHym/C0l2u+zEkCGgMz5WSslHeFD3KeSRJqDy1C/dVOgDtDTDoYjJoJsF5qvMShJq9EpWySqwsqR3GQnECisStEWBl12Zn5Izwt7Ax2MNCzVC6RGlnyilSoSCpabAgmcD81Kie8hCiHIq0BqDB3kMB4G2u27FR7/8JQtaGYEkA9yrTCp0Jt0YWz/84ePo7+9nV81UGUlbNDOp9Go0z7w6g/XSLVUu69evxxe/+EXTsA1oR0cwRNAePnKUoE1UQLvUgynfItuNVyQtwWgm0UgqVsAp9rAeJX0taJcm1yyC1rgTYHXkc41iGNBqiMyC1gCX6kAsEkHfqm7U19XQP9NRBVqZxW+XlvdJfdXogM4lI2FVU09hF00wasKJmSGvV7RkP7vfEMHcmC6hO+XC+pQP25MB3DLnx02ZAm5i17abANrHcG+h1NuWzmLD/BxWTYyg7dwg6ocG4Os/itKxgygcfQ3FY68Bxw8iePoomoYH0D0xirXxaWxKJLGd4e1iWLsYzk5K0psoSbfl3NiQdqE740Zzxou6LLsmpkeTclRGdGrY1B2Pxujiib2vAT7eUGOpPL/aZNJBEobUaDWuqYoWyQqQvmgajkGbZStbrJ6bSMQJ6LyRXm6CQfXjYj5UN7Z/VM+i+wqEVWzQYs9drAMLaOqYxrUFtWW5UWy2bKSmUUGzbBJkwzj/aLnMNJsMqZHwII1E4XgomZ0kLOXmnZFivnyqitUpGsO8b4ydCgeY0o6sC6syLqzOurGWoNpMvWFH1odtPG5J8Trp4pHAI2/luY7bFsRuAp9dYdpDoHrpx8sGwEaQ8xOkAWzkcTXB2p13o6lAg6ropnR1I8wGFOa5GpKf8StdTnKd44VkFQdSpWCvJUnHNJPaZSDy3Az7XUBWUtqUCbQyrgRig6NKDg1wdWno/FwoDmu92+Pi9ZIHkn0un9a3vRadH9pbk3UvaW+nPDKyyw7jYnTpoGWsi/t6MDGmDAydnxxdOSzJ5TXjoh4Eih6EyAJWLO8hyOwr4DpyQ8GLZnbnLRVuI7eSm4s+AtLH55Zr6TdKjhCUIQGT4SlsD/Vjyg7+6dfDVm25tAiA89N4vZDAKONTb8KkG5rKlQFqUWqBVaHKLfNMw05SGaSrSrjJmXnMEwvISgOogM4h86xybsj4dfzYgC70cymkRq90iZUm0ZLurLBNVFeMLg20jFFJMQky0stm8FKoyAIUeAwzOnVewn6ZYNa5kqBuyi1Vg32Sl929j0cfEe8ha3jKzMQiF3lfbzPV9RSZjuow6ZpJsueK04m3Wv5cL6QUKUsiqQea7S/d0FJFFbhI+UraatxVowLG2GI+5VrHRXhUQLhIToTVxHu2gdhSsq6Xc3hxMj4Yjo5Kk8JUIxBo9UrYGe+/UnRpoK0mlUXl9FJIgLRKd6VAmRkVkWUHVGwGzJgag1zLcNLyEullxk+F5Vb6lfFTqRTjnr/yI/1af06clea1SPJp6QqX4mWSYjc54o8Mnvr6BmPILFElfXLgkDlfutaLgBINMUeiOYaX9SvgL0ls52juV84MWaeWF0+q4nwb5KRSBq+Xao+ujJDSwytElw/ayyRjvTPhFkICKU06Fm6R/ZplRyKez0qajpKkjuQ07ivneu786Y2dj/EoLocFYhmKTiU4DcXShRVz4fW1Ixk7WtmqFwWyyFeUshfUul4c6EWA6doFWhplkroi8zKAgNY491tSJSoFfznAuphbpSMcDiMWjTF4gpaoXWw3V4CuCGiVb8f4upD1ooJQY0SCKwEGP0KlILt/L617t2E32cWuXyqCARoBJ5Y1S4GhETjDHg1hsQA8ZL10UBOWypLnad4cS2YMltVl2IxzGLBTv2XFysItmXOCg6kqM07FoT/lwv5eO1LxSKXRq9x16zYQuHUmPW4XjRceqQWwwpVGlYn0Ii1iLCCfzSCZmEcxn1/UXW0DN95YqwQJLeIyj+YeGzuDYZnYczMqwGuxGojKrMDy01IqlZlTBmpAphFVjppvLNYQp8Ky13RvuknFpDdpkv6ahhIgaDXBhxKXbWlJFEl0vTPYvTPfl0CqGGbZ/rFwSuU8YVww56wR5lVcNEeKCLNyQVMhC8x8aZHlT7zS9RJrDFaF77D+FqG4nAR7F0kpE0ladnS0U7elmkB1Yak7d0jAIDTFPNdLB72S1TiteW3K+6acmb0lnxeGUUXVxeCcvynOKtKzZZ6bO3okQcJ0KH1Ku8Z/tXwoFLZL0680XXXQqjWbtsvMEGYEYwHZktbtJ2lM6N34PJILS0d7nkCiwjrXsyWuvnaeX8j2eTanXVWkBYtUoObk/Eq7DsjRSbUsRa9KZcyoS60mAcIaNirKsnmJ4BhijmzUr4WvjrxaKZ8qiMXCIClQsvW/DFWeWwEgv/a2Id43ujSdOJNtdC8YChqJezXoqoPW5MYcbDdS0huzUgYRdh3tXW3o7luFrjU96F67Gl3kVWt7sGrNavT08Vys8zW9hlcZtvcMO2766KfqvLunCx0tjewli+Y1sHQ8FbiRzqxoM3RXXfDvEhmQ8Ic9tnlNHQyFzGYYkqBmCY56nmpwGbJVZifPqJOuEAMSgKVuLEllezyPKuEpXIdFTlouJHvL/lq3Ul9sXCY+3tGEnfGxcRw/fhxT01MGxNqdpqC5q1eBVpgwQzJ3+cMEZqYmcORrf4Xv/fbvoJn6Zx2C8LiCfMokl+1uJG5XtfW7RGaxIKMwGhfLO0sgzZSzuP3euwnSdXYuAIHllJj5VT9nL83RygAVWlUlKW2VQqSiZo/6VWH6fHDl8njp6Wdw7vgAyvkifAG/VD1b0ARukvrXcLCMtrv34mNf/jIabr19MVob0tUjU7QVUvtRfKdOD+DUqdM43T+A/jNnMHZujGmlPs4GJ/BKly0WNDUwQ9dlbN68DR/+8IfN3NiTp09jYHAQpxnG2LlRs1+CgKW3XnDLgq/EyIiW1oM5r2Pt/AHxeefkALt5uTM9QeWZXuXqqHuCjnozTVoaGho0M8n27duHe+65F329vfB7XKgJWHcm+uVaxdugqy5pjbJPMro6C6/somEW9qLlF34OwV96P+L7NmBkdR1Ge2oxuroWI711GO6rxXCvw7xe5nxokWMYonvx4OooRtY3In7vDkR+/bNY/b9+Gs3bNxjLWu/wq8FyPnTeXZIJowlDhULBSFpt9aTJ25K+mhQjNvtw0Z0jReVWWDDA83mpU1L6kauBsdidV1MVbnS65L7izgDszf4EPPVSmv+gLa3GJsZw8tRJHDx4EC+99BKOHD5sRgx6VvXQAIsiX8jD470QXhek5W3SFZO0crccycLUiICeyoJMUsqei5bxS3/4u5jKpPHDxx5F//79CFMC5ARrtWAaapZsmE7I5ydUFVQ5Lcva5lHdJU3VKFWH9/3iJ3DHXXfBMziMI3/1TRz9/jPIJjNmtXCAccyVMxgKAR333oqP/tqX0LjvjsU8OMFeLarOh6O6Tk7O4Nlnn2X3OmN6inOjo2Z5ucZjbRUJNGLmkV1Cd1c3PvKRD6O+vh5nhs5gQExJq2Xomher4TO4NAXUDocpTwpFktMnKesh2Hm0m3dI4kr6EvxsAJqhpZlbfn/IHKlVmW2bUhnNvU0TuBnMzk4b+6PMnkBSXdtW3Xfffbj55pvR3t6OuroY6uui8DFi1ahiN6MMi7lnnb1NWmESeBUxQYVUEpOHDuHk088iwgILMkIzLGOKotJlSzHT5YUsMmAQl5FjFz8bKGP7gw8izq7u5KuvIUlg1TDcfDaPUibLrj0HN1lH9j92Kbm5zputlVx0t3jOoztXhCtfgJfXhXQWY/EZnDg7YLYbat++BWt23oJYMIL42UEaMHGz6wpjwgJ7zlhvFzbv2YNQVw9TWNUQrgE51ac4JU1PnjyJyalpI3X1aldg1X1T4QSU20uAeQMEFtnjw1w8gSGCe5RSby4RN0N4kpw++tdsLQtGu3+XGcslmwWJNPp8fKY5r3q5oWU0mullun3e1/BXlmWcTOUwn0hiZiaO6elZTFMNmNMkchpbKTYmu3DRhWhNFDft2IEd23dUGoHHSNtwkCqZ8mewIRFXDdrl1clLoSsnaZWwZUhdn21r1LEYVbKUxmCsjM//4e9jipl/7muPYOrlA6hl4WWKZdTW1KA27KcUsIPSxnCyiSEtZVSxOV1bloCWHueh/0QhhxOFBUz5gXBLE9be+wA+9ND7cVO4FgOPP41Df/89TJ0eZrrKmK71of3uffjQl76MuluXJO3VpuoCNzoto11YSOKZp3+KI8eO87nbrP+SLqvl5dM0bmYTKaRo2OhZmb2Sl8CVP01KIX4JthKC3iD8BKUA6Wd5ahK2lnFLigqoApOq2/qjvsyyFfA0BVIrFzSfIUmwxtN5ZFNZ5Nhz5SgIyoy3QAmfykvqy5BlT0hpHmC4zY0NWLduLbZs2oTaWK3BQWtrM3uCDoKW+jHjssWqXAsNTu7fvqS9dqClJBV0BdohgvYz/+H3MUPQHviLRzD9s/2oi9aYfbe23HsPapubKFUI0ErKFhNoBrAt2djYdlmYGVqvptUTAfGxURx88WkcGRxAihUzXdOAtbfuw4Pvuxc7mjuROHocL/3N32Hs6ClME9i9D96DD1E9iBG0ZgK6CfXqkpMfHVX6qlTpikeOHMNL+1/G8Mg5syjRWXSYoQ45kUhjPJlDmr2K5l0UXT7TUM3SHE1RpJQMUgpHgiGjAmlnySj146jZBlXGlZ0zqwgtdGRE2cn1WiOWYqPRbowL7KkS6Rzy7PFK0pvZ/atXL2qoksLAx8QS7mgIB9Dd0ojVXZ3oaGtHjOkV+CXZOzra0NnZznT4aYzRs8q1UqiOAFIob5feFUkr0H7qP/wepgnaQwTt5PM/Q217Czb9g4dw3z/9p0B3jwmvzC5fS1KWUCRddym56s61jJq14txA6sArOPD7f4CXf/yU6fLOZQo4QTf1Wzbi4//gH+CmXbswc/BVHPrGd/HGmX503LEXv/BPfh11t92FAuNUUb794rw0cnIgKavSZ9syx9GRMTzz7HM4+PohgtWWWYTAEwAzbj+m8+xJ2GVnKPnSRa3AIPDybLRFL4peKugEs0hAN1t8EqR+sq5lsNlJ4Jb0JlGS3Bles0Zfjo3fvuApF/Pw8uhhDap/c7uLDC+PmN+LkM+NnsZarOtoQXMsYrZtlZ6reLT3QV1dPZqamlBbq+XlWqLjQ4AqhBqW8i5+J2V85XRaiYtlSAm07gQxvW4tYp467Y4HHzDd+rnXD2N+eBQUC3Cv68H63Tvhbahni0/izNlT7C4PY3DwDIaGyYMjGBoSj/LeEEZHx+ANhBGi1aoKYRVgkpL21HMvIT5APbnkRaMnjAgLc3Z6EgcPv2F0v+0PPYy+tg7MJOeRpiqykTptpHs1NNHZpvTakC2bpaKTpNNasbHxcXMtfTYenzd7/aqUNY4bCYXZLWsLz5B5/etlPdjJ+JrUbd8SqivPlfJI5yk1KTEXCEqtUo6LkynML6SQoK6a0OpbxpmhlM9Rqmp4Ta/HvQS0j6GFWKZaGRKlkdVFqbq2owm9VLn62P131jD+bBqFmQkU5sfgSs+glJpFMTGF1PQo5seHEJ8cQ4J6t3Yx91P6a3WKVodIrXsnZXzVJa0NvSJpebZgJG3JqAfTrIwDX30EY8+/iFB7E1o/+AB+8Uu/hsC6jRg+O4TvffMxPPX44wrApMPHxqJwpI9K/wpRCn3uH/8abr/7LjNeSa0Mo5S0+3/vjzDyxDOoZ4XSvMA829eIv4QRVn2cXdiGPbvxqfd/CA3RiFka1LxlK6JbdxpgaBxT1vCbaflisnR5VeCEpKNedOgo43BsfBI/fe5FI2n1IkRr5CQBjcVOI6vsD8MfDNMoo9ioqUNNbT3LwkVAFqiLUsUgWM0cDB6zzGeWUpPCcpEc+0CptUOQKlZrvKlb13qxECWztmjVrjERL4901FBbi9b6GgSKcygszDKiFHzpedSy62+KhajaaVyX6aNNIUNOKptefszO07aYZ8II1sau1Wjr6UPbqlVobGslfuyLieqSq3QU591bjq5gT6ioFNz5rD9NlBGbwX3ptkqdJmpryQcLzMMSNF2QhsaMBA+iGE8hd+oMMoeOonjkBHJHTsJ76HW43ziI0uHXUTj0KrKvv47sXMJYzYqLIbHgWHiMx7wGFRoYZm3ei56MD70FP3oQwFmC4s8efQQvD51Ffd9axDo7KACoExP2ahIXJxPoMnzppNQapjemdrG9+wiSALtf7Y3FTNnhLcFSz7VujFIrMTaOGfY6k/1HES0nsaYpgt7mMJoiZdT78oi6Mqj3FNAe9KA7Qr0z4kNXyIsOXneGPOa8Uxz2oqvGj65oAD21IfTWR9DXFEVfYxSrYn60NXjZ9VOtClPy5hPITAyiOHIE/vEj6Cqew57WMu7sC2PXqjA2tUWwvqkGG1prsJ5pWc/j1s467O1uwD0dYXRiHpPHD+C155/EwYMvYXDynJkMZIpNxU12Ti+FhKwrRJWSv4DsXbZmU0FO96uqIqs27P8iG6LSH2bX2ElDYXO2gJvSRexNlbCJ+twWipSbFnK4idJlEysyQkuW3UXFI0PQqWHKFNN01UiAMIHdSXVhXTmIrQsuzB09iu9851E88q1v4PUjb2AhlyFw/QTIxYrEiefKkErBHi2Z158CrdZVqYQMWvmcR7cyoYG6Qoo65DwyiUl242m0N4axpiVKUJYQzceRHTmN+TNHMdd/GAtnjiE/2g9MDcE7OwJffHyJ5y0HzHECnvg5eGbJ7Oq96UkE2NV7s3Nwp6dQnu6He+h11E+fwuaYBzu7WrBu1Wo0tlAERNvgCdBw9teTG+CqHAM1bajj847OXty0dg22tzaifn4aU/tfpJr5E5wd6Wc71JJX2SzKq8nqJdEV1GmXr+xKsasKzHmegJwLANsffhApAnOcUi9FPc6nrXvWr8WWfXvhqa2jjrSAQHwWzTQgNq7uxdrVfVjV24nVq3vQ27saa/pWo3fjerTdeScaVnUbw4OyCYmREZx7/gUkBgYRpjQPMJ2S9qp47f0dJHgbqTIUWeFTs1M4R0t9ZmbWrCaO1dQbPdEl4+6ySDm7jFKvkNMElDaxDKHJyWmMadtSdq+StGLNMdAbMU26LLGRFlXZNJQ6O9qxursTNUE/ksxLYm4a46NDWJibQiY5hzzLsJhNopRbQCGjc3ImSY2OnE/DVUjTts3AXcwadhV5j+wuZ1hOefgK9Ds/iWBiHJ3uDLZ0NGNt3xo0NbbBF6qlYhWkMahy175tXnukbl0ss8dz0TimEHBTlQmxbmvDERp2JbOHxszwMGaLGRpsdWa/YhdVE6k5Tim+VUleQUl7BYkV6KG+GunuQMPWDYht24jgDh53bET0po2I7NyE2M4taNq+CSEabQ7IqjNsVXWy9LgKyzIu5TXuyO6ThbveHUJ0Io5jP/gxvvvHf4qDLxHs83EbwDUkpVVsdhzUlD7q5wKrzYOTI6cfVfXyqLHV5ALBR3BRt5J173bn4aGa43bx6KLlTzXBRT2/kKeqRcBmswnkCeAiwVouZRhWjkVt/Xg9muYoAaQRGl4TxN6FGXjnxtBANWR9RyPWbdiO2sZOirowsnkavixLN9PhUpqojpk5zjxXmaucC1JpKORyLGt/rA5dvb1Y09WFmtQCzrz8HE6+9goWZmm8MZ+K+a3A6tB1CFpmnNZ+ihbu4SPH8N0nn8J3nnqywk/h7yvnf/+jH+EHfDY8ds5YvRWfJud6+2PGL3mpre3Nri0OEwwyUvQ2LZwtopE6byydx5kX9uPQ/p8hTol1rcjp/h1bWLskaulNLFZrDEKrqjhu9KNLXhMIaoT6TFORlr8ZCiVYdDS2gZjOzJH3ZQYbU5h+DOh1jwHqucwhEwuvxcafFoXmM8jMTcJHSd3dWIc1q1chGKpBIUcg5mns0egqagJTmSqL6RGkg2tyD498ZobUTMMjFxieVkqHoub1cx97B9f8HA6/8gqGTp82+VAuHX4rUnqvM1KyNaBexPDwBA4dPoE3jp7EIfLBo8fx+lFe0yg7+MZR8jHM0WDTgkeRWiytGUQpfVvaW1Hb0oSatmbE2ltQ39aCOh5rO1oQ6uR5cxuafDVoTpfRRd5AaRBm1+kuaDRE6Lj65IBVuqxDWuTYRcNQ82qXSO6URwszsV5KpRNp9u6UigSZMXkJZnOk28U1c2KWj86tMcxuuMLmvuNWR7I+5cq2bLaaKlDNaA/70dfRijo2JnX/jI0qHlUZCXs2/lIpa0Br3q5VgGtATAEhFUbPfQSsK+9DvuBDINaA1ev70FdTg/HjJ3DswKuYmZoyubtUuuagdYpfZIwzsu45yzjEqktVDTt+9LBg17CENqVz2MQebXPahY2ZEtblSuhmq65hF6dNKkQ+lw8dq9bjzs/+Mj76+7+PB3//3+P+P/g3eN8ffgX3/cH/ift/91/h/n/3G3iYxwd/57ew7VMfNyqIVknUEgSxot8sSVeClCYHVFePlFmrbztSV/NQa8IxhAJhVrykogzJChArw3FiKjlIsYGlaSMUCPqy9EKtYvDoOcuPhps2VymxgM2GJOSyClsGnZjnZjkOpa7uO6w5yB7aMJHRE6hNJtBX34rWph7kPLVIMQ2axE9lmPWTN+ARyM0ntKhyiV0aY1O6yRrJyRfZa5azyJIpo5H30MaINmNr30bEUgmkTh42xqMLWYVm/t6K3jVJqyqy1WRJSWX9GNJbsHAsip00yn7hH34GH//8p/Gxz/8SPvbLn8NHviD+PD7xv/wKPs5nvb2rKHWySOeyyOQyKAS88K1bg5pbdyO4bxe8ZM+tt8B3+z6E77oTkXvuRuTeexC56zYEN65BORZm8ZdpUjB+jTFedPTg6pPAq31kW5pbEPTr+0C2UJaOzg/LicDQB/CMPqjhQ4JXb6Xsmy8ClYC0JVsh3a74tfAQeFXu1o3ikApRZnednZpG1BtAa3M79ewGNmAPJbqLgsEDv2E3DVsyBYXfjIdXmOcBpsVfYQkSLxuTdqs0i02ZJA8NtGhrKxrrajE7MozJUyeQn50zKahO7kr07tbQSqS007gq+NxI+T1YCHgwR54NuDFDUM6Yay/SflqsLMj+48fw4+9/B9/8xiP49rcfw3ce/z513h/gW0/8AI898X08+qPH8fSrr+IcKwPs5hCrR5FWa45h5FnBrF5KmBKlPPWwSgW+WyTQauv3uvo6M2lG19UC35yaH6abANPIgpkeKMCSNTHG7P+glxZVHnVuri8Iy7mnc43xaDJMdiGBIvX8aCSGGunXlOKFHLt66s/FTJYqicM08nTMVnHlmeYuiKuvC/Rfoi3B1gR3KIimlmbMTE5g+MQppKZmTJpM5b8FXZegVeEvsIs6eOwIvv3jx/GtJ3+Eb/7kRzx/Et8y/BQe++HjBOaPMTQ2ieMHXsHjj3wNj/73/4Zv/vH/wKN/+v/gG3/yJ3iU/M3/8d/wd3/8f+Ppb38L48NDi5JUNgTrnFJKI4Uy2uxZpSqNm2tJDr6c7l9g1W7fmuwiYBnDUkAkO7u4WNDaCeKSrlbSOlW6cuUv5o7hOGA24JWXYg7Z+Ul48jnURmvMpoB6NZzNpc2Xzk+fPonjFBInjh/FiRNHec7jMR4v4KV7RwwfI589O4D5+CzjYuFTCtdGY0jF45gZGkJmRp+lYhLeGrOXBtpLCOeKkQpU+pt2SdQ3dTWp2ezBenYQI4OjOGd4BEMDQxjoP4skW3tx/BxKp0/AzYJxHz2KPAu1wNZbPHHS3HMdPQIMD8Kd1VIVS5Rn/NXWoqx8I2ELjNcZTb6WOT6ftPyIEDK7RWppi6StJnEXqAaY7+Aai5w6I2tXoNXeB3pm/DIviy9HDPiXqlfuTd7svylnsc2v8Ku8MwyCtrhA0GbS1K1DZkKSGnO2kMbQmVN47pmn8BMKEss/xNNknT/9JM/fxD8wz8U//uF3ceBnz2FqfJi6eYkqg2alUaWhWlcgYPNz8yYdl0KXBNrFlnmNSHIvRn1udSCKbQhhdzGEO3Mh7GUD3UdFfy8raTfdbGOm21159DKBW2gQ3Ey9ay8Nt1vZZd5OI+U28m5eb2c2V9NNxEhTmQMy/NyGtTG0Fltqus27TRJ2mj2ozxhJ5mvVgkYTtDpBqwzsAk0Xpale7Mi9lbTOAkf5f0uquLFQJS2eVEhj2Slr8Qd8NQS7VgdTjOTYtU+OYPLEIUyfPISZ00cx23/c8Fz/MR7fzHPmuT2fOvEGEoOngfgk/IUMIqwrPxuSPlKdXFhAmj0rO5FLoouD1gmER9N9OEwyLVddUqUFSxVcjlX453W6LCTnXGxaN1n7dmlrTo01Ko5IVwf2fuzD+OXf+k384ld+A7/wr/8lPvmV/wOf/K3fwqe+8hV87rd/G5/7zd9A37Yd2HznXXjo85/Hx37ty/jQP/61Cn8JH/nHv46Pf+mf4Zf+6b/Ag5/6HFpXrzExKj5psmINAdmhIR3ZzV5ovJxHSu1KfPlkfKqQDDklIrIrFuKsTDWnxrZONHd2I1QTpQf1Dn6j5hSpfxZKWZ7TkvcwNIZFG4nXbJxqiGTNfRW7aPVrvYaLPQqRaRpq2c1GQH+2EVcmIbKRBwhSbbJsGjLj0DsHT9lnVkzEahsRJcdiDYjSNtCHs+2HSixrq3q96RLX1vJ5XfMiR6L18PnCioz5o7RlfAKuVCA3hZRAq95jUV1ZgS5J0q5MtrIYr62AZdj+qCArXDmvJl0qIQ7LTZK6jvSmp154Fj8hP0n+0YvP48cvvoAfv/ACnnz2OTz3wosYpwI/RD5AdeCZ117DTwwfxE9eJVeOz5IPnzxpQKC0WtJgOuNmYnSUSiJDxD5yHFUnVOcr8dukFbxLHZAuKeDOsNt0eXxoIXC7VvWisbUdwQgBUt8IfyiEBCXU9NycGbbTB1G0mbGMMkngDNWhXD67xJSWuYw+7KHpiPrOAq/ZPZsl9UoI861NN2ojEYZFFY09lRmB4GMP/+oam7F+42Zs2rINGzZtxoaNm8z1OnN02LlPppv1G7cY3rztJnSv7kMwrO9EsDmwx8zTMPN7/WbFg7aGknrjgFXCcCW6jLkHr+OUM/fAxZZBNghgYdngl4/E1r9+BAogxxY/r7kHDz2IFC3S6rkHNRsqcw8aWzE9OIj9P/w+fvr4D6jLDqJ/6AxO0pDqp256ZvAs+mkQjI2dQ/dtt2Gcz59/9qc48sZhMxd1ZGIMI3w2Ql13cHTYrKMq+P3o2b4dzatWm3RoN/HJI0cw/OoBzI+PmYWVNTfvQO/Nu1DT1GLzplTbw1Wl8yqI5/qsUTqdxcjoOSSSKaMW6P28JxiBLxCBxx8mB1GmepQrlM3nXzXcJ/3WrP0iyM3qhXAE+vKNVsmKo5GoeUUsruG5Rgdqa2KI1dRSf42ihjp0DdWlcCYOJCYQa25BU3sngqGoSYM/6EZDUyMbUBta29vQ1tbBYzuaOjrQoo9m60hu1jn9mev2LrTy2EZuam0zoxHKS4ZpHadhNkh7pXPNOmy4406E2ztMEVS/bFmOLv703SA2NCP5pFstpJCdnkOOnJ+Ko0yJWpqaRnF6hsr7DLJkKn4oz8dR5HlplpbpXBylmTmUySVKoNLcNC3TSaRnZ1Bk5Tp0DbD49oh5j0Rq0NPTwy6Y6gAlj+ZDTM7OYSaVY+OrQaihA4GWXngaehF31WFgNo/+qSTiRT+CDV3oWLMVa7fuxZYd+7Dj5j3Yecs+7Np9O27eY/mmW27F1h23YOPWnVi3eQe6e9ejqa0LNfUt8MaaUK5tRomNfDY+x7gpxfMZA6QQAddEYLV0dKKV6kpbVzdaK9xS4WZ9nbFrFVrMUW46Dbd2dqJB30aOhJCXWsNGNsu6iipMugvW1Zt+zvBFVAPRdQda00WzVcf8IfTUN2Nzcxe2tnRiZ3Mnbm1ox776NtzS0MbrDmxhl9kWDKI7EMa2+ibspITeVteErTwXb6lrxGZKho2tTeiqr0WQxgz7QhPPxYvl3SONHPjZNWsJtqSjpimqEhOpNMapKozNL2CuwN4v1ErQ9sHTtBb5WA9mvc2Ydjdhzt+CAu97O7egds1OrNqyG6u334o1N9+Ovptuw9qb70DvztvRzvsN67ejZvUmoKkb6UgTw4hh3F2PiVAX3OFmZPTJppkpFJPzcBNoxTy14SwN2RwNQLEmxIi1bu08plutjGZvpo1YCvmc2TSvQBVFm46ody4uJDA6PoEGgr+daoS/ocGYwtU67YXs0MVXLugRja3M5AQOf+2r+L6zcsEVgtcdYtdPzNMQsFJrefxTfWE4djBJv3blQhmf/o9/iKmFJF7/y7/C5PPPI9TajJYPPoRP/JMvw9e3GfmZWcy/+goWjh01yz+kZ7jL1L8UHOM1u/OFAqi/5x5atdNInD6NPCWyUUI0lGL0NBkkadON+jv7EKXECVFKlN20zinFj/ztN/DCn/4JhqkHN7q9aP1Hn8O9/+iLaNuwhW4YDoO42uqBil/qgVMN+tX17HwKjz72LZwdGrHLYljuybIXGQK2xPJ3hRrhpmEUDIeoKniQE6JY4fbzo9JraeRQNw76XPBSamp1rsmMssVINE9Dow4CXWJBH8HLmV0YvQynLpfAjtM/hWtuBGt7V2HD9ptQ19ZuXg7IUFWRmHTyVzsH2ZRbqlZ1dN+KCMVpX4BoSC7N/AyfOI5nDryCdTfdhN0//wto2rUHJb2RZB6ccWrrbyl0595lSdql5CyRgqxO9NshJ3OO3S6gpxJx9J84ihdeeA6v7H8Rr9AIe7HCL71Afu5Z3nsB42NjmDw3goOHDuH5/S/h5f37sZ9u9r/0AvlFvPTiiwzjBfN8miqEAO/Ecz2T2oxWMEi906yssl4iUGJpEkouncTczDQmqLPnKMEaaZR1dHRT54wg7/IiSct8PksjjkCcSOQwOpPEwPgcBs5NY2B0GqdHp3BqZAoDY7MYmk4gkac17w2zIdQiIEuf+mgDu+wAdeJZqiXjtBO0z4GEju2pnNLT0Rq0zpSG81nPCEIC0c5Eo2saYMlEAsNDw2hoacWaTVtMg1BGnY0/jOCR2yrAVtMlg1aAFcuDjgrOJN+G/7aoOpwiAzYTZnTOUpjJJXFgqB/fPvAi/u7Az/B3r+/HYzQGv03D7Xuv8/jKAXybAB2ZmsehkXE8fugNfJPX3zxwAI/x+aPkxw4epN+D+P7LB7H/6GlMzadZKB4409evD3JSoqOtMJ35fB4aOs202TWLK48ADaQAAeBnpfuL1DHzCeQT05rqhbqgH51Ug2opdSUtZ+dmMT45ifFpHudSGI+nMJ2gDpkqYC5dQDxTQiLnwkJBk1m8mKcxt1AoIcneKUk1YKGQQiJIw68hBnbqNG7PUTBoCmiWALDj2kWmKS/Wagr1aBUu0dC2267ySL/lch4eTSjnPW8hh8TUOM70n0CaevLGbdvQvusWeGmgCVkawakGkymLitR1pKzosiStyAwTVc4VvsPvlEw4SjNZ4fspKXxTs8DZYbgHhuA9O4TA4DC8bKEucmFwFKmzo8gvxOGemjT33GeG4KMbv9zy3H92BF66K/NYokR2s4KlMii2xeGt641UBjxIl123dg2amxthPrZRzMFHsPoIKH8pCX8+DleK+U5NIFKYRYsnBTMPKzVr5sEmZsYRpwE6PzuNhbkZJOIzPJ/ivSkkaZzmE7MoJeeoW84R+NRZs/Nw5eaRp7CIU5oPheuQb+5GmcZZnBJ+dGzIvKHMaVmSxIykv97OUYrqFbMmOS0x1Q7d18sQNgQNK2rCuL60OULwT8XjqO/rQ9/t+6hTr0I5ELS1oooXO1R9XkUXB22VJ6rC56F+hfDeMSlcdSt1vpAxwB5Yu5m8Cff3bcBDvevwQN863LuWvG4t7lhHq7c+gjX1dbijpxcPbdyEB9dvxMN96y2voXte37NhA25a1YnmMPU6SgZAc2Yl368/EmBVgdJJO9rbsZlGiuay6q6boPXSJnAXCdpiAr48dXgC150aQzg/jVBxDr7cHMqpGYJxxkji/PwkcuRsfIJgHkeanIuPA/PjcJHd8xMIpmcRysYRJGgD+QUWTRHzPjaB2nYUaaQVamJUN5IE7himp6ehb+rq43xmQ2wmWN243Q3IzouwLFxTNFAXT2WoptCIHBgbx8TCAmq7urD29jtQt3kzXBH2DvyTZqy/S6FLHKddMOO0Z5/9GcJsDkGXFgBqTZDIjtMa0b4MmdZjnlmgV4/TpmldjrG7Tw4NwRONILJhLbbu3QtvrMG8g6+j9dzb24c1u/dg9S3iW9C7Zw/6du/G2lt2Ye2eXWjdeyvqGprQqaUcN92Mvj170cvnq/eQ6b5v9y6so5/Vu29BHcP3RPVWiemi9Tt55Kgdp2VlvLvjtJUTksrLqTq994/GYmaj4rnZWfNFcK0R04uDMrvcfCaJMI2w9qYGNMRqEE/Mmw87z1CaZjMp6ohUtrRKo8Bu3awBoyFluuoCAgzHR3D62NX7iDyxn3UZchVQw4ZN8w4BL41fhq9jkOqJRgK0KYc++6pUapdGI/UMQpfYbJ1kJLFd6q89wM4R7LPUxSMtTVi/dw+6d+2Fu66enqUpy0DzGD1e/hfLY4XCvzhoVXr0WEinMUsrfvTFl9ktMZOauEzNUB/4uNKg3ULQBhqoy7HLCLS1oGbLFoS37kBk23ZEtm9b5Jod21G7bQv8LW3wt7YjTKkb2bYDYfFW+dnO8y28t8m4D60hYLWpG61oWbCl6xS0hmxxmZ9wSJ9fDSKdyRhDUrPfBAYzjJTLIhjwo5WgbaqvNeCOz8cJcEpZgstNULrZ1bu1FozHatAGBVRaRgJrgEq+n1Xp53WQXEMgawTCrDMjYMN0EAtqbixBSMBqU5EcG479GAmlJPVhvdjQGzyx9mvQV9U1d2J6hg2JhleO4bf39mDj3t1o2b4drsZmA3YzAkUB6EwJEOYWy2OFwjcN5a3IFwqgaXUPWlqaTWsrFfReWwEK1SLnuBKdr06YtrB4tkS6UheRZ8GW9MKbrZy1BkTJNREyj5GwRt95n8cgr11sAW6Wui9I9pvhLutGfnSUO97XM3+YoXvJVBM0vUvxLSbsrfJw7chJiYpYqdT3ZXez91i/eSu8gRBy0hsLMnKkN+ZRYNeN7AKC5SxC1HdrSgnESnOGozoW46jlURyjClHD61BxHqHCPAKFOMLFBURKlmOFJGopmV0ywWh0ZSjt54JBzNfUIFIXRaOW3rQ0wktMpAncmfg8JianMDkxaVibQU9NTGFhPgF9pM/Dcm/t7MK2e+/DugcfRJRCCOw9TOYIWBclulkCJDXZyfRb0PKgrS41kiccQ+PmnVh/150o1cWQYKuSIRkoBmkchOEvRxgxW0tZg/ceFuYSG5tSM6kqyrv0VQ+PdpTAdgs+6j1BYbTgoq5msmGWjhQpFYsEYdFLG5o4K/C8QLVBy0sKlAQFbwBFSoYCLW3DBLlhJqNA7JplKJ4AOUQJ6+dR45dMp8L3sIuj9eujseBl3NpaSN2U+FqSU0emDslmqIvXYmbDNG7NkV1DofHQPXfjoXvvRZtmfbGOtOGeJmZrjDVnGqFdTaBVGEECO0gVIMCS9pVkxOVovWd5nqVeTGNKunE5TelJYLkyjIuSmVzkddpD0JaTTA+FB+uOLs2Lh+m6Hrj7dqL3fR/Blgc/irW77kR991qUY00oxRor3IByXTMCnT1o3bELfQ89hO77H0Djzp0IdXXDHdHOilpezhxq7Jh5Y0KIX2KDpW+/lFMpjBVo2RqSripjQEcz4Zj+gy0tWPPRD+HmDz6MUGs95tJzVLAXGABbCVuKOVYik/TSWKvYqtfqBhgYWZVidBdTQwKtWLa8faDuQoPQhDIzIrYgq8RQ9Sd/ZineYhiG1c3YqBgcf/VMs/nFPLdP5JblRRY4TCHomfzr/F0mm0LLDmkjuZ7uTtyxby8euv9+bKURUxeNmc/pJxIL7LbV+wnm8sfSYbUpX06Oja5YYVOzZVvDdpaZqWnD+tNgldaKFal+6A1WgNI92tSK6Oq16Nh2ExrWb0bNBsa/Yyda992OnnvuRc/dd6OHxlXvXfeg56670b7vNjRI1aIhGejrhZsNDX42J7svKeNiqkz92FNLSstbk6mvC0lelSUjDZlJDWlI8YlS57vpM7+IjQ/djbrVLSj5C8gUU8jk0yioS1dG+WezbkbtTFi20OyPLE2xKTyyXCiePB2ZRY1CtIDGexq505lY8FRWNUX6fF7pnvyrKShiEznJpMSQwtNtxe+kV7qi/q5X0uqE9o423MUe76GHH8Ie6v+rV682r3vNjofSL1lXpozpfvHo/Nks86dSKvwx1zoX61r+Ne+DPZB2a6yrrUNnezs2rFuLdZvWo3VVB7z61FKQ4Guqp63Qi4ZtW9G4bZvhJtoajVu3Irp2LbyttA2oRkCrLyiIzGRQAvWd9mbLvsY1YCXrgcCltxmSdzAbPJSReXE/zj3xEwy98CpmTg+juJBCnpatvuGl1mM28FXXTP8liX4DO/6yQJKFFEZiZXzyj/4Ik8kUXv/q181rXG9THUJ3344HP/c5eLWDIbtyvZY0rZGFLDlAS0K/l0wSIouSxhDPJE3JxdQcznzvezj6N9/E9MlTiLHL6vjCZ/G+L/4q2jZtYZS2hnW4HojtyYCKxWryk6Pxow+D9Pf3m683qndKJObNm6b+gQGzGbM2RdZ6DJttm2+tZvBQzdLWn9qWU59O0qyvIKWpdgQPUf8P+v0EbNg0iIaGBmPLaM/ZaIjdusigm3WhEQJzyTh0oniMgyqSEFIPavzIkXWjpUHLk3lqT1egi4JWQJF3SS22KxL1QFqMGsfD5DQyh09g7sVXMff6YZw88DritG71flqrLoMsEC15zvmUOGmplJQseYFWuyZ+6j/+EcaprL/+149g9mcvocjCGm5tRHTdGsxEaih5pSKQeHQSaL7gWDm/FFLa1U0656o0e8EK1AbBrNzw2WFEM3kaMC70/PJncS9B27Jx03UHWmWjOu9OrWmnbhk8GjkYGRnB8PAwjh07RvAOYoblm9YGBfTpuFcZCLD6co3275U01QbOmrStPWVbm5vQzmM9wapJ3bGovm2mr9nQbyUMkxbnhzftbARbUOeXV8UDybltXOq2UzFvoqWwVqJlQau4BFpixERrYGdcMYHUcSTqNYTipsVa1l7/Q6NIv3YaE0eOY2D/Kxg7ccoYCPqSeErSkgaZJIHs9lQhjdF6Nz7zn/4zxufiePWrX0Pq5QPws8Uf87mwoLmWShJZyoHRNU3MakRqTiYhl0TKusrGKYJF0JLyrLjmfB6dmRwtaUkNoOsLn8c9X/wiWt8DoFXFV9/Te/tkKm2GpGbMC4Ck2epzgfmbnZvDPK18fTBPKoQ2AqkjIBubGtFQp91saAAHgogSvNFIGJFAwOzeqNUQKjMLUJalpIjidSIWq5hURZVyuhBNemSbDdkWqSG/7TuXIQV08UJfEbTmZiUSE0zFlRk0lrHDo4vWqboI9kNAPIMCu6TU8AjSw0MoTEyiPDmJiVNDiI+OITUfRz6bpAE3j3PBIj75e3+AeC6Pl7/6CKX1y4iya5ojsDMMr+CEaxJgM2DSQQvzsoieTNrt6eKvSPt/hXkZYZCqcE006f3CZ3Dnr/wKmjcQtBIt8m+jf9dJOml1+s2pk7jKuVOVWhVg9XP2msxbmgJEY6ca6Jdhrb0RJGmlGmhWmIIROCVYrBFMcoKuitJEx2vn1iImdL/ifvHhBaTblao05PSf1c6dx0RX5Wx5Wh60b0HyYDpq45URKDfCEwsI6bSmaIH9FaXwPFITCWRm5pCnRC7OTmLh3FmMzJzD9n/4D1FwezH05LNIv3EMUS3cY4GZryqWKxLVRKHweUlaWk/1NsgEt+Tf7onLgBm+NknLun2oue8OrP+5n0PNql7TMOXcVNR1QUr7SvlXIt86odW+341sKX7F+05z8rZAeyEJrzIUTFdMKalFdEZSKugSrUcdszTiEnPA1DnMz0wgtHEdJacHuaFzvDcD7ThtOxORQrTezssCgfZWGVqJTFBVWXWrATAwjSWXBFwqL4WuZtT09METqyOWbVr+vwTa64lsDb+ZLiUnVwy0ko0a87R2PlkoNoVsTThjwNHiNFgQErT8Vs/zFcPOKOZ8aFBSAe9iyirZeIeStirASlhixiWlrET26Zq50IrXSpw3QHt16F0H7WJZMjadGiPO3DifzERgnTDFmj8r0kGqhhnVrSDE6FSLVJ2NlbJ6iaSsLpaIGhGvjfpRYfNQsS86uo5IJbpcqYqctL936DoArYJwkmGHpYQFHTVG65R1dYKMG3tK0nifXvhaF3aA7MrTeVmVpLX/FQOB8S6K1asR+zslk1J7+iay5fZeousMtCIClzHrrhm2ujAGpYr3JF81tKSRPkk+M0WNHu17sDfTxRJ6Ke7Py6nxsGSaKR1GwvOGg125X8Txu05KaXUGqkmJvG4Sekn07oPW0JuD0Z0Vhy+Mc/7wsYWOfuXa/i1H1tWbqWJTvYmMWxO+c3EBVXnSY3OpsHii8+sLtKLlMuHQdZXQt6SVcnIpubiCoL1MMrEKFdXRK8krJ3vF1qlgKufVpJBt138ZpLDoR96uP9DeIFHFHLpBN+i9QzdAe4Pec3QdgfZGP3yDLo3ePZ1WZJTGyvklgNbRaatbmu7J59WA/A2d9vqk5UF73h1eaAmCyAPMp1PmS97pgt3NOeYNoKlOO+HJqb65IgDRYaW2xxMJxBNJAwDNJtK83LqaEOq1uRpdl/RBaD7Ud6lmUvNIJ9NoiTUiGI5Acy6dbXgEVQG0UMxjXnMaMmmEQjWoC9cYY2uO8cwnk2bSunYO1JIbM7+XvhWGFu5puqSWOevT85qUY7NpQ9ckEk12DzCwWu0wWFNjpvDdAO31RxcHLR9ZEBK3xQJmp8bwwrNP48zhQ0jFU/CEatHc1Yfdt96K1Rv7EAi6Wckad/Ugk0phdKAfh/a/iLOnziCbzppwvcEwOjZtx62370NrZyt8gTITkUN8YgIvP/sCjh07ifse+jB6t25leD5oo+MKrAw4tcHEi0/9CK++9ga233Indt22h0DL44lvfwtvvPqaSbPP50XJr89dMv1sXChkUVsbRVtvH3K5PKZGRpBdSDFPJZiZ+gK2x212Z/HVN+OWu+7FzXt2I1QTNg3Fkew38Ht90EWXkNuBfy2RKCO9MIVXnvgefvAXf47Z/fvhHTiD2f4zONp/FvGFpNniMVZfa/ZGTVMKHj/6Or7713+OsSeeQOrYEeTPDCDdfwKTp0/h2OAMFnI51DVph+h6+ikiMXQSBx/5Dp799g/Rt2032tf0IhAw6yXIlV8e3AuTeOEbX8cTX/9bdDWtxupdmxHJJ3Hw7x/F4DNPoTQ4gPnjhzC+/yXMH3odxeEhlIbOwJ2Yg4+S++yB/ej/7mMoneyHe/Qc3Z9FgY0rf+Y0cqdPYC6ZQXvfOvSuWwePNjY2MS8B1jneoHePlgVtteg10q2YxezICTxFwI4ffB3vv/sB/PzPfxyrensxOjyKNw4eQlP3WnT2diEc8mGk/zh+8q2/xYuPPoJd7avx8Ac/gHsfvh+37L0ZXZ1tGD87iv0HDhjAtvWsYlfsQWGsH7PPH8K508PYdu/D6NywFgG/Jg86qdFbNkrduXMYePYnGD0ygK3b9qFz7zaEvSW0xkLYtWM79u3dhTXtTSiPT6Crtg4PfOBjeN+HPohdd92OLgJx+uhRuPuP4f57HsbDH/sk9t17L265dR/2sLfYzeO62+7Aqq3bEWtuYreg1cRW0oqrwXuD3j2qtmkWqXpAXitW3ex+XfFhtE8MYx+BtGX9DtTfcx92fOh+fPbu27CFOqQv7kYhA2TmxnDs2e/h9Pe/gV/dtgGf+KUvYuNHPoGm++9B+8N3Yt8n7sWXP7ALm5HFmWd+ioHjlMCERggZ9OSKWJV1IVIMwls2L1VJFciYNGnZdwb1pSw6CgXzlUUp08VwEI27d6Ltgw+i8cG70HvLenQH3Oilbtp90z40PfwR1N37PjRsWI/OSIDxZNC3fgvz8HOI3v8B1D30QdS9/wNo+MAHsfGBB9Gxdq35qvl57z1u0HVDy4J2cZaWfqjUCT71EQ/WtzZjbiGH//T1J/Cnf/P3GJgfQ98De/Dr+mwnwVLfRINsagTBo6+hfnoafZtvRYiSC109QG07ULcaLkrk+nv6sGd1PYpvvIphSsx4irqn140MW0jOpfkHlLDVLWeR7MwsqSwFdxlZcrkcQtlXA4TqaWk1AJEYUoEIRj0xnPU1YiZch2JNLcxGHZ48ctSf88zRgYILx6nvThWLmMiTs0WeFzBfzCEnI43xKAXaQ8BZZr5cim7QtadlQWvsdFWarBAB1+1BsKkNa++7Fbfs2YTa6VM48NW/xJ/93h/jq4/8CGdSLhTrvJROhENmHr5kCgFXFK76rcjSANJU1TIlYskdRDFAADV3oE2rb1NxeCdn4VkgSKQ/08o3k2cueC9baTv2jM/0WUyNKWiCjd1bwU8WvLTjjN/c0+YVeU3sZtoLjN9uBZFHwZUzKySe/P7j+O//9t/iP//GP8d//c1/hv/yr34d//k3/y/8/V89ijEaalofpcZrkqIEXIxv0DWlFUHrMhKNNaJK0XhWfSuid9+BW37lk3jgnm3YHAsiPRzH808fxJ//5d/h+Vf2I5WYZrdepEpBS98dRtrViBwDEOCEQWtQEbjeqF0RWi4gks4gQLVAcTh7G1hg6oTRV5Jg5pQb/zwxKNJQlpKvc/my8rBc1pEQLdmNfGW8Gb2c7s1Hi/VHae6enUVheBDps6eROnuCxxNIDpzDwvgMcil9XNj6u0HXHy0DWoGgAgwx8ZArljExl8PxeAqZDZuw7eMfxIe+8Gl85BMfwa4NvZh57VUc+OFzmBgaZ4g++HxB5Nn9JlIF5NndCrTa72l4dBTJdBL5XAHJuRl4tIFaOUu4FSmFKS21VQ6loIbNBDaRlaQ2oQb0euA8PI8q98xz54o+FpEnyczeQ5f8uXvndnz64x/GJz77i/jEpz+FX/jMp6l/fxa333knGhsaKo3kBl2PtAxobeUa/VH6ASs5m83j2Gv9+Or/eASPf/tpLHSvQvfPfxB3/PzD+OyDu/HhVY3wnhrHzEicII+ghlJZX54ePHMa5whUfTLz5LFjeObJJ/Haiy9i8OhhDA2cRpBdcCzmhyegFwEuaIm+1mtpJamWOmv4X1v02G9ZKVVsQZKkRsI6dBF0Gbw6z62OahqE24UdO7Zi3/sfxO6PfAh7fv5j2P3RT2DvRz+Mrfv2oqGl2fhy4H6Dri9aBrSmczU15jJKLVDD8+4cLffDs3jiL3+KH780hpMLPsxlUxg79wbOjBzEpmAODcEgCk0t6Ni5DTs2dOPlJ76Gx77xBE73D6AhVEL2xAk8+q9/F9/4919B/+lBdG3ZifYtu+CNRYipuNnSp0DjSG+8JicnMTY5hrEx8vi4OaayTE/RR1BTgSGwtbTsTe9GeKkOwu3RGC+BzueSmqYh6l/u83m85I7iIGI4l/VgNO3CuXQZw7kpjM1PYD45jyKNMrm/QdcfuQiUN1WNWfpCiWcqXQsOiwnkTx3Cyf/6N/jh936C4fpe5DqjqMsPo3NkAIVkGQ9+/nfR+pmHEFkVgG/4FCZ//CSe+5/fwOO5RtRFc6gpJ5AdnUVmdAIh3zz13i589PP/G9b88ufh21iD3OEf4/jv/Q2++80nUVi/B8Vuqhh+7e5HTZfSUVstPfSrv4o7Wmvw7H//L/jBY0/ivs/8C2z/l19AQx11ZCNGyekpTD33TXz33/05XIFm3Pq//yY6790LjyeD/OhBPPO7v4PRv/4ODnftQ2FVN2o8SYI/xzjc1L+L8DV2YO99D+G2e+9Bc3ub2RXnLemGSL6m5PnKV76yzBsxVZQgK6mrPjsNvyeH+rZu1LNrTsRzmE/NwZ+fw+pwDe564ANY9aFfhK+3HS5PHm5vGeGWRrSuXQVv1ofC5Bn4FmbQ4vOjRx87i/oRjPagUNOCcl8fQp0xhJLjKB4fwjwNJARiKJSSKKdm4U6l4c5k4KWk77rpFrTHQkgOnUEmWcDam+9C7c7N8Jk3Z0ytFNZ8CnnGN3v8HGqbOtC2Zy/Cna1UCQjM7BxSx0/BPTWPpK/WgNWXnjNf3PZks3CnUyi4Q+joXYeetWsRrgmbRcKXANsbdA3JVSgUqurEigwjYXlqHwi0ObgLC6x0AuL4SZw9NYkpGlReVxHNrPye9Vvh2rgFuaiHXXcSnuICtc8i3acxfeA0JgdPmY1/AzTSAgy9VMogm4uxy0/As/surL59PTrLA0geeAMTg+NIowVZVx6FcorxU9KaLT9r0LxnH1qjeST7D2NmNImG1fvg394Ld8C+OfNSq/HmppEbeR2TBydpEzYgtnUnfJ0NcHkTcCXGMX/oDWROjGC2GECGeXQxbybblLT6Nlku1obmtVvta+RowEzw4YOLA9f4J99A9zWhC0C7Ekn1JXjzE9QXC3DnaRDJrHcFybXGiCoHiijRRtKXr116g6Zd9UoFeFJJKZhkDUU5RL+5ImZOn8VcsBU1nU1ojiRQziehTyahWEu/0qepV0p6mu/wRvVNeeqa05R+Kd6OEEsNyDFezQ8QYvTBeW9JX2mRm2bGGUJR47baQNnNsAsZuydZnuFpHwaDsgriFI/S7GfcnhDyzHKJjqtTfVFSMDfompArn89fhnwgkCR1aAjpM+z27YMG9l1mR27CrVJ3VTXILtiAVgDRv8AhH/oWlj9Il15jUGmPKe3zYvwK/YrLgJaeNO7LeGyomi2mr9PYsWBngqF2jNHrA5e+XEN1BqUoyh7CmOArq6FJ8pv082hal+Jw0qmEKRwdFRdDkj+y3XjvEqgqyzfo6pIrl8tdarWwMm03aQePJFEFhApUKW0NHi8g40P3BXZhouLIzpO1UWu0QlvZe3hmMGoku30iVnwlgsy+9BDw9IzhEMxFHXRFjzZkRSLL38u4CD7etOmWJ7phIlZc1i6SB5EJlP+8VipElVtvpmVv3qCrRa5sNnth9a1Ittqd+hboxJUBfImlCyuPDh0M6Fm1fysVDRyNDCwSspJxcu7semCBZiEjYNvXy5X45Ib/RkuxVxWqxKB/00Bs0xBbEmhFSz7Op2rXS/71c348VbRSUDfoqpArk8ks1edbkq3AJfknlcACTVAzJAcOixyhWalYx78ze8DCV6RwrCNrVoltwxBJ+koLFWBl0Rui8zeDVmRTaO/ansCJw0mYjet8XyL7yUzFq6dK21K+lvdBWvbmDbpatAJol7lVRUtVvwS5JXSSHAdOZV5Qqfaxha78WUgteRCgdOW4dMBsAMRbi8HxZMlXNVl/li58utJ9S44aoec2HUvulvchcsK8XFo5xDfTtYhD9Hbiudw4RJcZj3Fu43GllgWtlW7L0XLJswFUgfYitOR/5TiWI8VRLR2dRFen580Z0Z3z717c/flxLEfL+Vkunremi8fzZrpWcVQfL5UuNx7R5dW/kmRtHeD/BfJp9NUl8ZQsAAAAAElFTkSuQmCC;" parent="1" vertex="1">
                    <mxGeometry x="80" y="450" width="154.47" height="100" as="geometry"/>
                </mxCell>
                <mxCell id="18" value="" style="shape=image;verticalLabelPosition=bottom;labelBackgroundColor=default;verticalAlign=top;aspect=fixed;imageAspect=0;image=data:image/png,iVBORw0KGgoAAAANSUhEUgAAAGcAAABbCAYAAABu+ZsvAAAAAXNSR0IArs4c6QAAAARnQU1BAACxjwv8YQUAAAAJcEhZcwAADsMAAA7DAcdvqGQAAC0PSURBVHhe7X3JkxzXmd+vMmtfunpvNPaNoAguIkRKpEYhjijPXGQ7JiZiTg6HYw5z8dEH3/2P+ORwhCPG4ZvDB41HGq0ERYkrSAAkgG400HtXd9e+ZFX69/teZnV1o0GiKQKCwvgKrzLz5Vu+/fvey6xGIgwHIQRhwg6PDAnX7UhgXR7zPF9nDnU6ahd1OCoLjkgLhdN3PULPDo8OIuiI2JkCHFU4g+jkEcFQOiotnOPI8jwqLUfn11GpeAZPECLhHFVtvh5Ib45aDq38svJUw9H4TLcWPjGSjuigDLyvg92T0bXHDs/c2lMMf77CkcHH5YjwBJ3FHwV/3m7toPuK2oYjwSeR+GofJxY8SrsnDX9+wol5OBig31cJEPKc6zV3PeizaCbH8ETCGzJex2QyCZ/F8zwWP7qndtbkqYKnWDgOLW9kcSyLGBBdCaHVaqHZbKLRaKLT6VJWIYJegB6FJQGJqoSXMCGYAHjt8TqbySCfz7mSyyKbzSDpU0i8pw9FanM9DbJ6SoQTMvg5NCSA0Y8/SGJA8wn6fTS7XWw3W9jabmK31UO91UW93qKAuuh2xFqfcyTQH4mkznocq30KLc17Y8U0JstZTBV9TI3nMV5KI5tOI5FMcW2Z4ii0Lo7kRVb1p4KnQzhEYY+fdFFxS/IloEXsNnpY3djBaqWBrXoPlTotJszyHgVH7MMwyW5p6yDNH7CfiDKhyCIiCv3QpyX2kPQCpP0eUokWSjkf06WQJYPZqRImxkrI+Dm6P1/c4Wj6/GngqRGOGOgUXOi4iz6tZWF1DatbLaxvNSmUPhr9NFqMKe1EgUKgpot1FE4CEo56Ujg6sbGc1bhxCTQpP+xTEXosHZYmBdVHLtxBORdippzG8akyTkzPoUQheUnZooQrG3YQW+GTgKdGOArwnqI/aVdMqdcbWF7exLWNGnabZGPbR6ufQTdRRF9tGEvYgV3FLNkdC89FjghS0R2XEPBE50RAoouLx4qEJRI1CqmLUqqN2UyAM+M5nDo5i/HyGHKZrMWtGP7/FE6frs3vo0Nrqey2cP/eBm4tbOLzQQkBcmR2iv2zjD8FnpNZiW7EZIIYZmRIOPo+HFwMIRjFOndCDRI9VnWRDOso9Lcxm2jg9PwYjs9N4NTsFIq5vM3xJAUjeEqEQxaxtDpt3N9u4fbyLu6vVlFrZ7GcnqGl0BoYzMWcpJci0mleB+wYjygS3LkihD/CRLOkIYkpFndvr4f43uMXMzwWP+xSQA0Uki3MlFJ49ewkTs+Ukctm4TOre5LwRIVzcCJjEL+EwYCu7M7SKq7dq+PuDtAMktToHHpJF+jVyPpLg03jxeT9QojOlAMMwYQzPB9pb1/uzmAoTF3T3Vlc6iMVtnG23MVLx7O4OD/FrK44nHJvVAePw6r2nOkTAJdLRcFftLFo3aLsbH1rG7fvb2Jlu416P8WAn2XIZhZm7RwjRL6CM8i8uE5gTUaKxhyWkWtdqQzYP2TR0c6pIVq39pnm9Qc+erTMLrPBDvK05B4+v7uJ+/c30G50mD5ynL2pHys8UeGIdVrJG3UikBLqhR0srtzD9c8XsLAdYrufp/dPM84kGYaSxrhDi4YQww8tNtOeUOIiDGw3gefxkWVAnFSG7axOcmASwpi3vJPCF/d3mc5vcMHbkrSFvAh6rPBE3Rp10whPyL0wi+rxsMkV/h8+uY2ltR5WBrPoMEU2stWGxeOaRNYmZhh7I2zDhM9TjaN2YnZMhlrF0YSge9GpQUTuKNl94jK60hre40G4pIImplPbuDQb4PK5Yzg3N4MUF63WJGobuzWj7xtycU/YcoQ0C1PYAa2m1h7g3moH9zZCbAym0PZLzMaybMPVOi2HTs14b1/6Fx2txCDm7PHZwFkXXRYzvwEtxI5xYXur0zG2GGvvjroXMv7p6b3atEMPVS+PlaCAz9Y7uEYL2ml1DhXKUKjfEPwJhKMD3RkZtb7VZrpcQ62pGJNHUtsrA6bIZFiCTPJE7Ai9+2jXeXR9wDYM1FbM7YvhvB4W1llXu+9KzFi7F7VXK7nghGISrzthBtV2kXGxg6XNJto9xr3HDI9ROMYClhHWxJc87ta7WNlqYLvBNUaKq32iEjNJH1lW3xjG1YwCNVeelJed27VpOYs03M5pBSzakda9gG0V4HnK+v2FhrGvXtdWp3E0JyvjccLI+vq0426Yww4XxAsrUijGHqNJRDmavml4jDGHiA+P0jIxUjGERDLjubHcwu9v72Jxs2XC6TH4DxJMACQkWpiYF9Kl8MxGUX9hqhI5EhOkO9OXROrO+xRofEdtRr2gIG5n/aN+oxCPq8xQKbUpCEuy30M+GeLYuIe3LwV48fQEsrlxkqhx+C9S9T+DmKOhhaSKzn23/mBpdTpY3qzg3nYdzUQaTbMEp/nSXmmsFbqV0XoVuRrFiUDaTOZZ0Xl032n/SB+7H7WLSmwddmSRMPYVtteRB/YlbkTaVIzcbwcJptdNXL+7QcuvWrshmd8wPBbhxETuCYYWwbQ06PuoNxlrKh1s7AZodbXvlTaLsgdlQWCbnf2Axa7JQF3rGc2+40iAVzFB6BgXBnSyM06PTVgcb7SYAKKj6x+1jc7VRkLv0mJ6lIyE2KOCtSisnW6CaT+oXAEanYBkkk5buH2z8Njcmg1rxAK9Homgj643e9iutrFcaeHzCrDaytIVpMkEaaX2t1xKa/FH2kpNlVsxnxFBjO6ooqpG9aqThg8sNY7A0IiVZT/EdbxrR4HVRZcaSwKRk/RtDKbvFHQ/0cO0t4EfXCjirRdPYn6qyD7C0837Tbm1xyIcaXOn20Gn3UG73UWt1kClsouNxgCVWhdbjKWVcBwtb5zEkiBpOJedTii6lhsxlsBPuKzoS9EU46JTMdT1IINUaffEWNXtjeGu1dqtn4b39U8X7C58erR6ZY/KHMNQD+M4vtdHtnMfb5xK4q+/fRIXTs2wuZxf7IieUuEEdE2bW1tYX9/CbpVZTbWBeq2JeruPbW8MLWTRQJ6xpoyeV7B9LCOewkGUEMjXKwDr3KNwYlIN0UPQHSVBZ4E4qHOr37tn8YVH3bXaqN++/jqNrjVzj25XYvLl6rThyquuFyLT28KV2Q7+6uVpfPvSSaqR1OmJCke3pF2HNSEicXrCNgEzGQlj4d46PmOKvFXjIpOW0uznSGABgUf0B1rVyzribCpiIo+Dgas/CL1Qu88PQkjfb2M8gJqzOoFhL/IiEmWfcXsdYtL1zMddO4ysdthn754g7iMxn8238NalHH746nFMZxTltCnr7sYHuTgtcDXHUHaPCH+EcKL6QZIr5i7urlVw594W7m51sd7NUVhpZlQ+A6p2l7nWJ5ISgMjfRwBBZ/Y6/SHTdCkcVY+KzZpxeuvCr9F7ujLhiCm8GRdXr6Bvt6L6qEcifgtnry5mS+xm7do1sXN9ZpI1fP9cFn/9vbM4NXaIcAiqUXsb3918ZDiiLGOIECfjKtvbuHZzAe/fWMLN1QZWmlnUuiVaTAGdQZ4C0rMXn41JpKxDC0MrdF/Domvym0RY4dhWxAQxQ/fiEl0LA8dgtd8r8cf13Ssa0Z3vZWbRKFYXp+jxubWP2g2LTa4iPEK0O117yaTrgtyQ9xKIzofXRxRKDEcXjuhhNzGqslvDtVtL+OjWKm6vMz3u5FHDuO0q6wl9hwRoXWH0SDD8OOZHR7vP7MfaiDlRPQe3onoKLt4EtRJda37jofBxvLRiayEre8wVAvHaxXXYDza32tpuQzQ327v51S9qaBS4bx3bXExXOyGVkBeUgBkHyzcFRxKO0Ul90GtKlWodn9xex+/vcJVfz2IbU6iGZRdjuJ6xxR4/fWVhDPouXVYNP7zXZ11vENCyojWNrIdMt3bUxLiYS+G9YYmu3YJTY+0vEojWOvG2i62DdI/n7p7r54TmiNK5E4jaEDfhw2LWonZqaOcUPscyXrB0mFpvt0J7AaVd20Wv3caACZHdHZWSGn8NOGLM0WKxj62dXXzyxTLe+byK1c402n6BuT/9NpsmZSGh1i+MFXR7WhOE0ipkTCCxrRtD4qnFcHuE7OpHQRuPo6C7at0f9KKr/aDucWKhu5ojZpMUZhTidwrimDJ6V9cWxPVogvc1mu7H+Fl8CeqYSnfw8lwC35/eQWliAhOTExgvl5HL5eD5equUY6hLjMQR4KtTaWqSjR7Z2NZ2Cx9/sYp3ry9jsT1lmdjw2YoQZsP+kGhppNvVTShNJqONToLeoBGB6qfnOz5jklvtK6XmdB5H4jgaw94h4Ie6bNd638CwViG4YM7+Zj06deOqkcUJVRF/GoaNYh01tuGd4ty64eYQfgl7q4cjGF5KbAbMGrvs4iZV6s/kmjP2uDBoc2HQQHmwgXIpg/liEvOTOZw+Polzp6cxUcppQMPBcOGYCWaues9Bny+DLxeOENb2LjVA42tReWNhE+9cW2Hwb2EnfYZzpWwSEaZ/atgX91RnzJF74BXrzW24lgwdtELWWUvdl4GQaAvIViv26ihhs05FbdlPr+g6bY5BG6QSjoSrp6scQWPqjtpzHvKD7piVlpprPM0g4aQlS/bmNTvZ7OqopjzxBrRoXg/oCQbsS4bZPaXYWoOl9Mw2bCPVr3G0LsYGNYz5PUyNeTg9l8VFLlAvXDiHQj6HFIWuN+E0r+YzkWku9/UAfIVw+E/S5iiDfoCl1R1cvb6BDxbqqPXzqGLStMw0wOFs0CdymtCEQ4aoXsLpR1ahAc1qSLzTZiCVSdrTxSQVQRAw2Ha72uBk/4EeDXfZl70kUK7UpbtuQgqRrtQjwUMLGlLNOYSatWOMC/SsqMd2Gkc4EXOOJduWPZnbo4WnUnmzQFN0EyjnDvWATXNKCdJUGAqK4+h9HL3/lpQ10dVmurSmfhepRBVj6QouTfZx6eQMXnjuHI7NTiKbzZNnmRgpo8mJyRizD77SrdltFu2N/fyjFfzmZg1brQyXNwUG/9inxprsBDHwoyHZz7InXupFcQumYq5lbp4JIpvzUC6nMTWVop+mi/Hl47UfxzWOhMNS4dpps1JDq9NkCNAcZI5YyoZSjLSfRCGboa/Poki3ksuylowXX7Vp2eHXbnWAnUoVnQ5joFwtcTGlYgnYNuBYfjKF6ckCzpwqEDdHwu5uiJWVOpcMVY4n5ZJwyFy6tIR2L3htSqH5qGmpfpKC4jUVyh/oHbgNTGfbtKBJXL44i+dpSbPlCbKMCia+kA43hlPKUfjqmENX0SVOi8vr+Merm/hk2UMmU9SQRI/GLWZzhHgU01T5EN53KaqEQzaYcESDXtrwUaAgZqeSmJtL4fhcGqfKfZC/No5t3ehIxlLZ8ektDx98VsEK11TMK+hqmA1aHAL9fBaz9PFzkxkcm8lheoJ1mb65qoAKoF3lNsdY2wDuLjewsRkwoWmh3miTBlmZkpQ05xqgVMjh5efG8NZrSZSzog1YuJfAbz9oMjOtMrp0LJNP6J1rJjpSMWMqFVT6r/iqV4OpdqzSe9mMaEwafGwiHdbw3LEM3r48jTcppMLYtNGoMZLyPprsADyS5VSbA/z06sf45ztJbLRKoGIKLXQ1npDjCG4UMYyM9RVAHIPV36yK7bRY870kssk0Lp/K4zvPZzE3TTugyxoPqvbOgCxKEjZk2afG6w8WfVy9tok7GzX0U1mkOU7AcUrFHN1FGS+dpWAYd/XmdNYPkOvt2GPuwM+QVxlaW5KCSuBeL4k7KxT2jR3cWdpEi0Lu+RSCLIFmNp5L4PXzafzrV1KYyijLBD5b6+KfP+7hD4v0HlIIWkhKSkO3FvLaZ1LhaQdE9OoRh7lXikcuT5mmWOFpb7uHdK+JV2Z6+MmVMp6/dA5jxD8lARmtbHcARmxJ3D1YiATVfXOniqWtJnapgQEnlguQi9KaRIw3gfAjy7DCL7OY6Kh01hZ0NmSIE8eyeOFCCqen+sjTNFQKdBFBo4Gd9XVUVu5jd20N9c1N+L0W/beCeI/8ozPTTgPnG6eWX3lxAq9cZIZUCDDGuFBS9hRwrVGvora+htrqCoKdCrxGFYVui8G6gwvzA1x5oYRzdC+ep9jjcLdEhOP7jIu5oIc840ee5xn2cT6C9ylwWbM9vhbttt4SvazXusj44dZwgbwGzwPi22Vc42joJMawuNnF1Y9uYeH+OteDZIg0gP2MOVaMRQb+fyG406jmAGgV/N5nC3h/OcBGoHeV9UzTaRXDoA1oGQ7bqk4aEGc0+0ckUxmjsskEvnU6ixdnPcwnWyj1dqlRVXx28xN8eH0BN+8sYWl5BUsra0xANpCgcNaaHpZ22thqBlz4ZZFMZ/HG5XFcOZ/BabqfqV4Dxe4W2vUtXP/4D7j12XUs3lrE/cW72N5YRY7qO5/3Me0naFk+Mtk0Eqkk1hmH6g1lYRJOwEQggRPjSbwyCxSIp6x4ox7g+uYAi7tKaESuooTyLeZdFE5Cfs6IF8Eaxy74Tzsf5FHkfrUA16tgbc7T7jSA5g6my0WM5UhPHOAEil8RjFjOgyCB1hiQ72+0Ue1kOYFeW5LzSBOJpAnFMh3OLkT2iquzEo0jbUrROvJeF8fzA0wn28j0m7zjYbfj4fdLAX6/WsQHlTm8vz2H97am8Lv1An736Q6u39rGbp1NEyLEwwkmD68dT+G838FcUKMbq2Njq4p3PljB1c9aeOd+Ge/unsS7tVn8es3D//1iC+8vrTL2NFFgoJ73m3hxuo/XzuYQZlLoygXSSuKfLDr26NudOc9gJwY6qE6MlEK6axadmzBIP89d0bn4xKSDfGtgAoutCfxuoYlffLyKTb1FynYmlNiK9SEPHxCOixEOC739s7oLbOrVpT5X/UwhE8z7LZVlUBTT5XAkoFHBWJ3OR49so289PCvSndDIOVaHgT2JViKPWuoUlgfzuDc4huXECazgJFYHJ/H5bplW46Pe5YqC82bZ96VjPk5lOygHLeQYr6qdDj7guuu3dwPcaE7jDvve8c9jIXkRX4QnKew8frPYxWqNqXS/hyLnPZ7u4SUmI7PM8HzGh9F9OIEd+OUO4snefR3NEniUix8txgvy2dG8V0xJ2b1HGnbDMdxpF3F1qYnP1ptoiNES0AEYCschEBerYQoa4v42U9BeiqyUtVCynMF2kXkeW4cEICuKiyEvJHm0OhuTmkMMFYMC5cnUVJ8aleCCNZtP4+SZs8hPT6OXzaHlpSiwNHreGLZTx9DwS5xfr+cmkE8ncHHKp6tq0hK7HH+A5XoPH210sBRksJMdRz2VQ51riVqiiHpiEjuDSdzeymCNcTPgOkS2nyNz5/IevsVMIs91Zrx6N+01BkR8MNwVPyQclYg+s7aDxcUat5m7v9Au+enyfo90pVBPjmOxFuLDpW1sVPWalUA4RKeEQ92ac3tug3ObKWed6wSlne7GiBD0IaJ7AV/Fja9i7UyY7r5Mu00Jbe7U0Ggzg6H/ZxhAMePjhXPj+PblEzh5chop+mGKzrSskcgwhfVJlFuojtNPT3JtlKK2azul1e1ifbtFC++zXYZBl0JlBmVpMq1bYzSDFCqtNO5tVlHneo1qRVEziUj2cP6EE7gFezLRCeYQMKIczbqIv/d/nPK5t4H2SrypKtfuXqKnQvtZVJgF37y7gbXNCivcwn3Ugh4Qjq2alR6zVbfHNUG1zrhDaQsxuiT3OxbpqzNrWUgcV+StdTTXxmLWxTr5Zx0DLryqdLHX7qzh1v1NdGhyKU6V6nVxgovL184k8BevjuE7r57AmbPHuFhPUvt9BlFpZRc+A3Z5LIcy80/RMGAgrVI4mwrszRLnYOjXGoh+JRHQhSqCDySGLHaCHJZrPdLitmGSYROlRANjzIvVQlYhRur4SCAEDilSyIPCiS3LdiA4t8fzcKDN4TJuLTdx89Z9VLcpII1hFiw90AZRBMrfnaxYNAhbtJhdVZoJ7Oonf3QZLb3axM51Dq7fZRrtThoMPnHRNeexYBNpjY68J0tUjFmppXD15hbeu7FEYSnz05bHOk4mOnhj3MO/uZDE317J463vjqM0XkAvSTdFXKQsmbADn+my25zUyxd5jllCzSui5TOSecwotdA1BWIKTI0MOH+ddDVDCo/3tUiWUnEhgkmuc3K0SO3zMffh0ec6TTtmFDAtO0XrSwTyIkyomRYHTFftASHxOaxo94MDkAmjRVmtez2sT8vWGq3VD1Dn9Y3WNG408mCGbSAxmDoztg6Fsx9kDXqIJIYaj50VmCVIO4z/pgkWb1hMKWQtEprVy3JYJ4J1bZ8OXU6AHSYAn1fT+PX1Tfzi6nXcWdxAt91moG5gjmw8xWzqYrGF18/6+OHlIubHMyQxAY8E6a1LbZu4DIhzcwHXT5Fo30OPE5pNGTLOCuIiXPQ70oG2hyRY9tX+bJpFYwtUZ+qrIeJzgsa0ueLCm8PzA0Vtpeh2HBbW25iRZ9G58OeNLoW1Ug2wTNdsT1Q1pZjGeyYc5y33wAYb1h042k13V8UMxJgvYTihDouurU6I60gtZmn5aVT6BQbpEH/4bBnvfnAL164vYnt9FWjtIsMsrExrOpEPKaAkXjxbwtQYV/FBgKDTJgEcy5SATKdienR32jHSAzbjnP3jh3ML3IGsoVC0J+PiPi1DN3jhkgGxzrUbBV3ZWPoY011dLIyDxQnh8HtOYcUHN5bMJMn11Ha9jfUdCkdZm7ki3ucgQ8vR5PGZClEnHfwWQVajDhzWtJDncldsqvN9k0o7rJ7I8Mrq7FpM4D2avVbYekVqh5nUvd441zht/ObaXbz/6S0sLi2hVd9GlulumeVMto8XTmQwP8E1Fplfb7btFwoiTuOn0z5KhSzydE32u1EhKwZxTv6LjlwzUHqlwhjSSW3gOTGYLTPedXpt4qTRhKujRWDXasdrxQ6jkV2N2caHB4tlZ2xx8GP1sUJxUNtlkHyoLDvtkOsdqq3clMDQ0077KDhKeI+CYfHpKvS3YrS5aZqqmGFIKuvQRI75phUqNmksGFeMELbRPffGJFWclfpJRSU1j7XCc7ifOY8b9TJ+eb2CX37wBT5fuItOq4pir4pZMu8YE4CJjEYKsd3qY6fedJurJCLPReT8ZJ7C009ISJLwZzFmEVezHv7LF/I4few4xpiqJ4ikaOzQRa5tb6PeqJM2JgVE3PVRJkhlEo3srNcdezyPi9JllR4F2iMv9t1j/94hxRID3ndehnU6J0WiodL1sdbwuJYkonpkIqN4QDgE6YppOz8+rSadTiOdSRtDRacJlSBW6aWleL0TC8UEoRLVaW1j91jntuYTHC+PRCrLtBpo9jw0vGks+1dwE9/Br1ZK+MWdFha48O1RKTJcF+jH7XlyvkOCFnZ7WFiqoKmtckKSru441ysvny5hslhEyDWU3oFmPmAT93mdJJWnT07gzFwBxSST9H5b3o0Wk8T1O1todtzuugiUcGIqSYIVXYsftoNABbX1jBUynHMo0RkW1Y9eR8UEZAJxyix+WOFUseW0mfCYcvAjiIQjZBgkyTzaGW+5ajoKMiVle0jmCYi8BNRX1sEwKgGIRXGixjUrkXA7C7JQCUZF9bYAZaM0Nf7Kc2N4+9UZnD/GDItMbhKhGoVQ9TPo5o9jUDyDQUo/reA/ZWecTW8Y6NlRI/Bxfb2DWr3BlJQLUa+BcqaLF+az+IvXZjBRLugvCjCj9LVMRaY4jsuXTuOvXskyhrWZQpPBzOYavQTub9VxfbWF7W4S7QGVQVZN2lMikgRrB02PHfRKbo9rKAXvNkuTa5Qus77A05qK98gbJnQ8SvnotpXVxYW8cz8E3itaxCujc1kfecqxvHSBcZPZp5SE8+rv/djGp/huApJwItBZl2nFasvD0kYbGy1Zg9I7SdxlHTqqpe0ckJ4Y5GMVe/YVNtXL4Bma7eUzJTx/OofZmQzGpoqYmiphfKyIubkxPH9+GpfPT+L4eBKTTAqSTHWXG2l8vLCJW+s1xqokMs1N5Ac7OD4zhrF8mrORiUy3c5MepmezmJwt8DiGC+fG8OrlEl48n8WFiQTmuLZxj+kSWFnfxs/fu4b31j0qRpl1aWTSSVyYTuK7x32kmWSIh41BGvVMGbkZWt6pMZw+VcJJHp9jknLxXBnlMtP8esBg3mV7eZGYhxFv+C36HZ9UTxi2ccuLYjaNV8+M481zJYxxQayP5h7uSg/7WdGTbjKZmrrJRtcW61hpOB8uuUookXLxTO5APWN0dOmE467iAzMTCjdHZr9wPIfnj2VxfNLH9FSaMSOFkzMpnJ1P4dIxPXhLYZx5/qTH1JkB5JP7Dbx/ew33djvoUmsTtLawtsGVfQqltIcs446fziJHwubGU5iZUBxK4cJcChdnkpjPJnCMaJZ8ujyukTbXt/ARs8PffL6BO+EkLWCctKWQ5Vjnp3y8dpy46qGNxMj5suUiZmbTOD+bwnnieY5jPsfzSydSyPsU9P0aai23Tyg69TkMzDG5M/JPXohuji5lvJDGdyjs753Jo6AhCOKt818HwPEygRTTvElq3HiZiUGavpNM11qiT1NUtqGgaxkchSbBWTZjdZKcJnfHuEiGITOwQbfJYF/HWS46X84F+N5kgB/Md/Gmfq1c7OOErxclKIhOE3ep4Z8uLGNtt02E9SDLxw6ZebNewD99soVffXwPd++tYFBbx2S7hrNhCy9le3itFOCldAfngiZOsoy166gx+N9aWsM71xbx6y8quDuYQzs5iU4iRTelNYeCP5lC16JH32kGpkkmd5eKA7w+BryuY2GA7xHH7xb6uFICXih2MZOoUmPFA9Hv6D6sGI9YHL8YfdheMauQpoD0sFAWEclVAn7AcpSlWArNj+q04KVSYGGjjp0mBURfznmcIKhZ/HITchIJRjfdtrkDEwi/VJQ29qm5Y2kG8XSV2ryLfK9DQTVQ6uyi2Oki12akaO+iXavg1vIy/un6Gq4uBlhr57nQ1F/QYATiOHX6+9VmgM3tXVR3dtBrNcAIhnzYRppCLQY9jDMmTQw4bqLNNhV8RKH8/NoafrXYxPVmERv5M6RgjEtjMsnrwWOycKIQ4Eq5T4tlDGl3GaQ7SHCBnG02kG5WkWYWqZJnSXHVWNnYxfXby/iirvfy2En0RwSbUMQbHvcEE92PmNOmF7hEj/HDS0V8azZnCqHYrzeMho+pZcQxSHgqSvV2effGBvBff34fHyy0GMDpC2WfGtnvcxBtWfCcw8T9QgazUbemCazITrsNTPstvJzfwuVyHVPlDPK5NJIZrmM8BlcSXKvWsVapYWk7wEfNcWx51HBvzIKvpspyLr2s6CUCrodaKAU7OOZXcLHcxVTBw0SOMebsKZw9NY9SLmdJyspOA//jHQrmThPr7RTCFIWdZFDnmIqliTBAhkJ8LlPB24UVZpTEV9kZY5wYpXhpGShJCMjAdL+LwM9jpZvHte0kPuyfsU1cR/eeQzLe6Mj+sVBcmu6srNbs4N++VsZ//PFx/Oh02RIftdJy4EHhxAOwKMBpM3uDlvPf323gpx9uY73CkCzz4xChHvMKEXUmErI19XPCGUGQRU2U3+vn7Ll+E7PdRRzDCgpcvyQ5TorrKWmMsptOj4GYKXalk8NK7hxq+i1Pgpopt0b8tOTp6NUkzqN3BXJBDRP9VSvawy6SsjNzRbzx8nN49fnnGY/SaIRJ/HYng//9URPv3dxClWulNGOWWTNx0p8TS9KGpnorONe+RZx7Ro/+ppv+mpsyV1mGKA4Yi/2AK3rW1vxxbCdncDd1jnHaKaVoNz6I+Fg4+rhTE474oT97maCC/PsfTOIfWF6mD5USODjEcqJLG1xxR5pS582fLYX4x3ca+Oj2NtO/qrmugTGLiESWY11YzLrtzEYxJFWknUweqYnUx37Ddob18E1/TKXMa+0PN/UOJQWhpy5dLlS7fo53RTbHIj7uI5qJlE44sF7ZTTJG+Uy7vQGTCOIz4y3irVMefnLlBZw/cxr9VA6f+GN4dy3Eb65V8fGNbVRrdRQ9xkBPLw6KoUxf+x2kqDwWSzUPi0CqFlNoR+3v8VxJQJ8C1Iar0JF1CdcINX5pBF6JP8RTggvpIbRr3+32cOz0Cfznt8bx715MYzLrR8JRyCA+DxOOGKG0Wfre5vedVhL/8+MAP31/E2urm5Q483khIeHYxK6fiNBYDwiHp54Wh7oSrhKuztnPIwHpATMp9iZrOS6FYesttiZBbgQ3mrkEXbCfq3V3LZ3XGsGG9GlNa3g+s0xXkcKPXvsWLhyfQis7hjsU/rVKAldvtpgYrKGx1SCjNCZHl0azf7QJpCl47oR0EBhB+B3dIf5SOoEzFNdfICELzOJMybTylxVSFdnsL79/Gv/pzTH8mOmkesXC0fOoBxKCIRBRO5A5Qj1PYXSYqm41B6hs9il1prN0svKNRgVLjFI81vDIG3au+KSiERWAVIiw/gCR/kqUFnlCyvCzHkoynBCsKhrHymg9v02pSLDT+AQtrkDXOKD72kaXbmuqkEC524LHhCSTCuhOQwZ7MKHQz9f1dg3HMAI0hhTC7IK1Yq7OeRzWaz72kSVEdUNcHEJDiJVd33qepccZ4qneaTs5VcbffG8MP6QCTZGX8SjuW7yPejv57g3mXIga8I40np2/6OtlCeCnv93Fp7fvoa0FkyiK3Jq1Z1HsMPPVOLpW0Q3Rp6ZWK3DaYnpLl6czDWWMsvsa2p2r3cgXwQ1k7exoZwZSGAX6dNjAeH8dc+kG3r6QxkWmq3q00PBTqPslLHWn8LNbOawxAdE+GQPP3pgG0mB+a0rh4cyCQDz10JGf6Nawj7aNVBc7tlHhaPVvy3jGyVLGx49eP4d/+MsS3pziGowtJAPXXrwTT75KOCrajyHemyTsw50Efnmth3/5/RrucN2QJBPUR6m07MBQYpCVfrkrB1rx2rtd0bW75xJ7uUW9bqVJ3MbgXitdj4LcmmCIZwTDazsOKJysbJKp9Y79acjj4T3M9WvsP2Ay4aNDy9r15+jmLoILfMYN9dvDV2AjscpG5rhxHLJLtY+b6150KuHs+1vYEV6qEX+0zeWlUvbXP/7+b0/hR3MJnGXWqz+UKa/hlFEtv0w4BDFCg8bCaVCzVjjxjWqIX19v4f+8u4Xd7RoFo2GFQKQvB4XDg8iKf1PjZlDSSOFwPLVy6LAdGSAEbRy7HiGclUPhDLXYtdvDm6JlkEdY4nyKXw3O1OO6p8osr257azYE2/fDFDb8efQ8xQI3zkGwB2PR+egahfJ1CBFGecbE81DhyOX6A6XfWcyeOIa//1cz+PHlDF4iGyYtM6RCMd7Kf2g7Sm+LDoUTw+jFcIqoiVJrmXmDl59zAfTfPgnws/e2sFXZZfLCLIfpaJZcZsJEojSdWKVASIuwwbhIsu1iUax9CjKFY2l01bpZogp3xoVbdGHgBCnYE5lgr17gXI7GlsOkmvCmJ7clgqN+duS/gHFO7aLqfaCqoeUQHBv0xd6cYzhpzEJOpPcD5AkcPcpMu+RBnnTInXk4c2YCf/fWPP7uxSRO0c3Osp3eBlJrqaSd8UtnDwjnUYHGg/d2gP/1cQcf3mpi6d4WGvUa8lm6uV6XQxMZIi+bsuxLnbhwNDGIW9EOsBrpnl4WGcKQaAknOv8KEEMEItDFLGd9DsRMR/TILAaaPRw1jwOwpzQO3JgaTw9MHuxkCRQnkhLrUbrXb5OGDLPbIuZPT+Enr0/hP1xJ43KBSRb7Z8mDPTwdKCaJR19LOOog82uw/EsVuHonxLsfaxtDz1laXKA1ODYZLyFoLWRLOEIsHENnv3CU9x+GyCMJR32jhhpDIx02lqP0wTum1TqRBEfgsDFieFA4opX/zEKVaJvYqXVcf6ULtJhj+MEbs/ibl9J4uxSiQPHJd9jviowfe6BtHgspX9dyTDNY7rLcaAJ/WATe/ayJa4ur6HBx12GeKpckIelnH0Z4Qq+Y7AlHe9/O9UjYh6NhPNet/fjvA5EQkyGGPEyeo3FqFPSMxd3ZP8mXTasIYTNFQ9qvInRO4RguopuxrJjzcfrUNH7w+nH88LKP79JizsufsIm6WCetFaWsGmJEHF9bOOqkIkass9yltK5XB/bC+/VPm7h1a83+Ewg9F9fDJe0mm3CU8diUerBkUZXj0BU9hAvaAT8KaOyDGV4MDyNVi9CHCXQ0KRsFxRztvTntYQs9XtbwfW3JMKCnc5iaGMPrrx7DW6+k8dyMj+fTgLZaC+Z32N51IF5KjsQPh6PKH2U5Qwg7HJ6pKUuFSN4ivp9UQtxZAj76pILbdyuotvTabIhg0CSzewiY/cmafM+FQhE3GngFYoiuRfujIBi3J2X7Mrx98JB6vXjyUHjY5EoIhsIh+KQn414emZifwgsvzOKN57J480QCl/NAmVKe4FouJ1o999BGQ0s9dXaYFL4B4RBBTcjSpbT1Y4BN4rvKbHap0sfiVoAvNlnWe2hWOqhXO7QmrUPc9o/O49T5MLCVhXGeRzH3K9DVSDbaIc1MNIfUy9uNVrufwB/SMAKNb0kvadDPB/WT9nzBx7fO5HFmPoWTc1zwTqfwfBGYT4Uos4/+vFGagtSOvv7kWAxGt9HlskoH7uSPF84IaCDpUYtnmzxWOck2c4D7bbq9Oi1H/4tHY2A/GmqxYYP06RfO9uBOln4IJgpVFq54zzH3y9EdCucQeFhXsUC3VIxBe1x6KOjXDsm0hyRX+pl0AqVsAufKScyPcd1CA5oh/4+xnf56qaKrPZ9Rx3joaE6Bw3gPuXgt940KJwa9ONggSl36VeVnsqYKi6ZUSiBba/Grw6IVc5+CknAOQ+SgxzlweSg8jCCr19eBQUY5YKdfMYna6I2eJEMFF/t0VQBlwsUkmB47K8myUUHnHNzxOnLd0WSqMo/Bmy5XdPWCxygcDacYo/SZWQiH16qnxvlceukWsrF2y9LichgcrN9zCF8ObvT98DBC43r10fmjMMStpVwfhXPFEgkoQy/g4gjv8J/YK16LXjc2vyOh6Nq5UFI5IobHajnK8t2jKrf6tX2zUDbkMntHkkiIWO1wORQeJrSHwcOyq6+EI3eSDxCFpCPeYWfccDsgAtmDZ+8m2MuOqrI5HLvtOxYCrxy3YojqH4dw9GTGpQjxNETGpomv5H8jwQjI0f3I7YElBEcACUcLu6PA12GAfsUwpG8kMEo0sg7VSzx6kVL3oojDbzebvocWYu1HsYjqH49wpE/KxRwSMap7dqDrGF2BbfZE5/vhqMJRc/ci697ojwPiWGiUxCjyQhQKZ2c32sZxrDd6yWrrFgklhicqHA04OlmEkp052I+cYD9ye/B1kBsV++OCh1FykGp3/eX4uLujlLqaxyKcZ/DNwIjjfwZPGzwTzlMMz4TzFMMz4TzF8Ew4TzE8E85TDM+E8xTDM+E8xfBMOE8tAP8PGMcuH9YSiqMAAAAASUVORK5CYII=;" parent="1" vertex="1">
                    <mxGeometry x="290" y="450" width="101.87" height="90" as="geometry"/>
                </mxCell>
                <mxCell id="19" value="Exception" style="rounded=0;whiteSpace=wrap;html=1;fillColor=#E6E6E6;fillStyle=auto;" parent="1" vertex="1">
                    <mxGeometry x="460" y="90" width="120" height="40" as="geometry"/>
                </mxCell>
                <mxCell id="20" value="Configuration" style="rounded=0;whiteSpace=wrap;html=1;fillColor=#E6E6E6;fillStyle=auto;" parent="1" vertex="1">
                    <mxGeometry x="460" y="140" width="120" height="40" as="geometry"/>
                </mxCell>
                <mxCell id="21" value="UI Component" style="rounded=0;whiteSpace=wrap;html=1;fillColor=#E6E6E6;fillStyle=auto;" parent="1" vertex="1">
                    <mxGeometry x="110" y="70" width="140" height="50" as="geometry"/>
                </mxCell>
                <mxCell id="24" value="Business Logic" style="rounded=0;whiteSpace=wrap;html=1;fillColor=#E6E6E6;fillStyle=auto;" parent="1" vertex="1">
                    <mxGeometry x="110" y="200" width="140" height="50" as="geometry"/>
                </mxCell>
                <mxCell id="25" value="Data Acess Component&lt;br&gt;DAC" style="rounded=0;whiteSpace=wrap;html=1;fillColor=#E6E6E6;fillStyle=auto;" parent="1" vertex="1">
                    <mxGeometry x="110" y="330" width="140" height="50" as="geometry"/>
                </mxCell>
                <mxCell id="27" value="" style="shape=image;verticalLabelPosition=bottom;labelBackgroundColor=default;verticalAlign=top;aspect=fixed;imageAspect=0;image=data:image/png,iVBORw0KGgoAAAANSUhEUgAAAHEAAACYCAYAAADTNQaaAAAAAXNSR0IArs4c6QAAAARnQU1BAACxjwv8YQUAAAAJcEhZcwAAFxEAABcRAcom8z8AAGbXSURBVHhe7b0FeFTX2jY8kYnOTAR3hyBxd3cXCO7ubqVCsTotVhyKOy11o94iIQESpG6n55z3fY+flrYkM/d/P2vPJAGCFDnv939f93Xd19qytsy+97PWcz9LRvf78vvy+/L78vvyn17sXHTRbd10IYF6XU//W4FbPdTtD7hFXJ23/jXqQc/rE7VpQ3kIN/0NrnEd1J3Tpd5+23oXf52uvcKVx3tyX926hgC+A0GYuuYNwfySV6/zC3TR9Wxjffd3uvRw8nAISzTowx93tQ95y80+6JybfUCl603hX+lWD672gVYEVTrbBxOhlS72YZWuDuFXgfscecxB8khewiGo0oX7XB2D6yGI4PWceC8nXt/JV1t3FHC/Ol4HN9lnfa4rIfsCK914jzrIdkClgee4qXODiVDuI2qv1avSyb6HggvXtWsFcj2w0skusNJZF1ALFx3z2/Ea/M1u/F1197BBu6+BxwSyz9XO/5yTnf+brna9HjXoesUH64L1VkJ+2+LiEt3W5BD6lMkx/BsPfTTcdJFEuIK7LuyGMOhCrAgmgmBUqQZ3hVBrvggrwq0IJUJUHjeeZ4N2LckveSSV8wk75rULIgIJua6caz2mnlO7rtyLpQhT2/2vfo76kGcIteaXVM7Vfres28412Mn9bcfD4Fovn3ZvOSbXD2EqkN9kWxdox2Xdlb/RlcdduW47T65pcgyDl1Pw1976gMe8db6trdTc2uJFAt0cI7abHKMsHuol8wGdY+Dqlgg39zQYDOkwmjJgMKZyPQXuhME9iUiE0S0BJq6buM/DmAITYZRjbskE87nyHNcMmARuWUQ2kc5jkieBx+J5DRu47Z6gzjcaeJ57KtxdeT83rrulcT+fg89j5LaJ1/ZgegV4jsmQRnDdmM5nkXUb5DjPcU9WUM+s0kRuE3wez9pj/B387Sb5bW5x3BcPT0MSvAhP/j5JPQzyu+N43XiYTAnw8OAxj0R4cd3TyPzGWOaLgxfXvYzcb0jk9XmM1/LgeQIvohGv4818BucIEhmIxvaRaOQYYm7kELTZ2zWilZWiGy+uusCWLDq2G/T86hxC4eQYC5PPeLQdsB2dpr+HbrOPo+tMYtYxdJn1MbrO/gRd5xxD97nH0GPeJ+g15xP4ct1//nEE3Cc4hsAFxxGy4CTCFpxAOBHB9cj7TyLqQaYPnkDUQ8cRvfAYYhYdV4hbfALxS04gYclJ4jiSlh5D8tJPkMo0bdkJZDxShuzHy5HzeAXyBI+Vo+DxMuIUCrm/kOslT5ahdHkZ+j1zCv2JASvKiQqFgQrlGLSqHIPXlGPos6cxfN0ZjFh/BiPXlWPU+jKMWVeGCevLFSZtqMDUjacxdVMFpm0qZ3oS0zafxPQtJzFjaxlmbzuB2dtPYM6Ok5hjTefuLMN9uyrwwK7TGnZW4KGd5VjIfQ/vqcDifRVYsr8OSw+UY9nBcjx28DSePFCGcQ8+B/+ggTCyFDTZR8HTIcRisgva5K7r1cxK1XUXBw/H0OkejmHV7g4hcNLHonnKcvR44gd023AZ7Tb8iM7P/huBGy8hYvvPiNr5CyJ3/ozoXb8gZveviCMSrEgS7LmM5H3VSNlfjdQDTA9WI43IPHgZWYeqkXW4GtmHLiPn8C/Ez8h94RfkvfAr8o9UI//FGhQKXqpG0cvVKH7lMkpeqUHv18wofc2Cfq8SrwEDiIHE4NeBIcTQN4HhgreBkW9bMOodYBTT0UeBMVwXjH23Ht4Dxr8PTPgImPgBMPkDC6Z8aMa0D8yYyX2C2R9r4PcJfp+Yc8yMucdrMO9EDeafMOO+kzVYQNxPPFgPD5XVYEm5GcsqzHiEeKyiBo+dNuOJM8RZM54kVFpZgyerqvHk+Ro8caEGz3xqxurPzHjq478gqs/jypCM9lK8hvxisg8dYOWq4UWs0FMf9oaHYyScWN43Dr8ffk/+He03Ak3X/oiez/0P+r7yF8z44N94sOJXLDx9GQ8RC89c5vZlPHCKKXE/8UBZNRYQ88ouY97Jaswl5py4zBdwGbM/+ZUvhOkx7jtuZmrGjI9rMJ2Y9pEZU/kCp/BlTv5QwyRiArfHvWfhS5eUL/8dC8a8S5CU0UIOSROMFvLesmC4gOQN5fbgN0gwiR30uoWEm9H/VTM/AA19X61G6SuCyyh9SVCNPi/ygznyq0LRkV9Q/CJTokA+suf5sR26RPyMPH58uQd/QeaBS0gnUg/8hNSDgp+5fglJ+35USN77E1L2Cbhv789I3H0JibsuIYEffxwRy/XoHT/SKP6NiF3/RtjOfyF0178Qy489Ze2f0NhvLpykjtRHwuAQvtVDF+NlpezaxeDoG2t0DP3BwyESLoZMdJnxCdqvB5qvvISwvX/GnDM/YdM3Zjz3DbDxS2DD58D6zzSs+xRYc8FMACsvAivOA0+fA546b+GXBoUnzgKPnwGWldcQ8oVasPiUGQ+fsuDBMvBrBu47YcH8YxbM4xcvX/1crs/5xIJZH5PojyyYToKnf1hDi6nBpPfNmGCzKGVlYnkWDHuzRmHoWzUkz6KsVDCQ5A14xcIP0YLerwAlLwPFL1lIkFmh4AUL8o5YkPO8BZnPm5H+fA3SDv1KsAQ5VINkpkksVRL2mpGwR2Bh6WNBzE4zInfUIHxHNUKtCNl+GUHbLsN/62X4KVSj52YzemyyoPsGM7qtN6PLBgs6bbSgA9FufQ3arq1Gm2dr0GZ1Ndquuow2K6vRmfu7jH8Xzk70RRyiWcUFf+/i2CvSStm1i5vOJ9tgH/gvcWS8OoxGu6XfovH6XxG57b/xROUv2Pp9DTZ+LiCJn1mwgcStJ9ZdtODZCxasOm/GynMWrCCeIYHLq0hipRQfFpJnYVECPErilpyqJljUkMDFTG0kPnCCJB4XAi2Yy6JLyBPMJoEzP6KlWou5ae+TRGIiSeTvqyPxqBSbFox4owbDCSFxaC2JtML6JL5KEknk1STmk8S854EsEplBIjOYph82I+WQGckHSeQBC60LSNxrxR7QmoAYImqXBeFEGBG604KQHRYEbjMjgAh8DvDdSmwBem4CupO4bky7bAY6ER02mmkwAgvarzOjA8nstFoIBto9eBFerYbSc40GZdrfHXQ+qVbKrl3cdL6ZBjv/f4hb3LjrZLRe8i1ab/0bZpb9iB20vq2f1WALy+tNtDwbiQIhcS0tcDWJFBIFQuLTJHH5TUm0WuIp4H4SKZY4j0XsXBaxV5IoFmghiQTJ00isIYlaETtWFa1EPRKHXWGJGolSl5begESxRCExu5ZEIOMQSCDJEwIPkLj9QIKAZMaTyBhaZDTJjNwNhBHhJDRsJ0giEEQEbrMgQEgkepGwniSm+wbUkthRSKRVdqDVdaCVtiORbUhk63VAG+Zp99A3aNRxAr3VKJIY/FdnXfdkK2XXLopE+4B/iE7y9pmEdku+RzzL99Xf1OA5Fp/P0QKfI2mbSdrGi2aCZBLrlSUCq25C4qMkcVkFaslbpGDBwnIoS1QkKksUEmuuJJEETqfjUUeixWqJGoGaJWoY8QbrQ2KYEMi6cCDXBQOkHiSJYomlJLB3veK0UEgkgYpIEpd7mOQxTX+BVklkvgSkvcht7k/hdjLXk5nG7bMgigRGCaEHSSiPxzIVRJHoCJIcRKv026aR6EdSZV1tbyehJNuH+zqT2I7rhEgh0IKWCkBrIXjht/DqOA7OlHtudiEk0ff6JBodfDONDkJiCLy7TULnxd9i4NFqbPrWgm0kcStJ3Eor3PKpRuImRaKFJNaQxBqSKMVpDWFmnWgmiWYsP2u5AYkWAniY+x4sM5NEenr09uaRwOuTSJDAOhLNmiUqK7SRaL4uiX2tlngrJAqBqawX07f+FalPXUTqkxeR9tjnxGdIffQiElZ+jbi9vyKaRMXSY49/5DNELr6IyKUXELHsDMKWlCP40c8QtukSAqVo3fQLfJd9i14PfoqegocucL0SvRZWocdT/4Mu9D86EK1JZAui9bNAW1pih4e/gXfHsXARvW4f8ld3h8AbkOgUQhIDSWIYGnWZjG6Lv8Q4epNbvwa2iyUSW77QSNxC8jaTRAWrg7OGRe0ausbP8vhqHl9J6xQHZ7k4OMQTtMzH6OA8ImQSS+noLKWjs5h4iNb4gBSpxH20yHkC1pGUoCSxBrPEqflQCNRwuyTaitMbkZivSKRzQxIz6NgEjD8CV/c8GDxzYPQsoIgvpLDPQZPYRZRRvyCRVhc+vwLebYfBxS0Tbh5FcDflw43OoWeHaYh6+EtlqZEr/gfegffD2VgCV88SuHkVw82YD9fmpeg4+mUWsRZ0JIltSWBLwRoSKnXiwq/g3WEsi9MIOjehf/VwCL05iRI2atRlErou+QLjT/6K7V9pJG61kriD5Gyj1T3H9V1CaiWL3OP/g1XH/4KVx/6KFcQzn/wVyz8S/A1PfvhXPP7h3/Eo8ciHf8PSD/6KJe//BYuJB9/5H9x/9C/E37CAuO/tv2P+W3/D/Ddk+194SOrHjyhRaIkzSOJUK5EaiZZ6JGqOTUMkDuK64HZIzKKODRm1h0WZLYQYAk9WN7LeLHA6UmmJCawzI2d9jEZeWXDVdWeRFwwT85l0gfBuPBDhC88jlERHrvwzGnceQ4sKopNiDd8xn6s+AV2GHqTHShI30DMlWrJubLkWaKVI/IIkjmH+CBhvlUSJN3rTEjstoyVS8+34isUpidxCEjeRtOdY922j1W2nozNz9VEEJ05GUNxEYhKCYqcgOG4qgmKmIDB6EjER/lHj4B89Hn6C2PHwjRkH3+ix8I0ci16CCK4zj6BX5Hj0EISNQ0+m2VOfw4L3f8EseqvKEim+p4oop1acKEKd9aGmG20e6pV1ouhDcWrqOzZSJ/YlgSIzbkRiFtO8AzWIHLlLkebNl+hFD9GbEKtoHTYHafvNiGPRGzHnBJo0KiTJQfCwiyTR4UQYvJsMROCicwgk0YGr/oQmJFHyeJJA+Ri8dJEwOqei67AX4ENnpwPVQJt1l1Vx2ooktmZx2p6W3KjjGD5DBDzsfyOJHZZ9hfEU8Tu+JmEkUSxxM7Hxc5LIInZd2V9J0ATodD5w1PnBTufLdYHfVehVC8njwH2SX084Ec66nvw6Bd253Y3HuvFYN+btBI8WWZjx8n9jGotVRaJY4zUkapZ4KyT2FwIbIFERSQKvJjH/gBkRw3fyBdKq+MK9dDFoRCgSQ+cgdX+NIjH8uiQOaoDEYHhYLVqR6CQkHkE3Wl2H9ZdZnNYop6Y+iY1piUbe09PuN5P4NcaXC4k1GonEZlriZtZ5itCqS8gb9QzcjfHwMCXCRBhNyUSKClhLkFmCzRIIl0Cxp1ECxonwctcgQWRPN6Zu8VcEg40GawDcmACf+KmY/fY/WS8CM0jelAYt8dZJvJ4lNkgii9M8ivyQoc/xQ/Pliw/miwxjGsaPLRgtA2cgff+visSwOR/Di3WmGz9UKSaFTCHe06s3gheeRRCL05AVLE7bj2AePx7zZ54ARaibfQI6DTlAD1XkBcU+9eLVJN6BJQqJ1YrEHV9aifvCjM0sRjcR4q2urfgRM3efwPj172Ly+vcx5dn3MXXNB5i2SsOUlR9g8sr3MGHVuxi/+h2MY/E7ZuVbGC1Y8Q5GPfMORj7zLoY/cxRDn34HQ4hBy9/FQGL46o8w76U/Yr6qE4FZ9YvTWsem5oYk3six6SNEvmhB8RGSSAiJRdSHBSTFRmLG4WoETT4Cg1cOGntno1HjPDRqlAsj678WCYuRub9akRj6cBm19Ui4e6TB2Cif9WMBvL1yuW8EwhafRQg92MgVf0Hz4Hk8NwcmXsPDOw8eHrxWs35oN/JVJfjbsi5sTXnRSkikd1qfxN/k2DRE4k6S+Byx5Qt6pZ/XYIMCBT+JXcf9a2mha4VUEf8COj/r6Jk+S6ykVlx+tgZPimak5HhMyQ1NcjxCr3QZsVikBtOHmD5Ez1TEvwSV55+oxhxKjFkkTxwbJTOu8k4VibVRG2DkLUqMm5GYyTSV2wmb/4zoJceRsOQYEpecQNKiE4h7+DjCn/oMSbvNyvMM3/IvRDxEi7v/BIL4I6KZRjx4HIGLyxG27m/woyb02/QjfBedhu/cj+E75zj8CN/Zx9FtXgU6PPFXtGOd2JoeaitaYn0SO5BEb5LoShLdSSJxExLtr2eJdRJDrHDDZ9UENSIdnHUk81lKComdrqJOXHW+RoXeVlAvPlNZo2nFs2Y8XkniKDGWirygNhSITlxoJU4kxnym8ykt5h0H5lL4S4vB7GMW1ZpgI/B6JI4jgWMlCP66WVnjnVpiJotSaXFJO3wZqTyWxGI2kceSWb8lsXhMPEB9uOdXhLFeDN1Xg+g9FkSQUBH4Er0J4nYAxXzgc0y3UPBvrabgvwy/58wqBNdrqwU9Kfq7c70TCZS6sA0lRitxakToi06UIIDVEm+NRIeQTJN9yD+kAhWd2H7pV8o73f5VNbaLV0poJJqx4VOrJdqIJInPCokU+SuYPk0SlxMqdkorfPRMNR5hupRYcppCv6IGi8rrhdyI+7g+76QFc0+QPGndEKEvIIn04DGdRGpi31YnisSoqxM1Ei0YTUsUmTHsLbMKuw163dqC0UCdWHJVnSiorRMP1yCLJGYcqFZhNwm3SZitNm5KxO6tRuS+y4jYcxmRu2oQsYskkrhQImAH4E+SJOQmsVP/zWYVBO+5yayC4D4sPrttsqArieq0jvXhhhpa4p2SSEs0OdYjccn1SJS4qVnFT7UYqlmF3tYKiZQfK1iU1g+7PXnGjMdOa21pj5ypUe1rWuzUgsW0vIUnrSG3Mgut0BY7lYhNvfgpJcaMetbYkGNTSyKJk/jp9WKnt+bYAJlM02l16bS6VCLJSmK8hNgEXI/bA8SwSI3cRSuU4DctMJREBhMBO2h9220Aem6pQXeS2J0kdiOJ3Vh0dqPldVHSwsL60HIvSaR3KnFToiESBetI4LOqFaMGz6iQmxBIa1QkSvBbiLwDEsUSxbGR2Kk4NrdJ4vUkxrU68eYkxl1FomrBsAbBhUQJtflfQaKFJBKs5xSBJOw/SGI9S2S9KCSuZ5G6nsWpwmd0YGh9q89bg99MbSTamqIeJYGCZSRxKUmUJqjFEjsleQ+RxAW1JEp9yCJV6sJaK9SKU00jWjCVdeFE1oHSDDWO5CmnRkASaxuFf6MlXo/ENKapJDKFJCbfBRJ7/O+SSO+UEBI3fFGDZ+mdrpOYKUX/cz9QQwr+QHxHfEuypeFYAgLM/yzzrSJW8iN4hqBThyfpwQoeJ/mPCujFLmO6lMXwEn4Ai+kALbLiYYmt0gm6T9WbQjYwh8TPJGYQ04lpJH8KnaFJLHaltX+41IlC4A0cmxuH3eqRSKSQyETWi/H7zfVItJBEM2JJXm1bIgkMIbE2EgOkTiT8SaKvODEsTn2kLVEI/M+TWE0SzRqJJHANt7dQ/D9X9SsWHqzCfGvHoPt2lGPBTi2dt70cc7eVY87Wcszcekp1Kpq2pQxTNpdh8qZTTE9h0qZyTBBsrMB4puM3VGDshnKMXS9pBcasL8fodacwam0ZRqw5hWEKZRiy6iQGrTqBgStOYsDKk+j3zEn0fUY6Rp3F2IP/xOi3QEu0kWiuJfFWWjHqk5hKpBDikSYeuDmJoSTQRmIQibuWRMtvIrENSRSJceskind6CyRulJaKr1kXVl3C8Lm70KptEZo2y0bz5jlo0TwXLVvkaSnRunkeWjXLQ8umglw0r0U+WjYrRHOiabN8hSbM14T5VVpvvTHzN2oiaQGatGD+lkU8VshjPIfHmjTNRtMmWUyzVL7AvMcx/sV/YDiL18G0xoEsWoXIG1miIpIE3h6J1IrXI5FeaS2JXJeiVCPx+sWpiH1pEBYSf7vYJ4lG++A6nbi0TideSSLlBYvN1cf+B93DRkOnC4CTLgh6phKh1zrCSqRei9ZLB2BtW+s4a+so66oLVamz9bgrzxdIf0s367oL152ZOjHVq/VA7tM64sr1tPx+XPeFUeev8hoalWDk9m8xgsXqIFqjWOE1EoMkik4suUonFtbqRFtxamFxalF1orTqJ+wTEkmmIlF0IhC923KFdyokBqnitM4SBX7Ugz1uQqLoxOuRqFox7iTsJiRutZHI4nT9l2ZsPV+NcQ+/gKZtiuDdNAdNaYFiOU1pgU1ku1kOmnG9GdOm3G7ejBZIyDGxHkkbNclGI8mrLIpoouVtxvWmtF6Vhxbm2TRDwYsW581zvZmvkQLPJxpzvXHjfHg1LkVo7/UY+/KPGHLUbCWxAcfGSuL1xb6NRDMdG43EZOma0QCJ0rJ/NYmBTK8m0f8OSbzj2GmtZ8p6UBybdRI/pSOyqZKS4r2/YPnb/42n3v4vPHFU8Gc8/vaf8Njbf8ajb/0Zj7z5Jywjlrz2Byx+9Q94+JU/YOHLPxB/xIMv/RELXv4z8SfMf+VPKlY678U/Yu6RHzDr+T9gxgvfYwbTaYf/gCmHfsDkAz9g0n7BHzFx3x8xYf+fMJ7p2D0/YMyeP2LU7v/C6Jd+xIi3rR2lSOKQeiTWSoyrSFRE3iGJgisdm99OYltut13LVILf9Ui8w1aMhklUEoPCXjxU8UI3cv965pEY6rPMt9rmkdITXUEvVAIAqgsjPc8n6HE+bu2++BixhOuLiIXc/xC3HzwNPEBvdIGE4ayYS8wWj5Qe6AwR/sQ0Yiqlx6SPqBkpPya9z5QYRbkx7G0zCRTQublLlqiKU1UnaiTGksQYQjpJSZ2oZMaNSGSd2INC/0aOzb23REK1J1p1ovSz2fCpBWu5vYbpqovSbZHEkbC6iA1JIzGKMJIjvd0k4C1CfwmlwiISo+KmTIW0+5jaYqfS41rrfW3BzNqwG3Uixb3ETidR7E94h2JfIEJfNCMxklpxuHinTKUpSkmM12/PsalPonTDiGuIRBIXs9PmoUI5N7UkUiNquJrEhi3xzh2bWyBxE0ncTNJUxEZ6vEnclISu/rQGqy9KZykSeSMSCekstVQRSRJF7AuJhAh+IXC+6vF2JYla7NTWZZFWRyInkjzBeCuRQqD0Ah9FQkcwtUkMrWuGht8qMa4oTgnxTuP20yul8P9NJCpLpNjfVAOfWwy73V4rxtXe6XUs0RaxuYJErq+6UK1aMKS3W23EhsVkQyRqREoPcK0VQ4XdTlqUJaoWDCuJNiKFRNUDXEJvEjtlkTmJpIklSuhN9bU5asEoidgQI8QSKSuGkEBVlL6ujdu4bUukxBASGyxOrSRGExIAr4vYNERi9S2TKJb428W+6ESHejqxthXjWhKFOLFGFfzm+lqSuPqCEHglicutJNqK0kfKzSRPg9Z10drvlESq0JsUpyRRs0Rb3FQs0aIFwK1tiraOUhPek+YosUStKJWBM6NI4Aha4DASaGvZH/gqi1XCVif2qdd5uL5jIxIj7wUghwRKv9NbdWyiaYXKEklgw8WpBf7brJZ4k+L0HkVsfhuJK6pqGiaRxGkkSvDb1gNcI9FWnKoi1WqNdSSarySRmEIiJ7FotZFoqw+vJFGrE+82iQk3IfEKx+YaEv/Xwm7XKU5J4EY6NDK4RrzSNdy/hp6oYBW9UhlY8wwdHVufU/FIHyMeIalLT5NMYgnJfZh4gETezyL2fqaq36k4N0ImMVcIJWbROmeyeJ3BonUqCZ0sXinJnEBSZXiawEbkSEKGt6lRUSRV6kbxUqVY7c+0L9Gb6yUkU7UrqqIVLFaBAqa50tubZNYnMYUkJu01I3GvRbUl/mYSb8E7vdqxqR92u2XH5npht/qOzVYhjk7MBhK5g9Jiy8VqPHv6R6yp+BGry/+NVcSK8p+w4tRPePrkT1h+/Cc8STxx7EeFxz75Nx75+J9Y9tE/sfSjf2ExsfCDf+OhDy4pPPj+T7j/3X9jwdGfMP/oJcxlOofp7KO/YNbbxFuXMP2NXzD1zZ8x5fVLCpNeI169hPEvXcLYF3/CmBcvYfSRSxh15GeMeP4Shj/P9PDPGH7oEoYe+hmDD/2CgQcFP2PAgUvot+9nhb77LqF4P8FjRSQxk3VhfUu8PonW0NsVJNYReK13emsk1vdOb7nf6XVJ/NKMLV9ZlE58jkXnZnqjWz5nkbj3DDIGPYqE4oVI7rMIyb0XI6lkMZJLltahWENS0ZJaJBYuQUIBU0HhUiRchXgej81bhEgiIn8xIpgvnPvDC5YiLJ/IXUJIyn1qfRFCcxYjJHsxgrMWEVzPWoqgzCUIJAIymGYsJhZxezH3L0VA5iPEo/BPfwR+acvgm/YIfFOXojvRM+dxpM59H3n7ftXGX5BM6ZLRMIl0anbVkETztSTegU6U3m6tNgPtFmne6S3rxOuRuE3CbiRSitMtJHArBf6G8r8jMmGG6k8qfUm1vqXS/zQA9rogBQeFAMKf23714K/2adCOO+h8uV+u1QuOup7QEw6Evdov5/tzf7CCgy6Q24Eq1c6Vvqz+Kn6rV/k02I7JNeXa9uqaPZhH7qGdY8ujPZOtP2xPfv0jkLvt78igRYpnKpA68fok1pBEC0m01BWn9UlUERtbK4aVyLtO4tXe6VUkSgB8s4rYmLFJWjHO/EtZnpDlTFmit0JG7zjpIhVcuO7CfS7WQLcEsBuGHLMhWMFFF8pU+nhGMI0koli5xyi46KK5bUOU9Vi0FZEKck7d/SW1rYep1HZNDdG8Tyz09jHQ20nn4Ci0DJqJ3J3/VpZY2znqhiSKJd6MxHsdO72OTtxOnbiNRanUixtpjdJBSpyarXRgnn73zxj1+IsY/PABDF98CMMXHcKwhw9h6EOHMOTBAxj6wH4MZTrsIa4/uB9DHtqPwQ/uw6AH9mHg/XsxcMFeDGDan2npgn3oPV9Dybz9KJq3D0Vz96Nw9gEUEPmz92vprAPIm7UfeTP3I2fmPoLpDA3ZU/cik8iYug/pU/YihUiesp/pAWI/kiYLDhKHkGhF/MQDCnHjDyFuwiFETzyMyOkvIvPZz9VYjNSDZiQdsGJ/jTYuUXQivdQYEnpDx+Y3knijOvGOwm4aiVr3DCFRvNMNSuhbVPG6/gsJvWndNdZKVw3ul64aq89R/Fddxoqz1XjmjBnL6Y0+edqCJyjyH6e0eKzMjEfLqB2JpRT6i05Y8OBxM1GDB0/U4P7j1YQZC+iVzqdHKh2I51BWzJIh3+/VYMp71Zj03mWiGhPerVEYd7QaY9+sweg3zRhJnShacSg9UZmQQVLV8806WUN/eqSlRyg3XjCj9ws1KDlcjT6HmD5vRv6LFmRSfqQdriGJMkJYSKz5/z+J0llqkxSlJFEbZGrViqIbaZVrrX1P11BWCNSA0yoK/7NmFbmxBbwfpZRQnYYp8JcSEn5bTFlRG0OlvLjPGj9VY/dJ4BxiJkkUSHd+6QUuAW+btJD+NmroN6WFtOqLVpRZNIYyHWKVGINIosy40U/pRRL4skVBguDSrlhEMguPUGJQXuQQaqg3SU0jiSlWK0wkkfHS1+Y/ROJtSYzfQqJN7AvWUnKslo7D58y0PgtBjVipCX7psvg4iXz0rAXLzliwhFhMq1xEi1xEMmWQqfT8vp8ECnmq3ynT2SRxNkmUkJsEwGfIQFNi6of1hnvTIiXkJvHT8UctGPeWGWNImCLRZoW0viEyTQqJkzH7/UhcP2rBUhLX50VaIYV+CVFIEvOY5nB/FoV/BjViOi2xjkTWh0wbJvE6EqM+iXcoMe45ic9eqCaJNgKl1xuwQkiUeVpYhErX/Ue4vpRYTFIXna4heWY8TCK1sJtFdSCWaM3cE2YF6TRs6zis4qcsSrURw2YWpWYWo9qYfVsPcCX0Ke5VxIYY9qbWlqi1J2rF6BVdFq8KgKtJFxRoiYelB7iZBLJIPUCdSOKky6LWRaM+iSTvut7p1TrRGrEhNEskriLxau9UhnvbvNN7TuI6bq9R9SAUVoglsgh9muQ9RRJluPcjJG8ZSZQe4ItJoLJEEvcwUduN39rvVIZ8S7hNhdw+IpEkbyaL0BksOqcT0hw1yRY3tfY7tXVZvDrsZmsUli4a/V41k0RCSLSG3YpoeYUSqRFQTuTTG80hgdKNP51CP5VEitBP3k+v9HZJVJZYn8SGA+C2RuE2Ii9oiS1/M4k39E5vTqJMg7LGRiKt8GmSuJx14O2QKJ2HGyJRCJRWjNsnsaYBEqFIVBASn7dZ4t0m0Vqc3oTEdiRRWvZvm8SGdOK2G5C4np7oOvFIpUGYTo0Uo4JnbAFwaw9wG4mPkECZhEiC39rsGXUDaqQ5SpFoncemtjj9RJuiSxwaIfB63fgbKk6VQ0NoDcNSlFajlNYoTVGlJLKExacqTlWdqI3FkOaoHFpjBq0xnUihxFDBb5KZICSSwIZJvEnE5hYcmzsnkcVpQxGbWyFxDbdXqVYMjcTaVgxrD/ArSRSP9B6RSGu8PRJrakkUa5T2xDsnsY7A2yWxfsTmf4VEjci7TCIx5TZJHECUylxuNyBRdZaqR6K0YtxdEm8cdqtfJ962d3orJMqYfVUPUuCvI6F1JGrTggkaJpG4GyQSGolai/5/ikSZUepaEm1hN5J5o+L0VlsxuH3HEuNmJMpwbwm7SXuijUSJ0qxRdaIQKERqLfvXkHha5rChVrxjEutPRnTlcO/bJ1HqRM2xKaDEyKZzI3O6KRJJZp1jQwJtjg0J1Ei8nti/2rG5ucQQnXh1H5s7I7Fe94yrLVEGlmqo59jIqKh6fWxuRqLMKiWRmocJNcviPSRRwm3SINz3FfFOtT42NydRwm5AKq1P04l3g0RbH5ubk1gbsVlIEjvcAxKlOK1fJ0rI7beSqEDipMebIpEWeeckWhok0Sb2lby4BRJzmGrdM4ibkCj9TuuTWNfH5v8QEsdLcWojUVr2r0uixEtJZL2OUrdKolijaEQZtibTgc0hkbNFJ1rH69eG3UikkHijKVDqSLRo3TO4rqI2V0dsSKKt87CQqAR/gyTKWAypFy0kUUJvdHBInK0pShufeG1vNxnuHUTyZIZFG2qL0wbqxE6sB9XsilfXiSTRNqPUPSNROg+rSWvvEoky8YLETu8FiYNJ4kAS2K8hEmmREq1RERtC6yhlQTrTe0OilchbIPGKOtH+lroshpLESEViO5lRSpFYbSXRgk2qKYpEXqxRMkNmWVST1164ikTKDJmY78kqCX4Dj1Iz1idxKQlcWkacJKGExE1tPcBlpPCcesO9ZUowIVEb7n01iSCJGoEaiXV1oq2jlGqGIolDXqU1krh+hBSnQmLJi9I5Sgg0q9kV81h85jLNkmLUWidK1wzpYyPd+G+VxBCZNUORyNSKWu9087URm04krR3XNRI1KJ0oJC76ijpRm6DP3Y4k6m5KYhhJjEIjnyno8PiXGHf2Mrb+sQa7/gDs+B7Y9h3U9NFbvwa2EJuJTcR66fFGyKjgNYSMw5AxGE+S6EdJ7iMkcdkZqFaMhupEW5fFK0ikJQqR8z6yYL6qI7Ueb9OPk0hu1/Z2o25UzVFCJklV84KTTIH0epPe4NIsJWE4scZBJLO/rTlK6kamEoLr/RJQTGKl15tqjhIHh1aZRRIzSWIakSpeqpBJ2OrHuHr1YyTXwwmbcyOT1qpZNERiED23kEgKeJl9WIEEygS2XUleR6n/hDRuy5w2bUlkW+bttPQ7GtU4khgm/8dxcxJZ3v7DxMze7Yahw/hXMGBnOZa9XonHXjyHZYLnq7D0UBUWH6zCosNVeJhYSDzAfffJiOEDlZh3oArz9jPddxazdlfgkaP/hRVijbRCzRItWFIuvb/reoDbJIaNRImdCu479isWvPYXjN1SiZGbT2PkpjMYsvkMBm08jUEbzmDw+koM3nCO6XkMWl+FgesqMWDtWfR/VkPf1ZUoXV2FPqvOomTFaRQ8U4H8p08jf/kZ5C4/ixymOctPI1vw5BlkPXkWmUT6E2eQ8vhppD5+BmmPnkEqkbTsNOIfPY2YR84QlQrRS6sQtaQSUYvPIHJRBSKWnEb4kjMIWXQawQsrEPQg8dBpBD18FsGLKuH/0Bn43l+BXgsq4HvfafQiet53Bj7zytFl/il0vq8MneadREdut5tTjg7zK9Fp7JvwajMA8scnBvuwm5NoJIme9uHwdEqE0bsPmrXqg3ZtC9CqXS5atM1B89a5aN4qBy1a56FFmzy0bJOPli0L0EIhX6FlKx5rxfxtctGUeTv4DsUDu8+zmJXu+9J5WCNR04laU5QikQRKg7CayP0TmU2qBtNf+h49I6ejUbNcNG6Zi2Yt8tGE92rcSkOTloW8RwGaqrSQz8u0hYwo5vHmBfBulkfk83yC53m1yIMX1z0V8hS8mufDm/sln3czntO0EJ5NiuDZtJiQsZdF8CI8mxXBo0UxTM2L4dG8NzyblxBMmxXCq0muGjvp2SST21nwaEo0yyZyuE40z+V6HtN8mPgbjLyXsamgCAbCvXE+3Jrkcz0PhiZ5cOczuMl+Po+bdx7cnKPgQV4Mdjch0Y0kGuwj/uHpEAejnfxljvQqkx5i3aDTdSW6w07Xg6mPdV3bttP15HZPpj4qrwNhz/x2KtXOHfHwC6qhWCzxVkicz6J0QZkFQzaVw9kuRj2H3EN6v0lPOEml15ojn0FmZdRmZpRebD1q9zuoY7Iu+22952zPrcGekHOcFXyskNketXMkdbHCtk8gE/a56PzgqtCL692Jbszjw+NyTR+1rp2j3UPOc7Gep53rz3fsr9adeQ25pjtTAyEjn7XJ/rpyvx+c7INgtKdjczMSnXRCYuQ/TPZxcHdPgVfL3mjXKR/du+aiR7didO3aB926lTLtjS5deqMT0blLH3TpWsr1PujYpYQotqZEtz5ow7Rb9Dg8sP8CVlSxOJWhbVInlpNAmVWKRC4kodcjccZr/43AnAfRqkNftOnYD207DkC7joPQtsMAgtsdSoneaN2B97Ieb9OJYNq6Q3+e14+QtD9adiQ6DdTAa7TsyJTXadmex4mW7foRfdGifT80Z9pMrffn+gCuD0DTDgPRpMNgNGnPtP0AlTbm/iZt+6Nx6wFo1HogvNsMQqN2g7l/sEq9eFyh7UAWiQTzeXPdu81geLfS4NV6MDxaDoQHz/dqO0gVnQJTK2636gvv5n3hZkhiURqlSHS+IYm0RHe78H+4i2PTZSz8p7yNqQc+xcYPvsH697/H6ve/w+r3vsOqd7/FyqPfYvnbxFsannzzGzxOPPbm13jsDVn/Fo++8R0efu1bPHHsX3jyTDWWnZaJiOqRWC4k1pBEc4MkKiIpNxZ88Asm7fsOE/Z9j7EHvscEYvxeYs93GLfnG4zd8y1G7SJ2fIeRO77F8J3fYzjXh237FoO3f4NB27/FIK4P2vYN+tMj60ePrC89slJ6ZH02foXeGz5HyYYvULz+KxSv+waF679D7tpvkL3ma2Q/+yXTL5FBpK/6Gqmrv0PKqm+t+AbJK79B0oqvkLD8K8Q9+TVin/oWcU99x/R7xDz5B0Q+8S3xDSIe/xqhj3yFkGVfIpQIXvo1Apd+S3wH36Xfo9uib9Wc692WfIduTLtyu9PD38Nn8dfwpSveqNNwWqX6w7Mbk+hAS3TTCYnUiT1moPOy7zC5rAb7/gjspFfK9wC+Bzz3tYWgZ0rZIZCu/fJHJzJqWGZZtM20+Cy1oww4lTGKIjNEYqi5v6U4ZTGqilMSuZBoiMTakVH0QqW3m4wOnkTPdDL3T+a2YBJlh4wSHkfv1CY1ZKSweKWSjuGxkdwvjcPSUUqNxSCkw5R4pr1lQM1L1IlWjzRPvFKuZzPNpHeqZuKn5JC+p2pWKSLBilhqx5gDlBb7ZX63akTsrUE4PVRBncyog8ykIZMvyOR84qH60Dv1YdqZHms7oo00O3FfB6t3KsHwFszbfukP8Oo6niSqf8W7iSVKcapIjIR3j6lot+QbjD/+K3Z9I9Nk1mCzQLTi5/IHJ2YVBLf9O40QtpqErWS9t5KkSf2nWveln41q3QeeIOjkaZao6kNrnUgoEgmbd6p10aDwFyIpMebU6ySl/oboPTO1ojazlPxLjQxtG0cpMZZEDX3jV+4zY+zBvyDn0ZMYuP4LTHj5VwwlaaITJWLT+xUzSkie+j8qin2J0shoqFwR+i9Y5zql2BetmEKo3t9E/H4LJYUZsUS0TM63pxrhu6sRuqsawbtrEETyFFTYre6vE3ox7UkSu2+xwGdLDbpuqlGT1HbeZEEHos1GC1owbUmJ0ZIEtiCBzSj+m5LYNou/oSWO1SxR6sQbiX03IZHFqUHEfg/qxCX88SRxJ0nc+hWJE6iIjZCojdu3NUU9SyJXi+Wds6i6TwjUersRtEJ67ZAui7UkimMjuJ7EIIkyEkqNhqon9jXBbx3yTUwSEmlpikRa33ha3Lj3ajB48wV0DJ8Kj0b0XNsNRPbMlzDixV+VRix9lSS+ShJJZNHLEnITMrUWfTXI9IhFkZlN8tKFSOmiQU0oo6JS9lmQREtL3G0hzIjfVUOhL38zZEYYxX4YiVOgFYaSvCASp4Q+IVbYa7OlbpZFkiRRG1vstA3Ff63Yl0bhtWa0pGV2fPgLNFYRG5LocAskGu3DVcSmSXeNRLHEnd/KrMM1LDZJnkRsPqc1krz6sdNaEinsV1SZryBRjRZuiESSdyskisivi9hoQ76vJFEbLTyBJKo5396gZQzaSG/WHyad/JFmIHVvfwza8QMGvgX0YVEqKHnZwmJUAt9ai770rbFBjRQmeTJBn4TcJACuIELfGrVJoKCPp9XF0uqiSJoM9Vb/TkNI2E3+oUamyFTTZNaSqIl8+fuE7iTMhxASO4qw53obK4GKxGc1y5TxiY07itiX8Yk3IVFFbOwlYhNxBYk7FIkymIZWWEvilQHw/wSJEnK7lkQZaGod8k1rlNkzJrx2GX75KyghAtHILkpNmC7TPQ/Z8jkGkmgZl6hIpCVKfagahI+YSZ4QqUGbtLaue0ZDJAriaZG2acFkHpubk1hnid1pfTIDvyKR69KKcY0l1pIoxektSAwl9u1D1f9iNO5GEhd/jrHHf1EOzXN0YGQuN+m2L3OAb/y0+koSSaDWKKzFToXIpyvNeEp1HraoALiaKlO17GshN9s/1Gg60UIS6dCQRG32DCHR2hRFAusC4DLxAutFIZB1onTdV0FwWqCKnzKVsfwFSz+EwTuH1hhKnRmL4MKlGH34v1XjcF81AQOJZB0pcVOtBYNFKetFW5dFzRLp0BC1TVFMVXPUPpslWhC/x4wYEilxU1tTlAqAk8hgkhiwra4pyu85C3xZJ15BotUSbU1RdQFwC0ms1khc+A2asjgV47qF2Gl4pskugnViBBp3nYT2D3+qSNzytVmRqEYJC5lWErV+NtJAbFFNUdoffgmJMuT7OiTWm+/0SrF/ZyRKIHwMoTxTbo99/ScUP/Q2wnuvQcz43Rhw4DsMev0XDKT1DSAkblr3h1+gJZJAK4mCG5EoYzESxAqvQ2IoEXJHJArMikQJgHcQEjuMYdUQSUsMv5nYD85yt4v4lzBuaD0UHR66gIll1SRRm4lfCJSJh2Qi942f2UgUazQrEtWsw+dJ4HkznqE1SjOUFKcaiTJu32KdfEGL2kjcVE3gLsUpydP+P1GDNAzLXwzNYSq9v6VRWMZhTG+QRGv/03csisCBxGBiMotWIX8sHaN+R2swiIQNpdMyUFr36dxInVjXeVizRFubotbH5ioSVaMwieN6PImsP8uijUQlLWzBbxap9RuFb5VEVS9aLVH+ta3NfZ/C0LQfPO0i5Q+w/+6sC7j+X++56gJD3OwDvzA5hMLRKRVdhh+hZ8jilATKiCghUeY3Xa9mlKpmMUrvlFJjLbGadeJKK4m2SWufEgIJ2xQoj7MufIxW9yhJW8b6T1owVCsGyVtI4uT/ExewDhTMJ4Hz+PKlhV904hwSOJt14kwSI3/4ZevGP+Fd24goqRPl7/e0VguZuFbNQEwMfdOMwa/XYAg90YEvVaPfK5c1maGaoqwkWtsT861SQ7pnSKOwIpFQw70JpROtJGpE0hJJZBSt0fbXe7WWSGIDtps1kERfWmXPrTJprRndZP5vkqa8U8qLDuu1vxdqQ3Klu2K7NQTTrqt/RfvBz0PvEAdPB/FOAy+66eX//K+zmHQ9vN0c/PcYHOUvwqPQuMNozDn4GQ78AdgrIp8kbmK6/iuLJjNYF6oGYkIEvsw+rNoUrZMR2f7o63ESKn/0pUZEEY+QTJmJfwkJXUzIoBpxblTDsDg3JNM2DYoikdYkf6mgLJGYQkySJijC1gQlsNWLqgMxMYJOzDBCRkUJpN+p1o1fUtGLrBdZlBYTRWKFRD7Xc5lKE5T6wy+RGYRqGCaZ2pSZGpEamaIZa9Q/t0XSAsOtEDK1LhqECH1C5jvtZRX68t+JXQn5VxqZyF39b6L8LwYJFWtsS3LlmM99F+HZfiIMumh4kBeDY8A2D52/p5WyhhdnnW+Kq0PwNx728hfhUQhMnIgVR6qw9/wl7KE1yh9/baFW3EoSt1JmCLaIt8ridMN5Cn/qxLUkUrrya1OE0Sq5vVzAelKmk37yrBSvZhIqU0pbsIxYwnpSBtfI6Cjbv5reTxJlbOJ9JHEeMZdECpkyPdhUCv/JFP6T5G9pKf4nSZ8bFrEi8se9bcaYt2sw6qgZIwmZRnootwe9VU3HphoDZP5TWqf0flMTFL1Ug1KK/lJ6qX3o4PSmVRbKGEUSl3/oMnLlz6sPysz8ZmRSbqTvr0HavmqFlD2/InnPL0ig4I9TxaqZqFF/TxtB7RhOKwwneWFEsHiqLE79N9bAj9boR3HvS2vsyaK067oadFpvptSoQZfVl9D9mX+g5+wyePnMgosuGR76BJIY8oVB1yveStX1l866DGeDffAck33ojx52MSyDg9CieToyez+IcfO3Y+yC3RjxwC4MW7ib2IPhVgx9aA8GP7AHA+/XMOB+OhNM+yvsRj+i/4Jd6Ce4bzdK5+9Gn/l7iL3ozbRk3h4Uzd2N/Nm7kD9nDwrm7mW6G3mziVm7kDtzN3Jm7Eb29D3ImL4T6UTq9N1InbaD2K7SlKk7kSyYvIPYppA0aRsSJ25D/KTtiJ24AzETdiB6wi7ETNzDdC+i6fTEjN+J6HE7ESUYuwuRY3cjfPQuhI0iRm9H6KjtCBqxA4EjdiJg+G4F/+G7iN3wG7oTvkSvIbvQc8gedB+6Gz0ISX2IbtzfbYiku9F10C50HrQTHQfsQMeBAlnfhQ79d6FNvx1o2X8nWvfbhfbFm9E8ciHcPLLhQaXgYS8WGPRPo1PQ1B663k5Wqm68NNP5uXs7hS4w6QP/YdKHwM1emqQC6K7L5AoyAYI26YEjhbSjSusmlZV8dRMiCLSJEuog5wi0bf1VcNSFMA21IkRty/8yOak0lJAx/HIvmSRX8sh5si6w5ZGx/jJHgA0yRl/G78vYfG2cvosuhmms2idzA8icAjKBrky6KxPfymS52rrtWtfOKyDn1Ic2EW9DkEl6bRP1Ngxp9tNg3WcXAoN9EGhMrAf9/+bm2GOOThfhaqXo1pZmzfzc3fQ9hhmdfI8a9cE/EnB3DOQXQeHsyAqW8GBF6+EQBhPhYU9Y1w2OYcyjpQbZvlXwmkYH6dGlwcQiXf5pXIp2gadDND20WH6dUbwP783rixMm9zTJOuEhz3UFeB1eS/523rZu0vMcx2B4OkbByzGB143n/kjeO5DFFl+cY4h2PV7XyOtTP1tRf5151L1vB9q1Gz4WyueU38J72Qf/y+jo/5abffdBOl2wm5Wa3764uPRo664P6G/Q93qaFztE7HdzJJi629XBWG+7Ns9vhX2v/W52vfa72PVk2nO/O7fduW2w67XHYOf/qpc+4C9e6sdFkeTQv5r0fi8bHH32ufB+LvY+VnS9Cjxm57PfuT6439Wuyx53+4AP+dH84iGN4I6hl13se37iZtdjL1OeI8/Ri/l71ju3629EvXveEvgOdL0OGB2C9xqdwmYZHIIKXVx6trFScTeWCFeTLsJbp2utYLKmDeFGx24VV16jnaeb3j/ApO92zKj3h1EvrnboZjddaHOdrq1X/fNuHbymzi/H3SHwW6NjDEkM+be7feAkVhf0/HrUy1d//d5DFIKHzpe/6f/CxeTco7Oni/8pD+cwuOuD/m1i6WA9dNtLI12U0d3e7wUji1l3h2Czu4PvGuuh35d7sXi6BA7ydAn7yeQUCVf7gEqDU48e1kN3tLjZBy4wOIbUSP3t4tDjhJPOt5v10O/L3Vza6eJdPFyCV3k40fHRU786BNJiOjtbD9/R4uwQnOBqH/idyTkSbo6+/3TR9aQT8fty1xeDU2B3o1PwaZM+Sub7/MXFPuSuvWgvXbCHu2PAiyZneoZOlBp2Pdfr+NFYD/++3K3FRe8/kHXWJSNlAkVvhZBqPXQ3FjuDo/8CElkt0sndIeATk3NgZ+ux35e7sfTQ9XBy0weucacupBXSqfFd01rX+reJ3pssJDGaXup3Rgdaun3In9x0gRnWQ78vd2MxOAX7UMNVGvXRcHcMuuRi32OI9dBdW8Sld7ULfNldSHQIN7vpA5b/5ujI78v1F0qJfiZ96L8UiXr/MoNTLx/robu52Lk5Bs03OIRZ3B0i4Orgf+ouF9n/Ly/BetZR60z0SI2OcbTE0HWtdSX3xEJcHAOiaOl/MOpFwvj/5OTgU2Q99PtyJ4uTU1cfvtCzBoc4GBxifqS8uOtFqW1x1/k1ddcHv2JypMU7hJrdnALmc7ejdvT35bYXvX23AS4Ovv8wkkR3+4gygy7yXhSltsXB4Bg426SPNJscY2mNIW/odD4trMd+X25vaefiZNdjE4W9KkpdHUI3db5LAv96i4suOIZW+L1Jz4/GIfSPLo5BsdZDvy+3s4gD4+7oWyHhMDob/3S7h0WpbZGAusEx9CUPfTz1aKTF4BT2gE7X28F6+Pflty5u+p6DjM7+/zQ5R/CFhlDgh/9HvEV6qTNNjjFmo2MCXOxCXjfoghtbD/2+/Lals7OrQ6+NJqcQmJxDLUbHwI0SP7UevKeLuy4skVb4nYc+kSVAwB8NjrfQp+X35drFqAvtyrrwhEla4vUBP7vpfUdbD93zxWRK8zY6hh72dIyR1n+zUe+/0Hro//ZF6o14cccJSW8XD9oLnHU9R/BF/ttTtKGD/7fuzr4pvLZdw+fcTcj9dfbudr6Pe9hHwlO6iTgGvO6u69VMp0Pt/ePr4crzbxHxtvX/M+pbey+3yHSTS/gGg0PYZoND0CaDo7+Cp4MgaJNJ7auDbMt+dazefnXM0X+jycF3o8HB94zESo32MdSHAX/xcArY6+0YuN7Ea5LUBmFoYJ9t/284tpHO1EYDtamHXTg87KLhYR/yVw+7wL0mh+D1no4B1vw9rfC9Bnx2hYaOaeD5dvy9dhGbjU7hG9ydA+QD/d9bpFecySVgi6dzNEz2CXzpkUxZj9mHah2n7MO5fiVknw3XHpNz5NxQyPA6mU+nbp+81DDmuw6ud0z23/Ix3sfaAcrTTv6Emdao0gjeO1JB9e8hwTYYr/oNJu5TqN0n162/raYx4bnRMOrpeTv1WidyyvpK//NLC12wm8nF72mTc8CvJseQXwz2AT8bHPx+NtgH/myyD/rZSBgawPWOyT6TffDPRrvgS9z+SYOsc586dqPzbnzs6v0NHwvk8wf+bHQIuuThEPiTh0PATyZ7v0smu4CfjboQHg/jOeEqvQJ23GcFCVTQtm15Qgk5XyDvyP9nd/vgX9z0vX511/s8drcauG97MRoDunjofUeaHAPHsBgabaATIqmHFQb9tbjxsRCeLwiqB237eucIbu9e9Y5JWnuvkNpjHva+oz10THVyLLwebM8puHK77jfUz1v/9/Bejv5jnPU9R3roQjpaX+Xvy+/L78vvy+/L78vvy39+EZGq2tn+L4ZNjDd07G5D3UeCDPd28dZ1NhkdfSKM+l7DTPpey13sui93duj1VH3o7Xpa0f03otuVcKg75sB1Oytk3Yarz3Mg7LjPTqUadPUg2w7Wa157Dq/J5xbY2fUi+Bv0QbxPAM+V7V48pkGv6/mUcy34u+uD13O262K9vqRd1LazXada6B002LZdmNfk0ONpT5eAB03OfukGQ0CPexLF8XSP8PVyCl3p6RTwg4fe/5KXPhgeMmpILx15NajRTwohRDARVAt3h8DrQssjqQZ3PVN93blGSWXbCneBYwDPrYObgPsUHPxr4XoV6u5b7zxuuznIM/KZKfINFPkKMlKaqUB62Nn2GynURazbggRqpJZCKDx5HU9ez4OpQNsOtqYBhD/3a5B1BftANOJxb4dgCyXa303OgZVGR99ZOl0Pg/X13/ni7RrRii/vVS+nSDRylmiMTOUYTETCjbD9d2/d//XKOEBtrJ8NTrqgBiFj/Fx4LW1cX6gVsq6N0XMnKLBrYbDus43fq38PbXyfIIjr2uRD7kwFsi3Q7qX9V3HdfxbLfjkeqCDn2SDnGpjHBu3e2jhD2/MZ+MxGQo4bFeRZZV8YEUFI1EnAj702jy2f9pvcmF/7HdL4zWN6/5/c7fwf9taFmaw03MnS28HkEvKAwSn4ZzdamJtDNFo37Y9O7SejY9sZTGfWwywNHbjegcc6TKtDJwH3KUxX6Ex07TwD3TrPRLdOM9GV6EJ07sLzua9r19noJuhmTa1Q+2Wfzxx0ZdpVUit8uO3DtHv3ucQc9GAq0LaJHvOYzoMPUxu697Dm7THLipnXotcsdO85Cz5EV18+p8IshW6+c9DNj8/hz3V//h4F/iZud/fntf15D8KH6z4BvEYtZip043q3AP4entOs5QA4OcayFIgmmaH/MumD+1mJuP3Fwzm8vckp4hN3FpfuTnHo1vEBpKe9hpScd5CY/Q6SmCYxTSZSct5Hcs4HKk3NeRepeUeRmvsO8S7S8t5DWv77SM//ABmFHxEfI5PIKvoE2UROMdOST5DR+xOklX6CZCKt7zGkEyrt9wnS+/N4f55LZPb/GNkDeE5DGHwceUNPIJfIG1ZWhyFlyB18CrmDmA6U9BTyiPzB5Sjk/qIhp1RaOJQYXo6CYTw+nPmG89wRZSgYVYb80eUE9zPNHaMhbwyvMZb5J/Eak8uIE8RJtV48qRzFE3n9CTx/IjGpDIWSb0o5UYFiweTTzFOBkom8zoi3SeaD0NvFwUMvrSeBz+l0LW5/YKksbs5haSZ9xPfu9mFoYixEStwRZOSeRGIJX+6wM8gYXYmcceeRS+SMO4ecseeQR+SPqULB6HMoGnWeuKBQMOoiX8CnyBlFjP5MA9dzR1xEnqQ8nsN82aMvIJPnZcs6IftyZHtkFVGpkDWC9x1RhRzuU6na5jEic8QZHteg8ipUIXM4MawKGUMqiXO1yCSyhvDagsG8FpE9VPZLXuYZbD3OfVmDea2BvO6g08geeJrrFcgacIofVlk9nEI696UPKEM6P5jUASeQ3P84UvqWERVIKSlHcu8KhRQitYQoKkdaMUkeWI6oxG2s21NZbbH4dgj41F3Xy89Kx+0tRofQHDorf5YZ4JsYeyMp8VWkFJ5ExohTyJlShdzp55E/4wLyZp5H3ixiZhXyp1eiYEolv7gqheLJ51Ey9SKKp36KwmmfIp+pIHcKSZxEgsafQ+4EXmsSyZ/Ij2ACMZ7X4b4CHiu0fhT5/GDyxpxDwRjebxTPUeB5kioyzyJ7OCHkETkkT5EsxA8nucPOIn3IGaQPJgbZiDyPjEEka+BZZHJfFpE94Awt/TQtv4JEnOUxnitpP+7rQ8JK+PuLjyOz6AShpdnF5SxRKpBZwOP5BNP0gpNIKTiG5PxjSMo9xhKKJOaQsOzTtUjLITLLkZp+CqkZJ5GVfQJRkdvh5ZoFLzpKrva9/stR1zHaSsftLfTesgwOYX+S6RkbG3ojPvk1fpWVKJp+gYQwZdFQMJ5FF4uKXBYVeYIJJ5E3jph0GnlTTnN/OXImHGe+YySGRd24YygYe0zlyR1fQcLOMGW+cWW0wmPIGvUJMkeyuGSaM5LnjKogSKJg5FnkD2WRxqIxh8Vl1jDmGfoJ0zLNAoefJlllfMZjtCgWrUN4fDCvOeA40mgR6Tw3bUgFMhRRtBruS+vHYyyyU/tJsX0M2bSY7L78GPqS7L4kou/HzPMRUko/RHIJq4Ti95BewvXetK4+J5FWQiIL+AwkKjPnQ6SzOklntZKW+yHSSGRS3imk8FhqFquZzPeRkvkBkrNY7WR9hOTMj7nOPFmnVJqRV4aIqJ3wVCRGwNmu1590uk5RVjpubxESTQ7hf5KZ/Rob+iAh7VW+ZFrazIsomV6F5OLd6OG3AD6+rLj97mMFfx8r/vvhF7Ma+ePLUDLrAtKGvoZuoYuYh5W5Lx2PnrPpLEyHf+hiFj2v0vpIDOsUv5hn0bHHfHTpORdd6IR0odPRvtccxBQdZBHND2bcWSTkHULHbg/QEblPc1J4rc7dp8E3dgVJr6BVViK+5BU+x8N0eubwGnQmui+g83Q/OvdaTCLeRTYtMq33x/ANfBpduoizNAedfWajQ9cZPOc+xKUcQHb/s6wvyxEcvRbt6Wh17DYDHegwtWf+DnS6QqLXI5X1dzqtMzbjCDp25DtoN5+YjS507tq1n44uPouRnk3y88+QrLfRs/sSdGwzFZ3a8hrtZhG8ZpsFCI8+rKw0OfMEq6pykribJGaTxMi7S6JM1tfEvTcS019G1ugzLDY/RdHU8/yRT9HNjlFutwut1Zn5HOlON20xEtljjqN0zpcs8/fAnQ8l05PI1CUyFYmTjvrILQuJxbtQMLUSvcefRNPGI5hHpkamE0WIy26vC0BgwtO0VBbNE84gMHo5dDxWN11ICGSG/ubthqJoNJ2Kkef5UndSS2bweSKYL4rXiaErHw13lww6V6+iaMQFpBa8jmbeg/gcNilBvajzg6cuAaFhz7LOYxFOR6dT58l8Xm22fU0SydQuvvSsp7II/QD5pRf40rfxN8s96uSCTP9idM9HBsnLLDyLpNQXWR2VqmuIQYiU0mbkj0FI4AZaMYvaDJYYJDMychc8XfKoP6PhYuf3J8e7SWJTITFNIzF/5mf0rM4jLHY5v5gkeJE4Lz6Ql10MPJi2aTcCmeNOoGTOdyxu9vMH5fDHkRiHGFbWseqHeptykVC8l8XyOfSZcAKtW47gSwiDN/M14v0aM5W6ODxxBa2aL5UkBsc9zRcZw5cdyftEqEl6RKu16zAaBSPpNdIJisvaC5NrLs/li7WLhaddtJbfSBIL30DR8It0JF5Gi2byRyEU6+o6koagkWMaSVzLOpB1/aAKSp5pvAbFOp0M6VXgSQdPdKgPrTar6H3k9zmHqOit3BfB52Y+3sfED0c+VC9TMS3xLd7zNBJSX0Azz/6KQE8+l0zwJFOsGPkuwkI2IZNFbhJJTFfF6W6YXPLp2ETTEu8yiU1YJyZYLTGfxWnxtDMIjX+MeiaeDyYvPQpN+cU34g9p23YYssd9guK537DY2Q9Pkij/eONhL8PGovmjQ+DtkUMS99GiaYkTT6Blq5EkUQgMUwR685ouduEIT3oaBRNYvxKB8U/xa47lsSh13Jv3EqLbULfmjaxAzpjzSMjaBy+XAlpGPO8Zyw9LCCIJVhILRl5ESvGraN68P+8nHwNfqFgqr+fhmI7QiNV0blhl0Pvs0mkWryPkhdR205AP0MdnHjKKPkBu33JExm3iubF8bulGoqaxJIkRaGTsgwxKrzRaYkLKEZLYlxbIZyGB0m9I5vhx18fwo1nHupAea/pJZGefQVTEPpKYQ4Kj4WR/D0nMm3WRzs1ZhCQ8CTd9An9ohLJGIdCTP7pt26GUGx+iZN4XSO2zDx7umcwTyK9LenJLhCcQ3p6ZLE73KhJL6By1bDWaL4MvjPDi9eTDkOI3PPkZOkWsNyecRVDcUyw++bLUyxdypGgOQasOE+n4nGIRXoXErB0kMUN9EEb14sNJUiiMhlyS9wo13jmmr6FZ037qA5A8BkLu7SGWGL4GOQPpBdOL7dR5DvdH8mORj0s+UH6EPKebz1ykFX2onKDI+A2KRPmgTHahvJYUleII9kFW1rvUxpVITHkJzbxKeb8gax8diXzRqh3iERK+gZZIrzWNTmHmGcSGseRiSeJOwX/3SXTvw+L0ldo6sXDGRfgnroKjPpUvMo4PGMcXF0+CYtGqzUhaxYcoJokpfQ/BxTVHESJ1gOR14vVMnvmILz6oPN3i8afQqMUYEiT1nRSjEeplyXRiwSxO88bRM2WR6h8jdaLUKeG8ljZVl44fRNP24yg9KL4pR2KytsPNOU29SBd6eFpIkOtu+XTEDtMSK5FS9Aa8Gw3h9WN4PB5udgQJMjmk86WuRT61Yf6Q02jTeR7rN7HSUH4I8jGEq4+mc5f5SC+iB0wvNjxmK/fF8yPVCJa8cj9vt77IynyXXuppevWvoolnPz6vhPEo4nlNo51MRZaEkNCtyM6j/EkvJ4mVikSDVAd6Fqf3hkR6p6o4pVabdgExfV5A1+CF8Am4Dz0CFqBnwANcfwAhKatRMPkkCuZcpOv/DnqEPYoe/vcTD6K7/0PoQQ/WN+wRJA18F3nUkAWUGP7RK9G113x097sf3X0fQC9fepZ+0xFfdIBWLcGE84jL34tu9EjlmHjF3XmdzvRm/WNX0sIoU6gZk3u/Cp+gRcwnnjIh3m6PWegaSG+x32vIG0aJ0ec9+IWsQKdu97No5DN1p8dL6+rV4yHEpj1PS7xA56YSAbGb0ZH7u3bTwoBd6Z127TQbEZHPIaOwHFl9ziI+7UU6OvPQozOfXdCJXnqH+9Gr+3JKjg+Qmiv13VFe+yl0acff1uEhdG//IHp2mMN0PhLiXkI29WJGehnys+jthu+9lySWksTXWWSdocSgZUw9h6IZVehNokqJvkQ/FrP9mPaeTcE+g8JZhD/z9J1zQcOs84Sk59B/MiXBpPPIpMDPH3cB/SeeR/8pZ1HK4rWU1y6l49RnKr3S8bwOi8lsyoxC1ot9JhIkvYSSow/39R1TieLRzDOSOnEkiRxdwY9CzvsMhWM/pYVWEZUsbs9SP5ZTG1IHDqS+lTDb8DIUUldKiK2IlifIGiTRFhJNmZE9hBp2BDXwUAnZVbCupPNEWZHb+xzF/TlklZwikTxGHZrfj9q4lPn7sKTqzXOLWUTmUUvmUp/mU7MWnUJuEQ2ggKDsyM9n/ryPlMBPp+DPpNgvyKm4tyQ2VSS+QUFOEmcQU8+gmGQWz/4cRbO+QuFsDUVzJP0MOdOqkENC8qafR9FsKX4voHA66xoWnwWUJ33Gs/hgPZc1kT96/HkUj6NsmSzRnM+JL2ihXzPfRVrhGZLIlzqOL3gCrzfhPIvX8ySLH8qo89Zw3nnqV9aJI+kckKyc0Rd5/DMel2MsNUaeIxlVyBqshcpyBvIlDiGxw0jwUF5jCEuDoZ8ibwg/qgG0MJKV3b8SmYMuIoO6MoP1YwYtM30gIdGb3rxW0WlkF56khKhEbj/+lv6nkFPKc0sIEphJ0tJ5PC3vBHGS66foDPH+JDErX6I7J5Al0a/ss0hNP83i9CRys08hJmI3jG705vVRrBN97wWJr1uLU1rYtAqkDXkNoUlrEBq3kp7qagQnPIsAIrJgPwonU+xPlxDYewhJ3cD67BkExz6DoNinERjzNCJ5XvrQ95BL68sbdwphqc9x/woExq0m1jDfGrWe1vdN1q/lSB93ksX3EfhHPo2QKF4rchUColajF9OIjN3IG/ExyaJg7vcOpcgWBEQ8g8DIFQiKXgX/iFUIitmEjL6831C+yL7HEBq7A36hK1kn8dlDeJwIDl9P4f0q8khiIcmKTX4BvkFPIiD0SfiHPY0AwjfkaUQl7Cd5x5FDstKz30NAAH9TwGPE4wjwfxJ+vk8jKHgz0nPfRQatMJV5gsO2ws9vOQL9ViCAx/39HoGf/xNITHgFmbTEdBanOTmnEEWdaKSuNjhG3n0SpThNsJKYx+KwiESGpK6h6WdR89Cd17Ny19PB4XrrjhPoiHyC0nmfI7X0eXh7USPZJ9NxECTBhV5ZI29er/cLtLYLKJpQhmatR3G/uN7x2gy7zOvkkIGI5K0oGCcWeAoBMU/AVXSpYzI8HVPpTabC1SEB7TtMpdA/xjqxDHHZu+FpKqAm5TNJINk5FQZ9Cjw9BiCp8CVaLsV+yVE0azmR56byWknw5nObeB1PlyKERq9HnrRqDDqN7l0X0pOM470EiQruDnHw7foAcgo/VqG56Dg6UvZZlBcpRDKfO5W/NQWNPAcgJfNVZNDiElOeRzPvEXz2RPXMAnfHBDjzucKC1yKXxWh6Bi05twLRkbvhQRJlvh5nu3tNIuu7ELr/7nzpqvGVolhmKBY3unXr4SpG2mfe15QYh+FtKKQc0OSD6EVpoG1szKXEOIxCFpklrOeatRhCb02iJ9JYGqby6enxhSesVfVi0YRyBEctVZ6pyBkR1SY+lzSmtms7DoW0wpzRLI4oMUxufJm8h8pnlRiiVRNJYt7oL5FCEps3H0ovkaKc8LTTGnI99Om8ByUG67/CQWfhQydFIjEmBbmOeLtB8KP0yCsQEivonW7mM/ADoMcpf3cgeURLNjIWIDXrdepEasDkg2hm6qOCAKJNJYokHrjePhahwWuQm8tiOoPFMz3ZaIp9D5dspTld7gWJtuLURmJoygoYnJL4UCFKHxnsQ+WPN9Cm7UiS+DGdnq8o9g/C21iodJ9oKU/lioegmUcBXf4XkDf5MxRPPEudOJw/jC+T+knGK3jwOk5Mw5JWkUTWvxPO0EqW8Vy67zLIRaJDhJDavt0EWuIJ5LLujM3ZBU9DBskJQWO68V4OomFD4WXMQXLhy3RwviaJ76AVPxqJ0njbU3dSWBsp5L2dMxAS/SyyWXcWsv7TSCS56qOScRjy7KHw7zKXJH6IrH5C4iYlU7xIohp8I7qTeZp4FCJNkVihSGzh0Ze/Tz4EySN/MMoPkBYeFrKOlliJ1IwKZOVR7EvslCR6qtip792OnV5JYuFMin2S6H4NiSFK7BeOfR996fSk9j7AF1jIh6cF0SrkR0r3jub8kfJS8yZ/iaJJVWhBEmW/hwOtRhEZCEeHYFq7BNOrUEKERS1T92osFsRrCQy0jI5tx6J4hDTS8kvOpSUaM/ixBKMRX5RABL+nMZMv9Ajrzi+RXPQuWrQYwWeS60TzfnyxXPd2ok6MWkvHh5Y/sAo+HYVErSuFvAMJDEjM1q/LHGTTErNKTyMidgMtUQIQ1L78IIyOfAd89iYeeawLX6MmLUdSygGS2EdZqJQgXryOJ0std1Yf4cEkUZybeiR6kUQtAH5PSHxDc2xm8UfOLEdI0nIK6kT+CAmAa31kRIC3bDMYRWPeRf85n6qwm8GQr/ZL8SUREOnb0sRQwDrqRRROuog+lA4tWLxJXxcRzFq+QNgxX0jSalWcFtOTDYxawiI2WFmZl0qlb4wf2rE+LRpBr5TeaGTODri7p6nriPWL5auRVW6Z1Hb7kU9PNan4LTRuOpz3k2I0mC9Wnk0aYVPoEK1Wjb5FlBddOs5XAt1FF2BNZX7yAPhQL6YXfoCcPqcQGb2R+6QIlT43tuB2IKuLPKTTElPppSakHEJTUzGv4a8+CCkBJILlwpIkLJR1IotRjcSzdGz23jsSbRJDs8SzlAusf3K3olW7cWjBOrBlu9EkbzSatRqFTiEPUwOeQgmlRdqgI2jVdQqatRmCNq1Hsr5k/pYj0bHrTCT2ex0Fk8+i78QydO/1AFo2lzzD0bb1CBIzFC2J2MznqPNO0RpPIzR1nXr5rZsNR5vmw4ihaNZ0MLoHP06nhjJj5GeILziCNu0nolXTUTw+Bm2bj+X6OLRtPwsZxawTqQ1TS99C5+4PoWmTIWjZbCiPD0OLJsPRvNUEBCdtoxShjhxcDv+glSpPi+aDabmD0bLlUDRtPAS96IGm9H4X2aV0pBIPo0kT3qPJMD7XKF5rDJo3Gssi/n5kZh+lY/MxktKOoFPbuWjhNQTtGg9D2yYj0bLJCD77OH4EO1XrRSodG43EfawTc1Sc+R60YtQvTiuRQ62YN+EYv/73qB3fp5Zj8SINuqM+RhrXMydTm02jnptMt3/sUWSOfhs5Iz6g5DiG7GHMO+J9JE86izRKjHxaYs4QHhv0NgX2UdZJ71BcH0XukLeQM5z5x1Yhg6I9bcgxZPb/gHiPeIc4ivR+7yJtIF8CrTCVnmcmhXvmgPcoJz6g3GBeIq30PaT1oyNCjZgxiDptENPSj5SXmtr7KNJKKAWKpcH3fRLM39CfWpI6MavkOAX760gqeAMJhW8hqehtive3kc76MLXPcaRT6KcVnUBCrvQ3eps4isTco4jPfgeJOR9RYlAnZvJ9ZH+E5Ix3kZzKPKlvISH1TcSmvI54psnSWJx1TLXsZ+eepXcqJObSN7gXrRgksc47JYnTz6JoRiVKZ19A8dzPUDSPIn/eNyia+w0KZn2B7CnnkTOFgpwCv2juRRRTbhTP+R69Z/+AfjO+UlGZtCmsMyddQNb4iyia+hWKp7N+nP6Vtj71S+IL5E8WfIm8SZ+r9WKuFxL5sj3pM5XmTvhCXSN7wnlkj5cuHueRN57incjnfkHBWIr/EZ8idzj3D+e+kRfpqQqYZySvNfwzakiKe9UVg0T35TUGXEDBEF5vyKf8sD6l+OezDjzPD+McyWcRKF01SikN+lcht/8F5Aw4x+NV/AiqkN63EmmUDJksJtOzyin+WdyXnEM2kVnE48W8T9EZpEm3jSyJ2pxEPuvGWNWKQRLvSStGPRJzSWI+hXz+6PeQNeAFft2HkTb4CNIHvYTUAS/RYmhFk6ntpskLPIW0AS8jfeDzyBj4Kj26V5FTegQ5/V6kdVUge9I56sDzzMOvmWI+tc+LCim9BUeuQKo6/gJSmKZQY6b0fv5KlBxWQe7k4kN0Xg7RqdCQVngYKQWC55Gc/wKti+fny/YhpMr+3MO0osOIJ1KK3+UzSveMKuahBWbsoxUdZJF4iL//IGLTDiCZ1pZBoZ9RUsbrvYWYlD3UgoJ9tK59iE3ei7jUQ8jM+RjpJCYt8xjik15AfMJ+xCUcQGz8QcQwjYo7jMTUD+nFliMjswwF2WcUifewFaOuOM2nd1oyjd5i8gYYWWEb3SlgjWn0QukVumehbZeZyBp3AgVzv2Kx9gqasy7wooBtbMiFt1sGjC4paNJ8ACL7HET+1AqUjD2Olh0mweCSjkaGLDQxMi8lgaxfC+06TQx5yjlqQqepFu75aOyWh0aEpE0UuN+tgNtyrIDHCpkWM5V9cpzXknNc8+BNLSddL0ReFAw4jS49HoCbUxa8XXieaxG8XQtgcC5Ejx6PIrOQxXxpOSLin4Mrj3u75KORE/Uwj5v0eWjRaBQysunYFFay+HwVrZtPYjFZAE9Xyi2VZsPdtRjB4ayD8/hBpAuJtMTwfTC4amG3uxM71QVnUbM1TKLoxPiVcNWL2KcYpisv7XySt3WbEazHPkLh3C+QXnqY3lYe81BvqQZaaR0PQyNTPmKK9qGAxWoxCW/aQrxTrde0iS64iGatB/XVEAFfH/Xzi+TQvFutB7ZAel4zj3o20XnStKQ1Aqs2R6Xd5Dx6l/pEBESuRA7rzYJBp9Cx83R6lJQ8zKu1cUpzWhi6dZ2n+s9mlVISxFEnSg8C0ZGqgVkkVBgamwpphS+TxAokZbzAD3kAPVfxlGMJySf/QBODkJBnkZWvhd0UiRF7YXDL5sdD79S+190kMfIqEqtYf51BWCLFvp7ClS9BtVjz5UgkonXb4SxGP0Hx7ItI6r0P3u4i9iOpj/ii6TpLnqYkMbHggApyF40vo+cnOlFeNuUARbUW/bgast8mqrV82mQIMimCPIMWEbJFVzTYzpP+NlYwvw1CsHxYqju+PhVBkXypJDGfJHbuPIvPJF1PJEokESdNPkgv8/QiOkCl9CZjN/P3yN/dSld9+UikZZ8aVUmMV5Gaf4rv7SCaeYnYF6JF6MdRm/J5HRKUxMjKO4X0jPqWSCvVR5DEniSx7d0gMZIkRtE77cuHselEidicRXDiSt5MSJSXKH1a5AuPUhGbwgkSsfmU9dNekljMH6m11ttIbEYSk0hi4RQh8SRatRrG64gIlr8RuhmJWrRGQ30i60P2X5nXVAtexwrJJ90uhHhPfQZCItfREs8qidGFol5CZI14fW8+t+STcRgyFED6nmbReYmK3aJI9OZzybXdmFc0s1hiZvYbSKOVJaTupyX2Ve9GSDRJD29FYiLCQ9eRRLHEcuRnVSEu/IBWJ5JEJ4e7TmK/WhJVxGZ6FQITVvJrkY5P0mItAl3ioqFo1XoYCsYLiedJ4g4VC9QGn0hvMG2AjTfrvASK7yKSWEwSm7eQ4iaIL1PCXJI3lOdokHUNYjFa8SjFtgbNilTUqF7eugEtDUErauuKXRHqQfQIUxBMsZ9LS5Qu/V1YnErRr8J2hDyXk84PPt1mqY7DWaVVKuym5zNJbFieR4pb+TMzb2M+crLeRGbuKSTR4Wni2dtaXWgDbCTS5M5iOIzFaTbzqEZh5djsh8k1XwXAnRy6310Sm5DEhFoSq0jiWYrvDfDwLIGHezadmjwF6cvSttt05I47RrFfhdS+29C0aV86PvnwovV5emTBYExFYxa5CfRQVQB8QgVad54CoxudCNYH3kwb8ZqN3XPofEhqXSdkfyNDDl8S70knx5POjgZu87gX7y/wVqCzYshnSSCptq8R1xu7c53w4nW0vNo9vUwDWJxupp6kJQ44RYtbqByyJu6Z6pxGdILcXZLRs9dDrBOpf/ucRmjiDriLw6SO02Hh9d34zE2bjUR21rvIyT6NlBTWic3G0HHjc4sDRHi7ZjJvPiLCNmoNw2nU3JQbURG7VG83oz0t0e4uW2J9EvNnsuKfIoNN3kJyn32UBnSvS/cR+xFPJFJSFFDIF0pX/zHvIbHP80jofRgJJQcRX7IXsUV7EFv6IrLGHKcUqULBhEqS/ToS8vZbsReJ+QJeszbVkMDtuFyen7NbpXF5Au7Lo2ufsw8x2XsRnb2H2I3oLCJzL2IymT9zN1MiYxdiCUllO1qOpe9CXBq3Uw4hMY+ygPIiu99pJGa+hrgkkQy8HmVDVNJueqPbKTteRxolRnKfU4grfgdhabsRyWPRCcyTuEshJukQxT7JyTpDB+dDJSkio3cgOprHovgcMcwXtQPJyW8jLeMEkjOP02rLEBG5B0bxcFksO999EkUnvsYXX4G8mRT7UytJ0hnV8Fs48zQKZvLr5f78GSSOAr9wMutNGU/BtGAaRTMh+zNnVCJT1qdeUL2/8wTSm01E+ngR6VdBCXcbzjHfeeSOrULO6ErV47sOvO+oc7XjLxTUYButVT93OMW2YOhpivozTCnoh51B9tBKCnkZh0GRPoDoRyFOnSiCX8ZfZPSnYB8g4zFExJ/l8bNI73OGmpQWpgbHSBiP6HMS6RT/6cUnkVkirfpnqEfPUoOeVvViZn4FvdCzrP8qkZZ3DslEKo+lZ1Psk8AkEfx0cMIj98LkXAz5y0Fnux5/Jol3NhZDBtR4OIb9WcrwZoa+FL1vIHM0LXAmf9D0C8iexhckXTCmkYhpTKfyZVEyZBNCXuHEKuQzzVPgC53ClzGFP4QCP5vWlzue5yjyeIyE54zlix9HkCQJtWVZU9lWx8aepWXzpY/iNawDZ+ogJPHYMCFKIyl7KPMJScOIIRJuIwaeRvYAvtCBJGeQ4DQJorVYB9EIaRlqnehXgbR+5YR1vfQUybKCQj+tmHVZcZl1kA2LV9aTGQXSFaMM6QXMn3+aRJaTyJNIy+F+Wpp01U/NpewgkrmeknscydnHkJJ1HDnMK/1OjUIi60R3B98fXHSdIq103N7ioQ8PNjoEnxOvsJFTHiKiNqju9Hmz+cWTyLwZ55E//SIKrJD1vBkXkUOC87iey9QG6R2XT+srmEJrIqk5EwW0qknMN+lTlap9k/ghSDpBiK4PIVpIJrFjaBEs1jNHS8oPg8iSzlICEpw9UsB1GdI2ktZPZNAaM0ho+hBa2RCSQmRaIX1vhFAhWIauZbFOlNFQKgRHqH41imgS3JfEkcxMWmAWkU0ys2l5uSxec4sqkF3IaxTxGkQm19MKhDTpa0PkayRnFNBy8/kRiFdKoZ+Ww+tnlyMv5xhCAtbCyZ5+g1MEBb//W253PAd5kx4Go2PAbvmHT5MuHk1MfRGetJI/ah9SSncRe4kD/DIPIJlpUl8NiawnpX5MYGpDEpHMfal9CHXOIaT2PoQU1pVa2Owwkkt4nRLmK9mvkFTM+pUebELRXoXEwj1IKpQ6knWwwpX1pa3OjFfgefl8ljzWw0RC7gHWoQdYb+5HTBbrQdaX8awT4zN2s44jWC8msF6MT9uD+HTW2+msX9NYvxKSxnB/TArrs+SdrCOZj0gkkpJ2IZn1YUriXiSzTkyO53Mk8LmZxsfyOrF7KEN2ITJ2B8Jjn0Nk3DaFiBim0dtYR25XdWRc5A4EdH+UTtZAuFB6uDtT67qE3meduvPOFg+H4AQWq194OcTSY6Kc0FOTuVATunDdLQ5urvFcj6fnpaVq3TnuGhgJk3M8PAhPlwR4OicpeAickq1pAsE8Nqj8zOeSqOClkAQv67me9BTrw4Mw1SKFSOX5aRqcUmG0wtNZkAYvpzp4OKUoGLnfoJAOdycNBsLIPEZ9Cgz6ZIL5CLmmp17Aa+jT4emowcMxg/vofQqcsvi7M+HG8934O92deT6fXaJDBv5GI+GpT2JJl8JzuS2t/vKXDvrQd7300T2tNNzZIpOymuyDJng4BVV50sTlP4Xd7PyIALjaBSu4WSH9bAx3BYHXAfVovXxav5462J7jatQ/R6Ba6uVPlwnpiSBwuwPYrqFgLyk1oH0dDLXg/XlcekDY7i8w2lHXcp/857HRIfwy973hqgsMsVJw9xYXXa9Ioz5glVHv96Gbvf8FN/vAqqthuGsIIPwagOyvyyf3dK2Hq5/HhvrnCIx2deu3cv6NUP/8OgQQfgo3en6jfZAN54z2IWdNjuGHSPRsoy6gi/W134slWC9/Seem8w3W6/wCr4bbXUX3BnBtvoae42o0dJ4NDeW/O+iu0PDzX/1bfIM8dKEBht9n/f9/ddHp/j/vMdJR8RQUGAAAAABJRU5ErkJggg==;" parent="1" vertex="1">
                    <mxGeometry x="310" y="50" width="74.34" height="100" as="geometry"/>
                </mxCell>
                <mxCell id="29" value="" style="shape=image;verticalLabelPosition=bottom;labelBackgroundColor=default;verticalAlign=top;aspect=fixed;imageAspect=0;image=data:image/png,iVBORw0KGgoAAAANSUhEUgAAAK0AAACkCAYAAADloK6LAAAAAXNSR0IArs4c6QAAAARnQU1BAACxjwv8YQUAAAAJcEhZcwAAFxEAABcRAcom8z8AAEU+SURBVHhe7X0JWFvXmXYy02ZmukyXdJ22mekyXZLGdrywGSQQmxbEDga8sgmwjZ3NsUHC8gKSwHbaNO1kaTtt0mWadLol/dskbZK2SZPJnji2MUiA1ySOE4PYQaDzf++596IrcQEBAsuOvuf5nitd3VX3ve95z3e+c84VEQvevO13/FOfy/K9oa79bLBjPxs6+Qs2ePL3IwNdD9w30O6IYU9a3yduGrGIhYd522v/ye0yc9AOdOxlva5drL+jjvW56kZ6Oxpe73Na7iFQb+9tr7u297j1E+JuEYvYxTPOtE7L94a7Gjlo+5z7yPeyoc5GNnxyHzGvlfU6LUO9HeYX+1x7ftnTvq+kz3XgU+LuEYvY4pskD4a7mrg8IGCyfg7cfazfJbDvUGcTGz3VyEZO7WEDnQ3n3a7dv+lrt5acOnXTv4iHiVjEFs8gD8C0gjwgoIpMyxnXZRW+u/YSgAHivWzkZCMbPb2H1lne7XXtbug93vR18VARi1hwNtpUnTBsK8tk1o3/LK6alUnyQNK0/U6JbWlJ4AVY8b0PSxHMA8TAI6f2kf41D/c6G551tzcYxcNFLGLT21DjpnSPvfzIqL3i7TFbzRpx9axsWtCKy36AFUzLl5Lu3cOwj/cNbGc+3t9hyRAPGbGIKduQrSzNYy87zG7fxtihbWzEtunXfQfWzbqC5C8PlEHLlyJoBbngkxH9pIPHzmCdudXdHgFuxKYwMOyovfx1dmgrY80E2pZaNtZsGvLYK77X37LxM+JmQZlQEds9ET0QwEhyQARlH0kBiWk5y4r6tg9gFrcboO9jZyEX6o+72+sjUiFi/uZ1bCFJUOkDrIOW8IPb2JijapzcTJtdKWw9s8nlwWBH4wQoUekSXMaqWCqwsKRzx87QNh0WYtyIxo2YaF77dtWY3XREAGytD7BwfCfgjtrKXhm1Va4Sd5nRuDzgIS9JHgQCU2BYYQnwwqX10nbQuXs5cMfBuE5LW3+7NU08RcTeq8as1n/22CrvYQe3+DNsAHC9B2rYmL3qL8x+ywpx12nNB1rIAwmg/kw6waj4zFlY2k4OXDAusXXnPjZ6ei/rbbfez85ZPySeJmLvNWP33PP+MXvN9rHmqvPQr8wRwLJyb0HF7EY27th8HwF9RtD45EEjb1wAEAPByJecXel3UToogZb/Tj7URdt0WLp7Xbt34qUQTxWx95Kxxs3LxmyVh9nt25WBGugHSCY4Kt4aaSzdwBibVt8Ghrw4Y0o6FsAUWVWolIlLDmx8l5YSgK38N/j4mf0kExraBtr2Rounith7xdiDBf847jDt9ThM45xFlUA6yaFvt1LFzHRizF5dQoz7D+LhJpm/PFCQBhy0Eoil9Wgpky/F9QRgCeyDnWBlq7fXaW1ppxdDPF3E3gs2aq9Z4XFUvAr2VAboVE7AJWYes1c+5d2/9Yvi4SaZEPKSJcxwkMpAK4IQn6VK2ATTypYCA0vrhP1HTu1nbmdD66Bzf5x4uoi9F2zMUVpOFauR4FlW5rSPx24a9tqrm9k9Oz8iHtLPFBsXRGDKpQDAOxEC4yCWWFUOcH/WHToB0FrG+pzmWvF0Ebvczbuj7MMjtvJ7xptrxqeMGMzkB9DwsHnQ27y1kVlNHxAPPWHBMu3kpY9VfQ0NvqWQIUbLTpIIrob73Wd2XS2eMmKXs3ls5doxu+kU4q+KgAzWb7+JkS7uGm2qUYuHnrCpQCsv8jlQxc+CC+wrX8rZWb6957SN2La+a6DLGiOeMmKXq3mttf/qcVR9n7VUT25ImK0jfttcDX37e6+t4qviKbgpywMC3URaItgWLWUBlS4sOcBpH+4++eDbhiQCHbevw9LT27675sUXTe8XTxuxy9G8tvVXe+2bf8cOEmCbFYA4W6eK3Lijmo3aytHMO2HykJeQBA7QkRNzAngS+KaWB4FMi/182wLIo6fxffdDBPxIj4fL2XrsJR8bc1T+mh3cPn+m5U7HIH076ihrG7ZXZDEm5CcI8kBKmAEIATAZq0psytdLDCotpwh9YXuReZFMgyhCr6v+j30dTZ/mNxexy9OG7Os0HntZ2+xDXdM4z0+gipnD1OZ1VKXiPOyI9Spi2v+aFD3gYBXYk7MpQMiXEoCVgCx9p6XExLSdGPp6fNC5/wv85iJ2eRqytYhpedqhIgDn6hy4W5mnqeLHbKPQ24Fq998ZPiE0406wJAAnB6WsouUDciCAlYC8nw13IYmmobvf1biJ31zELk/zNm+2eOyV3pCDFk7HHHVUdY81b65njP1Dt9N86xjV8idAKwGQ+9RgVF5K+wosC5CjdWygizfx2iVZErHL0LyOGrPHUTm+IKCFt9zIPIdq3P1H99b3vLX3h4OnwbSNApNOgDRwKYFSXEqVLpF9heXkfYdw3I7d9NnaOFMuRMQuYVtw0Iru+e+bhwaebegbfMHCek8Q6E4BYALYJCD6syiWU7DrxFIO4n08XbGfKmtuV0MEtJezeZurLYsBWh5VaNzK83CHH7iRDT+8k/UeM7M+KtL7CGwAcv9EVCEAqBNMq6B3Zd8hDzjTtu9uWgx5wJj1ff0n6j870Fb/uYGT1n/zc1rX11H36YhMWQCDph13mEJfEZvK7eR7tzC2v4aN3bmVjd19I+v/6y1s8OU9rNe1m/WeaWT9nWhkIKDORucSoIcItIOde9lA+75FAW3fCbOmx1n/cH+H5Ylel+VPAf6k22n+HwLuEnHziIXKPDaTlipinYitKoJsIb2JvJEAbBN8+IFaNvyHOtb3Sj3rPUlARSsXZ2KAc2bwDp9oYm7n7jO9x/dli7e3YMY6dn7E7bLcO3zKyjxnEG7b4+djZ+l6Oy2eXlfDbtZlndNYERGbwnoO5X981Fb2W553EJLGhTk42Be+n3zPZmJg8h/fTH4LG3hpNxs4SqDsIiaGDu6ERJgM2AFXIxs5uZ/1tu95pK/j2/NqXPB67/gnd6fla+zIg1eJqybZhTbLUmLSo54zKCEsaEKe5OiA6XZaHn/nlfrPibtNsvOtOz789rFdX41o8FlYj7X840KLGAHmYoE20MHA+yAhNvPWNS/5yMO72NBfLGzgGOnfswRUVOZ44o2ob2k5egoAbni0v8s6q+7tcutprV/Zc2xH84Cr7pkLR3dsZ0w5j6HH1bCCpMHxEWJagDbQ+8jBuMTGf71wZOc14m5+1kqA7W432wa6dv+912mpw4iRpJOnTKSPmGjMWvyJMXvNw+xgTfiAVu42OABMTiw8/v2b2ejPd7Chp6gSJ+UwnKSi+ARGX0QzbsMv3Gdss05P7O7a/lECTjYB7qV+Z904O0v6uq3u3R6nmf4Uf+ACWMSkt/R3NPQT4CYBVvKhEwi/Wd7uaTMXi7tOmLfd+q9ul9lGxxj0vkkvXWfDMO3zXG+Heddbh+sizdDTmffAug96bKUt481Vo3POpV1MhwYm8HIG/vaNbOSntaz/2V1s9Mhe1tO16xxJhzXWabr9BNo7AE+7JYMA+2MCzZmR03vY4Aliz44GrlUJVOf7Ohq2Pikb9Lm3zfINAvP/8QHySAbIgSp3AiKD5u1pN/9WnsTDz+lqIMBahiSmHiSA897FLrOH2PkHF9rr1OzJiBae0jz28kSqjJ28KJWxuToYuIkADIeU+O421v/g5lO9T+2MF29rWgNbdrt2anrbzfcR8M4CNABYIAgB3N7WHe/0te7a5n2r6dN9Tst1xJ4PDnQ1jA8QKOXbEsuTVPGXC2DigRMNQwTGO7uPm7+IvIjuozvs/e07B/CCyLfFuYfohaGXhL6bO2jdd/pP1C8XLzlicvPur/3ymL3yb3ysg+m6jYet0zWTtPHuq37e+90brxNva1pDjJXY8naAFZUpASg+AMl9+AQtnfXv9jrNf3C3m5/HtgRahW2xbvJ6PmC0yzJKYP9Lb4flz+62+sGhLv9t5A6GHn9jH+lhs9fdYblJvOSIBdqovWz7mL1qOKTZXovlLbXI4fXQ510syKGaAFoC4J0AFECiBJ4JJ5AC3CjKh4PZXsEBcjA5fDodLDnOQ0tX3/GGZPGSIxZoQy2VXyaZQGx7EUNfc3FcK12zx17xnNex/Rvi7cxojBX8IzFnvdtp9gQDIjiKb2UNS5VCkgV9EyyrDOqp9/d3MDleJjROICQmXnLEAg0tSCQRtpO2HZpTj9yL5XStY46qkVGHaRcrKPhH8XaCMh5rdZlfElltnu4DqqBrZ8/GkgO00Ls9LvN9b756ywfFy42Ykg3t3wBt+xQfi/aS0LZg2VrmsVU+N+woD5plJUPeAGnGPyOe6gPN5MrUYjtCZaR9z/V17F4bidvOYGiV8Tgq8kcd5R1CJCHMgUvXOOoo84w2ld823eg2U1n/MQKty/KEP2jhs2FJOcixn3zfwO9KPnkbMD/p7ZP9TrNWvNSIzWSkD22sZTMvehXBEg6OBJ+DW9iovfyJ4eayr4mX7mcY6sl9bNfVZ4/f/InAZlLeQOCyFJFuPIMwkxw0ks++mJcDOFDnKjlt40IDBDS1eWI9dO8g6WzEgns7zBMhvFNHbvr4QGdDdH+nZWdPu6Wht71hUlf996x5m6q/OWY3PcYOhClw0QhCgCVZ8Fdv85aV4mVPsu4ucyKB8sG+DvPv3K76G930wKXWJnfnrujuwzcfGz1JoPILd8k/B1bQfL/5AC16B4p0LGXrAvaRPvuAPbX303HEvIZn3Z3WzJ72+s39neZfErgP93c2jNGL5iU2fg5xY36zEbviihH7putH7KWPsoNhBlxECw5sRbTg7wP2iinHxkUFxu203IUQEx+A2WXp7+tsaKeH/kCvc3dlz7HbfuRuvW08MHKgzK7CNhJzSuzY14GGAAJWO23fRkzZLrqTtkFiD/0mOPaj7Z2BLwEc54L7mFZyhNYQaiMJ8wb97vZQ5QzSASyM8Bv9PoIISGScB5lx4NrKHuNhsHAALgB7CIA1eajCWCNepqL1ueqS6cF3jfKGA6FlCs2uHKRO8yD95ukPAOzULoKWAxCfCWROM+s+fKPgr9SyCy9v8fkrW4X1r20n38bcx27j+/AEdYB84rgAqgBa/jJwUPuDF9eO8BeAGhguA4h7nZYXhrsss66EXtYG4JJufPSiSwVIgpYa0rBlh8ftlfv6Gys/K17iJMMMj8Sydw+c2O1FMSt/0Agngb1mbiAQwAQQCZrTwtzHd3EAcmC+tJldeKE6CK9iF16k5ctbmbt1Jz8GUinBvsLxA88nv4bpHfdA9zPmdjV8H70kxNuPGGykad03R22Vj/Bm3ovRYoaXhc5NcuWJ0QOl0eyeaYvDK7vb6nKpSD01u/hrQKWIWG9CAtCy+7WbBABKYAQQX6wRln4glTn/XXTZ+u7D2wm8dbx70WyBGuhC+qN5wN1RXybef8QkQ+VstKnyUW9LJdeUrCXI0cLn4zgH8nxbTIxemidHGjfNmDwy0lG3pKfd/AoSXYJpffJ3GduBoTupBn90B+sGsyqB8HkCMTFuN+RAgHM25iAXge63L9i3RmBd5ARzySHIgmAqaXIX8nbxYlkeHew0/7v4N0RMsuGm0ms99lIHVYKOYlomTIa3IOmMPDqwjY3Zq70ee2XbSNPGQ8SyS8XLmNLYWesH+lzmRnRzGVRMaAnOue483sB6Xid2lZh0AnD4XsX1Kn7vbSPGJHCjqPY5fSfN6z68g7a5hXW/Spo3ELz4/FINvRQ3U+WtXjinwrUE48jHJdAfIeBeL/4VEZMbiuZRR1UUYrljDtPr444qDjAeN+U5C3AFIE7r4r489rqNeR0YedF0bMRefmB0f2Ucs1qn7PYiN+Ss9jnNvxKTqic9XCUXKkBgNx/TQQ70HCbAPm/ygYzLASraX6GKVWsd32aQ5AeiE6goTXb0FdtP2xCgSGq4W8HYxMD8JRCYljuxNSpyXJZwxhWvyy+KMfW98MplZ8MF0vC3RGZrn8EISO8baNzAwYt5c73NVUPMUSMU5xjM7oA0oJ0IyAmn36X10KrYjnf1qWFjjophOlarx1bZMuqoiGm/Y3Yz1qAB4cJxczwB8BmewB0kcAUHaKFjrbz278+KYnHeuot0KJLE9/CE7b5Oywjt+2yP0/zDXmf9f/c6zT8Snb43/IjAdpgqguOjuBaMfIMxGY7exkHqd3zynqO3EOMK5xeux3ft/pLBB2wxCb0HI/d0RTpPBm9HrAVXeYl5x5pN1aO28h8SeNvG7JUuj63qJO+azkFMDh3MPwOoAHcNQlcjY/aqTtqufdRRft+ovbzG66iM896hndeEH+86d8XSQ30GSSeIFvgeuI9VeSWLA8AXYkKlC6ASgCqCipZcBrQibAaw8orPKAHzefTrGj5hvfbsi9YPQJogNgzH93NPWj800NYYRQxoJ318hCqGbOQ0YquQAQ1cXvgzron1HLmVdLQcoEougBb5CQNdu99yO803R6ajmof12Gs+NuqojhmgGv6QY1MqAfe7XseW/0f+0JijmrzqIa9j60PjjpqHx+3Vvx+2lVkHmzYlUCUr2mvbEtJh59HcSQ/374Ndu73+FTJ5kStjM9ceYrtbJzPg66Q5eZhMiPeSbnwOYO1z1X1TPNW0xvN22xqiaT87AfgowCbEh0kzc+DKzkeVOoTF5Gyq5OgxgWtxt1u+y9iDs8psi9gMxqybP+Q9UP0pb1PtJwO9j9YHq1Xnan0d5i3EiEOIyyo9fMGJaREzbbf4gRVgggYFuJCbILRM1f8CzaZzybyifa5yt5rjiHGf5DpUvCaBcX2s3v0y9K3AtkqlARyxZzQ20PrfEZtP2T09YpegEUA29bSbB5VBK2NZ0qlgVDl4LrxAGvZYHRXBvLkU7fwPdJ8wTznlVLDW49q1gor0vwjAJTlyfKfvvOK53cdupWtCJ0f/0kDuiM/SvZ3raa/j4/++pyx13boPFhRs/hBcrS74kLpgGqffsb24a1gbumgTK9410NXgmVwh89e2yBuYaOECcF5CpWsngVVkWKfl16GMgfa3W27o7bA8zqUCjwWTLJGBFhU1KiECrhkvnu8+0H2H9PogvQB7zh63fgKDVouHv7wtPa/outSMgu+kGop+lpqx5j5tVgl50ZSuyyr6abpxzfe0xrywH5+qv5OPANOK3AP/h+/vGLkRNfcLL4jhLYDmVQINgQlt+z1O83kCbaZ42JAZdC6x9xFeWSQwXnhJ1oDxfBW9NLf5hcACQQvnyeJO87tUovyWvh/oba9Tv3v0tusudOy85rId+C6rcH16UnrO+WRDAUvS5jJ9zjrytVN6Rt4GpkrN8sQn6q3a2vCtsWLsLEgDepDv+EsDPHT5d2EdklsmAENLRAv42AcuS2+Pq8Fy7kjoZzlnL5reTyXB/v6uhuGBzj30opC25bFg8RqO3DKhbadz3N8wSQVESUjDO6lUOdznNN/Fzlo/IZ7q8jJVirGQwPquIXc902WXMGLaaR2gVqVnsYRU4zP5+eVfEQ8TFtZLRSSGFXK3199IzHg3Ff1OzkR+D1kOWkiDPczdVucDrOhIL0RslZj6haGT1i+Jpwi59bbVJdC1nhjB2ArHSaJMXIew7HUKlbHAiligA7CQQGjOZecase5JDDUqniZ8LWdt5Wdvuin4FpH8/NpPxicbfrZaox8Hi2qzioP0EpZuLH5Bl73eb56w6Swrf9P12etn34crGOMNCsd2qHsO3/i/7tYdLxIIh1DbB2DRLh/4gP2cil93O4FWAiyBxk0MB505eHL3OBW9P+k5Zf24eKqQ2xBV7AiYfx4+ZfUi/4Duga4BsVsCLWls4SXzSQL/VrLJjjAY7zrkND820Gr9N/E04Wcmk+n9WVnr4uJTMn4bnZC2qzbIYjujYP01yfr8p5IN+SLLKgF0shty10FKvJKsyw+qnduYs06zOjnjuWhV2rOJ6dnbtWs2fFn8KSRGFZAPEcP+aOwk2HEPDwUF3xJm5cWwH2iP3SYUty7zeSpmC8TTLJi52y03uV3m4cGTUgRDBC1dj/vYDoVrntonQNtufqTvcBhOS/VgwYP/mJJZtFKjzdmvTst6Lc24hhEw3CmG/FsKgoh/qnV5K+OTMw7rCYRK4JzKAfAoVdpgoi73Nrww4uEUzZC3MZHY/KUkbQ6j62L0Yg0R2P+WkpFXXXtHaKa5P3vW+gGqiX+rv2v3+Mxg9UUN8B1Dhna/JGtS5aDdwUFLv7/Z09mQLp5mway3w1xO5xr0By2upYp07o2irpXLA3/2DXSxU+QLfcfDbDBnQ8HGFakZ+U1xSfrDKYYCr1RRSsssYnEa3YXUjDU3T8e4arX1fSkZhVYC3/hsWBaO7RMJhOnGNT/Uaqc+B2dYjf7lJF3OREUO+6YZi1hietY7iWk5LdqctTHBlgzTWW9HQwI9KOfsxy/Y7Z8HwEG7k0CLGKnlLarM6cVTLJj1uupNdC4C7V4CLVrkfKDtefUmYk9JEgjadqoGB8lR0hBze/pdlp1W6xUXv/t5gWnnR7QZxcaE1MznNbq8cbCrXI8KoFjDCMw96ZlrdkwFCHYFu5K2uwPsNxfQYrk6Sf9LQ0nNx8RD+pkxb8MSAuzzSTpEJPz1MvYXJEbOeFRCaqsqLaslI3t97HzA++5Ry3VUaXpNGoHQ3yV2DVxP7iTQIvPqooPWPDhEoHXPCFqFewhwNPFCk9NxDzz44OwGLwmplZXt+DDpT0Nsou5HqtSs07ps4eErAU5aTwzcTcC4taBgslQoKDBdE52Q+jAArnSM6RzbpxOjr9YYzumy1uVdcUVAk6Za/b5Ydfpe0q9j00kPHAclA4GW0QvYqknLttbU7FJ8CWayC1QUEmgPK4MWLi9OfcUrJhjpOezfEiZo2vAALeQBdLcyqxLr0sso76IOeYTYsjiOw8UBrZoAQA9Xl6IvuI+Y6yxp1wlQKgFBcn32WpZqLGQafV6PLqvotowM0zWpOes+lZJScE1aZuFaXWbJQ1RsDwO0SvvP5OI1eLVZRU+kG4sa8ULp9QWfMRg2fC41o2CbRpf7djBaGccBE+MloMrdgDo182dpWcXZarUww2OwNjNoJQ8sXsWK2ARoq1jv0V0iaM2kac1p4ikWzHqddZV0bUFqWuVSA7FaaRh98rfIz/Y6zfUXZXSazLx10XHJhqOo4afTQ0axqvTwlVxHwAUoElKNPSQDnkjR5f0xOiH9CWLrd7F+NsdScg7cnBKWmlGIitnJVH3+I7qs4j/Rb+/O9tjS9STr81hMovbv2ev9p92fyS607cSYXMeQ/O3rEh74gH0MO+FU2+6hihcHicS0rbfxBO7+TksPbV+NgerE0yyI9TrrK9xOEbT8BQJo6SV6qYb1ttVPvuaA73ygEQyh5LL8la75TrerwYCeyENdO/9DPMXiWvaa8m8QIJ6mon6SNgzWsR8xLrGZqH8JIErbzc0F1ofj2HB8Vt52etfx+yth8ckZP1q3bnaDrr17rO6b9AD/PtjV0IvwEZJR0HvAl0uLohQMGwjaBuZu2+UHWsRKEd/FMYit/jCf+RtmMowITue6d6CrYay/w0zMuo1fgy9Oq1zZkpznRbgsb/e2m2sudJr/nR3ZHPKWuzlZki6vcS7aU+4SsJR+Cxun60tIyRhJyyq5Rbz1oA2J1/1UlPccN68Rcl0tT9FDdZFkGPfPpZVcBC8HbR0HiBy4aBEbJtDSC3Ck32ldsJG43W0WPbHk6dEz+4jh64WOkvw6BLmCFrFJ1yxzyCFi6afefd0cXrOua3PW5seotW8pPujLyMHSUfGpzyUZ8+Y1zA90HFqaCLglBNrTYNzAhy3IBgEESAH0FcsCcCERxHzXMQLFXvHQITXvmwc+SEz+o6GTskwvSVsTaHuIdX3yRiop/CMIAmjNT3e3XiQpMJXp9Rs/k5ie82jYM+U8HPem0eVBGjyRmVkWkuZHd6vla8RULwTOazDJ0XzKs7ykChBSA7dyaYG4L4H/aDdpRPGwITHU6t3tlnUEuDf5S+UMSI2kJfJsURIoXjO50PrFQf3QQOuO8GqyzSg2fUKjzX9YlZopaFKFh36pOyphcRqDhyqN904V+52tsSet76MHaqWHOxI4XtdkJz3p19mQmI4qaH2dViF85DS/0u1sSBIPPW8bwBxk7fXH+NgMxLLdR+RhtypRV+Nlmxq0Qlqipdvdbi4VDxs+hhTA+FTjbXEafd98a/zh6ngZNdrcN9XJ2RnibYfE3M76DeQDvvREpRYlWtchpgbK2fbVWhS9vD8Xwknu9oYHBjuUJ7GbjQ06zV+gl+Bb/Z0NHt5zAQk78gYOdHBER0q/XFrB5bIGSeD9HQ2DPW31ze+01/6rePjwsRRtYUyKPt91OUoE3FNKRgFLTMs+nZlbphJvOSTW267EtHjoAQyGYvi4RRgVRqwEAcA8GZx+B7iI1Xr6nJZf97nmNnEHstH6ju+iimL9YwhxIayGQTq65cnfWJI0QX81/xdLcv/rhh4m+TJIFUYbIhHiqcLDCkuqVscnG7rU2uzLUiIg3ptmLHpDl7MuqP5OaPI1mUwfEL9OMsRW6UGWki49NdWAyZOciml3K1WGJmrwIuOKXV/A1mNgXKf5MAFl+5Bz11eCmUkHvXH72yxLe1wNu6mCd9JzsoENEGDdAOzLMh0rng8huMksO5l1JYd8IdbmwO3usn5UPO3FtfzS2k8mped+b3VyxjBaji5HtsWLmKjNHlWlGv87Z+1axdEQCzZu/ow+e/030vR5cXFJ+oMJKRnfMRRv+k/x5wk7csR6VXe7uZzY7E3lrjYSW6FG7ituuTsbiF3FgebkwAXjcqkgjB5D7D2EUFOfq/5GTI3f22X9OhLQ/fx43dd7XPUre4jt6Rwv93VaPDzlkY4hSIKA8cHA7K9LLWDStUo+NWjhAG6fyzzS02a2LNgYCFrt2n9duTrVqNHmrcssKo0GcxQozMyyfv2Wq5O0OXeu1uhH8XAv5wgCXkiqiI3rM4u+b8jfgKz7K8GmGcWlalVadlm8xvi/uqziV1WpWcejE9NZXJKBXuLi7YH/22BXQywV5S5MHjf5AfunJgYWt1JtnY+9Fci40LhijZ4PecSjEuYBYt7XiOVepuUr/l7/Mq0/Su7Btrz7DgEf4TS/JB3x+Kh8CecPuKZJPhnAXL607hh3H9+1f0FGmsnauP2j6rTMpihV2rnUjMK+2ETt4cT0rDu12WsPpugLClMy1l+Ts/bGz+YWm77OAZt8+QNWcnT70ehyPYna3N8R+9roZb13tSajQ6PP60feBRgZXX5QIUXz8eok3d8MuSV+3WH6nOZEepBnxs7ypJcgXB4DJTATcMB2QuuUP3A5eDFIMgEPPQ0ARACS+ykh0sCX0jpy6GmpZc43qowCYAFWcTv4pFJgwgNAS/t4TjXghXqp79S+hRmAzpC3vjI+OWMQIMRDQCUkPauIZzxFq9LfpIf2ZFJ6zp9VaVn/B4ZFzsFCAxYJNgIgZvaFvhYwLgCZmJ5N/8ka/lnqcCnfDt9TDPkjSenZ3zKUlEyEyd5885YP9jjr66gId/uiBoEeCAZ8lwFG1JQcuJxx/YtxLPlAdBhkGRqU9CnXoXCkBRKj4gWADODMiuE/FdgVx+5GpGDiOuQeCODA3wXnoa/jO8/QdWxckAQZpAQSGP+EhyE9BIBgwkVQJKRmsvgUI3+AoQaJ3/nIcR0ASHxKBkugc07n9LLxPAYJvJIrnWeurhPzGfjnaY6P9Ey80Oq0bHdG7vo14l/MDbPZkJb8LZgOQXgfmwpAmJrFZA7WI43LW8umGp9WWr60hbdooZECS0gJzqrybeX7Q78SkDFuWOB1TAfQQEdL2kCnhY5z652M3bMA8y4wdiVpMxPirTM9aIBCAnWoXGJTvAjIZQBIV8WnIEOLLYtRsyVR8eQJ0/r1q+LZ8rgkdOvh+3I2FNMbQ329wTjOie7v9JL/Kr+09JPiPw27sqe9roQe7AUhtxTMB3BMBqo/SAK3EZgT+QkYrogzLpg2EMAiEH0eAFL5NrSUIhKYTGTyNdE5/b4LzodCIlaFS3ID9+Z2WToGT1lDGiqcsKw1m74Ql6T7E9LvFvsB4yVBLwKAbFVCKgfp0mgVB+LS6AT+PVjn+9E+2FdaF5Oo5c2wuK+ZXshQO1IwY9Tp7yTpcjZYZRPgkS79VG+7+QF6yF5BVwpFKR40b56V6UfBCUQEGMX4KG0LnYteDdCffKRvyAYlYE5yH9B7XruRSwrhuDOB1fcdXWiE6+UVv0HcDzQ7wnnudvOd5xYiuyuDasGkvero4fYvFmCFolUAkZrA6gOpyg+EoXB+XFqiVg/5IJx7ccCL86BekJpR0JaRvd5vMjiMbNjjND87/uY+XilyOy0YGvOY21V/aoAXrcqsNpUDuGjaRYwVHSB50jaAibwBJX9xM9ey2JYPxNyBl2Wq4l8ZtAAmvXBet8v8QH+HpazHZa6ie/jVQGdDJ4H4me5Wc6J4u6E1Y96mLFWq8e3UeaYYBuv8HCQD0At2ZXwyB9ZMYL0hNnEGT+JLpX0ll9g3Wp3GZchivKBS16P4VCNL1uf/l3zsBwwNhCRrergP97ssPyVdW4BJnPvaG1L7XJY/oqaP5tBA0ED7CrIhgHElB+tx9qV92uk7Vbh4ZczPibnbSFO303H49kovCM6ttB5u5iUDvVhe+n4/hjoSb+sKjGlAL05Mf1v9MoymI64OnW1EiCs9+2fzSeSejUsvRbQqfVpmnQAiaVR8pu3OL4tWn1karX5DyZdFq84Qm7qF7acGsMToUSRD0P9rsV5SVG5jk/Rdqbp8jfjXc0Pc0n1m19Wsw/ERcRU3sDDGB+Bt+J0SSCUASy6tl68LcBHAU7rCPsJLIYDVd3z/yiJKAbqu0V6n5ccDpxZ5tBiNLjc7NlH71mI8PLwUiDosj9NMD1YCHn32kr9G2/2F/OdLY1SFy6OSNATOVCVfHpWgWRqdZFoapX4I+y2LUY1JwJeOLXdoZYAXEQfhZV3Y+0fsVp2WNb46OePerKyNQTVn8kHgXOYjU3c9B4Ak4MkBKF8frAezv7Ae+hUtbyQD/tzdal3cXNkVq1PiifFeFAZ3W1iWFQCbMTW7EsBQ86fPY8Sch5fEJO6/PkazPCpK/fkVK9RBD1a2JDb1U8tpP2LlXQTcH5F3LYuZOPYkx/WsTjbw6MVCvrjQ74jpUmX3j0ZjUVCjq6ArzeSp8yXwgAkleSBnXKUKG5b4rgREwZWZXHL/fQXQ7ibQ1v/c++rsuh7N25bHp1Quj00aw8NayAcmB6wScMSi3EvF+6s3RKn2XR+dtIJsvnG9K5csSf0gHTdlaXTiXbTs5OcRzuXneIlWJaTwjosL9fKmZqxBt/YubWZhkdVqfZ94jdMakqepcva4MmjhU2hamfvAKHkgQKVloMvXC1JB7sNCs+9J0uIL3o3dz74Zrfl0YlrW7fRnjuCPXQjgTgBWKXQlFd/ErBysMQnLr1DIcZivAbz0wpC0UD8uaeTAa0GMNy5Jz683lP+DdP/JuvwT2sziIvGSZjRU0vo6zCkEEBcHSABoBAew5IBSYlMlUPrW+RgaLh1L0q+TwSo5HynGafa6O8w3i5e8eGYy7fxIsjbnYJxGP4LOe6FkGhwLLVUArJIk4EV2tPrpZbFJcRhDQbykBbMlsck3kP79PZ2bV9gCr2dJlApsGLL/AMdB48JqjY4AWxg0YGFIGSRwHEKCN+YC8wFGLgUIfAQuVNT4yNs8A0sA5PTF/RQOoFLRjzirL2ohOJccvHJGgO4Qp1tCa5fTMuuOniGx8vKbPp6ozbaStntN6Mo9/x4IElutXJ2syLIADQH570uiE6PFy1gUu25lwheWR6srSet2oEIYeF2Sxg28n9m6ANh8RmTQpcta49eMG4xhVpju9voyAsxL6EWA8Jcw+QZA5AMUwAWQEXi8QuOEkJ7Y7xfCAnNaCXhyIPo+A/TYR3YOhLH4emkbYXtMSiI0gBBwh90uy5P9XQ068ZIX3+655573xycZVmi02b/X6HK986lNS4BFE2wgw6JoFhhW9fTSFQlR4ukX3ZauUhXS9XQqVdAAXIwjNlfGxf2jBS42SdeeNgfASobc0z6X5XoCnYWA8xIBZURoLROAxD93NowSeH5B3xvc7ZbH+zsa3qbP7+B3jJuF5WT3sbUI0jG3y3yelm/RMX7b46w3UwWwmV6EE6hwYdAQABiMT8fvp/V/dbfVb+tpN395oQcLCcoyctYuT9LmvKL0MIJ1PLQYtRCH9QPEBGDVTy+NuXiAlWxZlDqfrssVKBXwokWpUifyFmbrCG+Rjh1Rp2eFpHs3sqME8DbspuV5SAY0kxJ4x7udlrvPdd3KB+xwH7X8J4HJQODL7XGaf0m/jyEnQADqZBfTEjGZx10DHfVG9/F63Tuv3fZ5HMvbuuPDfS7z9wBUz6ndJAfA1JaOPqe5FmDFNmFj5eXlH0/S5j68OmVu2g6ARS0cjCpnWYlhl8ao/7ZspWqVeLqLbktjkgqJ9c8EVs54xUyj5wBUus+ZnP47rza76Df6goKQjQBD4L3K3WbeSMz7CLHs2+72+nvf6qhTDJ/1dpjjqXbfMXWMV0hooWP9H8Au7uZn51t3fI1+/91A285z7rZdvySGDfmEJCGx7Oz1VycbCn+PAeKkYn42DqDHJmonsSwHRTQBNjZ8AAuLiYn5F9K39wbKBLxwiGzMtaUQ+ySkZrpTjWvK0WlQPF1IbLDDek2vsy777WP1il1/YHz2HJe5lQ+fJIJUXjkj1mSes/swSs1f3nll6hatt107/vMCgbX3jTp5llp4mdZYGBOtSn9dGLtK+YFM5QjQo/Ihf/hwgcVUb94QozKKpwkruyFas4TY9nEltkU0YS4vL/ZB8nx6VvHt4mkW1TARB0mEhyAjpMyx4ZPikor8ESryB51IEq+760LHTr8m5EvO0jOLLEhk0Sk8iOkcDwmONMBAWSCC9v4vrUgJ2z+Hrq+ErrtHrm+l+5jLWGX8/6AXPy2z6AfG1Pwv5udXfc765JMLHtaTW4/LUkLAbSNde4Yqa6eQPSYsLaf6nHVne16/8cW+1h0hG+TjollMQnqj0IVkdkyLh4SiVP6w4Shil8ao3gpXlpUMDS1Lo9W/DayUIVwXm6ibNWjh+A812pw3k9Jz/kL1hMdWJxvq0g2FKfrcDSrEx8VTL5j1nNz1sd42s6rbZdagb5qfu6yawa69sZidXNz80rS1FbWfj0pI/eNcmjMhDZQiBmBZAvH9UVFR4TfKSIAti0kqIcZ9Ry4TAFqE7uaia+GccclVaZmI/w7RurMaXW7XyrjkH6xO0u8iNq6I1+aHr14MV9u82fqhNEPh0mR9/g7yXvRtCvzzZ3L0nUI3Fzlo+cOnmvmSWHVIhxNaKFu+POnLVFl8zk8ixAilRqI2e05sKzlAj9HHEY1AmiIBF1lfXmLh1ozCTWFVOQ1LKygouArdazJy15doqXYbrdLeqdHlvZ6Ynn1OYJTZPRzsgy7UgSzLQ1zR6udviFGH1eyJU9mXUlI+QiD9r2WxiR75faBClpBqnDPbBjrAL3U1TzMWudIMGy56zDqsLZk0FSZJjkvSPRKtTu8hKTCoTsv2IpN/HjHJSaAVi9hhkga2mJj8oGdqvNi2fJUqh9j2glwiQKOjsQFN3PNh20DH/5aeWdymzVgbYdqpLGvNxv9ITM95AhUt/GnCkt56Aut8iz50SgwELT1s97JY9YLPKhhKWxa1eimB9sVA0NILzrvoKN3/XD0C2iAsJ6d0KcmAY8S0/A8LBWvgGHiY6HeFhzsBWujCaNW5S0XPyuzKG2JUdunFk+4HPpd5zabzCGiDsKysTdfHJmkPh3IAZDxEMLYcsOgpID7wXyyL115yNWO6/t24jwhow8CWx6iu/+aq+MPosh1q0MofrvCwSR5EqeziqS8po8rjHt99yEFbEAHtYttig5bkQYvSaIvhbkqgRUmyOlmv+B/M1SOgDcIioA3OpgJtfAiSw+UeAW0QdkN0/BIC7esR0E5vU8kD1AUi8mCRLUalu57+/COLBtqoBId8/Kr5WH9j5Wc9tnLtcHNphqe5XD+VD9vLjaM2Uyybx8syFWjn2yoW6KEALaP/19u0bYnXfqPRa99q8DZv00/jGV7HlvTepkuo2RijycQl6e5OSMvyzLUhIdAl0PqFu3xM+52CawsmzTI+Fxuxla0nP+mxl50fsZWem8pH6fdRW1n7iKOinM1xluupNe385IE0TKjkGXnrmTazuEufuW7O/eS8h276FwJiC3PU9Hiba94et285R+BV9uat5z32yhNDjRs3ibtfGharTi9OTM9xhxK0SN0LTKJGnHZpjPooetqKp56XDdnKNnsc5YwdqmKspWJ6P2Rio46yNwjEpWAi8RBBG71wiiEvxLdxv0r/w0yOZlsMTI3B6PB9dXKGJyEl44g2e+3P0jKKvy6eetaGBHMCpGbMVvkqO7SVsQO19B/QsmWL4Afg4roD2+i/2cLoxX961FZ56UgSkgbFKYaC3mCmjg/WUcwpNuNGq3uXRMfPquv0VDbqqIwjFj0MQI4ReOnztM5uJ+DS9iNN5UvEQwRtdP2NE/cg3g98LnFaYfsidEEaUqdlD6xSpXSqU7PuSzeuqdek5yxPySz6t1Do/hFHeemYvXqAHaxl4/YaxhwEUnJ89jpq+JKvbwaIaxiB/CmvvWqpuHt42w2xSevpLR8C0OQ+VwaBTw1aVfeS6IQ88dTzMgxeMdxYqhu2lR5hBytFcMrB6w/k8eZyAnfZKLHtd7y29VeLh5nRlkXFX0sv2zOBgMX3uYI2zVh4NiHZ2GDIWbchs3B9SmZm2YdDpfUlg+Yfd5juG2s2cYb1ioAVQLtZdAHArAXMu5mN2EttwUzbdNEtOlEfvTI++UHSZ92kRcdIKngxltd8E2ZQs0Y2lB9oY1RDVNRav6LVhmwaHo9jUzrJhKPsQAUbs1dSUVchOoBcKn4WAAypQNsO08M51G0NbtC3G6KTMgMTZvAyYpSY2QIW/wtyMui/eW3N+ppviKdYMBt0mK4Zbtr08/Hm6nHWvG0CrGBc0r0TrMvXkWwYba48OWav2UASalF7VMzJjEXln9Znry1WpRhvWRWffCA2UXdUo8s7naTN6Z4L42IfVMYwMIe8QiakJqqepWVIuxwPN5XvhkQAKDmzOuDErHaTH2g5cA+a2EhT2Tue5soZe5J+LS7uw1Q6fGtZbOKIdA8SaOeSmshfZiqBiCD+nqswp9hCGN2zymM3nWCHtnOgCtKgigOVsyytg/PPh7bhZT8zbC/NEXe/NMxqffCqnMLKVdqM9eoUff7u+OSMfnROnC14qeib1AsXbEU18ZNLoxLSxNOFxLy28q/Qw/kVSQDvuK2cDd5dwQZ/QGBtLBcB6wPtGLm3uYKN2Mr+5G2ZXt9GRSV8ES9ZYJcbugemThemXFK696kc9QZi2iH0UDCZTAswUcZk895R+0/08u7wOEw9kACcWe1YAqxg3M2ibKB1zcS4B7fQS13+v71WU9AjU4aVravY+sVoVdrjc+1uM6nnAhzAjVJ9H4PAiacJiQ21bPgyAfEPXAI0l5EMEHTuGC09BGSAF6wLyQB9yw5UQsM9CsCLh5hkN0Qn5pGkectPGojdbeZUAuE/zCzpm83Ac6EwZi/52Kit9H/ZIQJls1Ax85MGMr2LqMJYc/XAuN1kY9app0YNa4tOSGuSUheVHsRUjocKsAvMJI/Z8o6Np5fEJqSLpwiZUSWrmCpmvaiYCQAVWHb4W4Jc8JMJkBKOMs+wbdOt4u5+tmpV8tWkZR9Q6tiIHsazBS2XTMZCFq8xnDTmbwpqTt1QmsdWmUaMS5VWKYrgD1ZBNgjr2KFaNmor6xokaSHufmlZWkaRFeNQzeUhwZEs7Q9aKU0x8d5rr1WHdJaTCw7TRzy2sr0eR1kfFf0ETqFyNnA/AZQqamBcMK0PuJyNXSP28oLAFjOwLF33O379w8T7gF6f/f8hDqKs0f9w3bpFHnhYNHpB9fSitrEDgiyQKmMSWIV1ordUQ/v/0dtU/U1x90vHUjMLVSRBj2HYz1n3FaMHhdlj5KCFCw0PqtNUyQk543gPrPvgkK302x4H6VuSAQCnp4lcrJDBIRmEyIJQMaOi0zVkr5iY++Drq+K/Stf2sFwWwCF1MGbtbAELl15iQ/Zah3iaRTer9Yp/oIqWnREg0cDgiyBA11bTUvjs5TJhG48o0Ev/G29j5ZQj14SlYT4A+tN/P1t5IDkeVGyicldyAsYfl65Kuk48Vchs1LExhsDaioYHYl0CKW9YmACt4EKkgetbHnUov5dZC65C/Dc2PvFOPkK4DLTCi5fIqHI6a6kE56Cl/Wj/P6Rk5CUHO/p3qG14X/XXAETSrV7oWyGi4GNdn86litpBRBPK3EP2TWXi7peGGTLXFKjSMk/OhV3g2A/do30P3gda3rS7AMBFU+1wU2k+VcxcE2EwMCtnWJF9eRxX+IxowrijzE1Ly+aczPyVcYnOZQETiiDmHJukI8DOveUQYE/W54/FaXQn0oyFtSbTQky1ObN5D5V/ZcS26U+8SbfZx7Y+F3TuOMCL+K29vN1jr87DCy0eInxNn12Su1qjb0cRr/QQgnUAFzXuQLYFk4nD1T9yfYwq5DNSD9nKqgmU/Ry4jWVc2458i3SuTYgsCOAVgIvGCU9zVf+ekvw3vr4KI5X7rhMv28r4FK5Jle5vNs5zDoxrIDPeSdMX1l4sxh2xV5d57KZ+qZl3nDMs4rbyhgdaAri3b2XDtrIjI82blou7h6dpM9fmE7N0EDPMqTiUO0CLFjZMGRqobyXGJY376JKV6pCK/sH9m75AgHwY4a1xRzkbaUYUQQCroGt9SwG41ayXHtIaYxb70grfC4aXbS5hv6kcx8HEgsS457XEuDfl+ybAWyxj1o0f9TiqHOOOymE040pAhUtRBYl5oW89zZWeEXvpAdQZxEOEl2kzi/LjAFjD/AEruQTcFXGaScPXy4EbasYdsVdeTzLhES9yD4hV0UomgVSSB75lKQG3ih221DBNqoF9dUU8W0qAhSxQuqf5OP4PMG6UKvXdWLV+vXi5i2okoa6lSuhLYFIwLXPIY7jQulILGmQCby3rG7dX7vFa14bPkFZqKqrSjQWFqzUZIWHYQMfxMLnc9VG+nIQJJ+DyZt4o9WNLV6mXiZcUEvM0lyXTwzktJNZImpYAbCMAN/kqatISGWF/u2UDuy5KzVaqtYxkEgeZ0j3Nx3HMmCQt0hNtoR6zNhiDRh1zVBV6bJUdaAljnFl9FTNJ305UztDMazN1Q9+Kh7j4lllW9uHE9KwfxqdkMkPuesU/er6OBxWnMUzWt+ScccmXRaueJb/l+pVJXxMvbV6GIo1qwTZvS3nfOEkE3krWWM4G7y1nQ3ehuVdiXsEhJVhLFfvJ5mKmMRaxtFmG+oJx/A+I3SamZb2szSj2m9h5sY2K/Q3Eou8ifiuEvgRZ4GNaEbTNQl4u1Qke8rbUhseQ9UiPSzeW5Gp0eeeEP3WBHhYxLoaCVwKuBF5ajlJl6O8A7zdXqOecFC0Ze/LgJ7wtW37DDiD/VmxouJ0qaId8kmGCcek7o23GmqvZLevXsXhDaEeSgeN/SEjNPJ9qyF/UJl0lYwdNn6B7/iVnWx4G85cHHLCidEAzr7e5ij5X3uGtrQ1Ztt68DF1wkrTZd8cnG0a12cp/eCgcD221CNzAypkEXKERInGIwPvMkij1rWBeNK8i+0q83GltSWrqB7E9Rj9M06RtNeVkvNyxp5JXuDg4EUWw+VrIAh0tZm/sK2PFBSUsiRhX6T7m4oggYKDqKHXar4pNN4dFYor3UNXSUXvFY94WAqaUnyACVq5zAV4eBrOVdg47Si/e9EuBtn79tmuiVGl/mkt212wcWhH9rABQJeBK4BWbUkeQjE0AfmhJtOruG2LUWkwwsjxKHRPoWE8MnbokWv1dbL8sSvXU9VEJQ1+kilVllp6NEqMCkFQsCtpWYljSuJAKvsYIAi6xysvmMmbMgVRQvo/ZOC9pSBZQveFCsi5/ztMzLYQN8EaZ8lZfGqOoaZEBJv8O5j24GSXSa15HtW4+nUZDaimGgsqEtMy++QTTg3E8RNSiEQ5bwito04A3VpgGX2ipUp1eGqNuJ7C7JjmtJ4CfRAuWtA9/Meg4/3HDarZzTQ4baiE2aUbFTGRaWxkb+RZp3LtJOsiafXme7oEa9v2aDSQTillapvJ9BOsALPqFJRsKflWcEV7pf0hj9Niq9o83Vw/yMBjkAA9/CTqXywPOtqRtm+nzt0nfOkjfHqj+lHiIi2tZm2q+kKTPfQzxyYVkWziOn07ARRcdSIKptK7cJQb2gVLmfL2vCVbuxNLsK9Ea9pttmzhbjEvxWpIKI6RxecVsArQVnI3RYsYc1cy8af28ZAKiJ4jKxCZqj9P3xZ34OEjz2rZcPWwr+wlrMdF9+7eW+cmEg1uJaSvOjdoqNwPs4u4X3wxZxekxqrSjc52OaTaO44PV0fqGsV/BimBeYk5F8M3Hr10Zz2ISNOy5XQTGg9C3YFuqmBHbjjaW+uQCLYUWs1Jilmp2vrGSlRaVTFsxAzDhSv8X1sVpDEPqZGOt+BeHpUGr0n2fYbdv58wqgFZakjSgypjHUXGe/rOasOyao041NmASZqWYLYq6UIMZx4NjABGqXbOV8ckTlTXJlYA4lcv3kxxNyqtSstjagmJ2ei8ynqpEfVuB4o4DlgO4Sb4ODQ/V7OnbSnnX72QFfYvrRt+41ckZvCEF/w+y47Ae/x/WqdOy/5ZbUvol8e8NS0Pi0FhzdZnHQcBFNhhnV5FhEfY6CAY2/Y/XWhue82YY88u/kpSe/WvSnV4JoOjwiM8YNRAJ4ijWwZLS76FwibHwoNGvasVqDW//h0P3goUBZh+ghc/+Hs9lwqqEFL4/joPrxTENdOwYfRG73bSJjTZTpYK0q1D5QqMDpEI5z1OQej2AidGiBuDeXwvgFmNOMH6tuG84Gk4SUo0vJ2mzH0nWFzwarUp3SpVZ6FhMNarPKdkm/rVhbeiVS/+HZcxRNc7HS0DIiyQSuuxQCfSit7k6Qdw0PC3ZsCYxTqM/JbFtfIpxPEWffyFanfa3ZF2eXZdV0pKozTkmPUAJeKFwCRDy75gZBnFeTEQHoADISDZHJALrJEfua5IuZ2J/6VjSd4BOTRr1J7XQt9UETiHUhQjC0F0E2nuqJhoeJMngJXCP04PbU7aOg146HnrnqlMzH8wrKl9SVLTt0+k5az+bkrEmmZh2X5Iu79dxSbp3NLr8P2mzN4TXPLLT2Iij4roxu+lpPuhH8zb6j7ZRiVQ2gkQkcZPwNZPJ9IEVsckWYo4XiF1fjEs0HEjLKM7LLTZ9HQ0SBVbrVcQwewAgOSgWypFcLjExWF/KvpLWyX2ma0Exn0LAfXpnGQcuby1DJYwqY2jildh31L5JWE+OSsqbeyvZusISlpBRxFaTfFKlGH+pVOxbr7jiHzAfriF/Q442uzj+UhuAz9tiiiXp9AwPcRHTemyVP/E2bphyGtKwMkzukZSU+TUM2XPToUOTspIKCkzXqFOz74tPNowvNGgDfT7nw0yUAN6WtWvZW/up+BPDYBJAuVwQgSzlLQj6toY9V1/JDMbcsaQ04y/z8yu+KP4Vl52N2crXjNjLR0Zspb/3Hqz5grj68rCisi3/Rvr2x8S4E/r3UnFEBMyb1lHxXy2GwaSWMlHrHhBDY2JEYQyMe2gze2rXpp67Npfmi3/BZWneb2/7NL20d3iay8Jz1vH5Wk5OxedT9Hn3ERBGA4ERzp5OFas4/Rp2/1aSCaThMLgd2FXKSxj4aQUbafGBWIrfepsrB0dtVXWXxKgs8zBvc9mHmXXjP4tfLz/LyF4fr8OQlaQplQASjo6SQa0vYEZjLnuein0U/4IkkBhXkgwimCfCYJUE7LKX+prKLr1eqxETDHmh8RpDPmnbt0I1fOhiOSazW63NZ2upgvUWVbSELuY+gAogFthWqJyhIYI+O8qQ1X9X2DRnRmx2RhWyj6ToC37Kp9u/xHQtHNccqy9i9dC3Lch0EtjWr0JmE5p5JakgjmrjGXGUfwdjL4h/RcQuFUvWrflqfIrxmYVOtFkoB2iTMwp5Q8RPawHIKgIudK0IXgLxyCFBIviiCQiXVWJ8sHPDttJLbXK/iKUZi2qjVOmYEl4RFJeKJxnWsBSqnD17GwAJfUvsisTxgxVs4CdgWyFfQZIMGF8BFTMC7V9Hm00rxb8jYuFv7Mp0Y5E9VhPa+bUW2pVkDOK3SUZB575QR/r2oBDq4t4k6VyEvoRQGFxIY0SebvmfvS2Vl0zL13vdrkzPLipcrTH8H9ra0UwabAQBwPG1ZC2OtBByKIQxtpSuE8BdbShi29atYxea0PAgSATOrFwaoJUMOleoqGG9VxgcZHjYUXbzJTGqdsR4k+/7M/NLr1WlZt6fpMvrlrqhT1cpw28pBByNPn84LaPwHIF+HF19pMQcyZX2Dd59x+EApSWanZP1eW8npWe/TRXHcWRvKZ0HLWb7yzaQvkUyNMJeArsKbCuxrO+zOLDdSWFikss4tnm5GUYX12av3UgAfDhGnd7DhwsFCBV6tgKcBPB3kvT5lmRdXsZqjfH2ZH3+s7GJ6S/EJur6ASSwttK+wTn2L+LZXUhsoet5m16mZ+OTDd9NSc/PzCosN6pTs+6J0+g92F4OXLCtlpgfDQ8/3bqRCROTiDpWrIxJskECLe+m861qRBkO91k3zHpikohdZDPkb/hcUlrOhoSUzIc0utwRAMdXFAuJ34lpWX2xav2tSLzBPgWbN38oKXvNl1Up2d9I1RVs0easvTch2fh6Yvrcwmh4KTT6XKc6LfsHacY1303W5ZakGHL/s6xsx0QHyfzS2k8mabO/uxodOmkfnIefixgfkYRVifpT/2Va93NvS1krdCtazIRQGBoXpNwEAbSokI06yvroc31YDWwRsdlZweZbP6NOzz6o0eWdkMAH9kVPBQLzo5iKSNx0ksXk5/9LiqFYH5Oo7dTNUu/iPEgoTzMW3l9SUvOxggLhxVCy9eu3XE0y4U70RAYzA7DEzKejVNr/zsvO07HfbP8osaiBwNiKitm4o0rGriLrojKGectsZY8NXCrZUBGb2sCgBLrU+BTj3TFq7amEFON4QnLGqzlF5TOOU0ts+3mSDE+hNj8btsW2Uaq0wcT03JvpMDNWjNClm16i78UmageoBHgqNWONrrbW6seWAC7JgeNIUfQBtpTHczGuAq17zWMrC+m8EhG7yIaRbAAGlca405C1NqgMeEN+1edIYvwRs8oEVtCmc4yUo9HmvpqaWhh0boDRWPRpki7luryiKeOtVMnaj/HBeGsYlwekYw9w8J4Ybi4Py06LEVtkQ/J0giajmipMfEpUJYAqOUBLFbjnddnrvyoeKiTmtVV8lYD7EPTrGB+4uZyNN1eMjdhLv3fWmnFpTrARsdCbPrfk36k2X5+eUXxQl1niCMa1xqJDVPnbEm8wfEw8TMjMe7Diq6OO0kfBsIgWjNjKHh+yh3enxYhdBEP3ntm40L1l4UYkHLSVbxyxbRoYv2Ord8xWVSeujljEwtfctvVXj9rKdg47ym/DQBfi6ohFLLwNY1nNZUr+iEUsYhGLWMQiFrGIRSxiEYtYxMLMrrji/wPJbfYzEdFfOAAAAABJRU5ErkJggg==;" parent="1" vertex="1">
                    <mxGeometry x="290" y="180" width="109.71" height="104" as="geometry"/>
                </mxCell>
                <mxCell id="30" value="" style="shape=image;verticalLabelPosition=bottom;labelBackgroundColor=default;verticalAlign=top;aspect=fixed;imageAspect=0;image=data:image/png,iVBORw0KGgoAAAANSUhEUgAAALkAAAC5CAYAAAB0rZ5cAAAAAXNSR0IArs4c6QAAAARnQU1BAACxjwv8YQUAAAAJcEhZcwAAFxEAABcRAcom8z8AAC1xSURBVHhe7Z0JnI3V/8fty5B9QmZhDKJFIllCKFNEkS1LlgwhhoSYLImyZl/GNtlJ/Vr8Wn9J9a9UfsVPKFppsfWTLPllO//z/t57rmced3A1y73jfF+vz9w7z32ec77POZ/n+3zP9j3ZLiRKqewaOYD3kE/Onj1bfs6cOZ2bN28+t1y5cv+XJ0+e3frwUY0z2bNnV/rTwiIgeHlzVn/+GRYW9nN0dPQnDRs2TB4+fPjDu3fvvk7/lkIMN+Gp91BgwoVucuv/C8fHx9epUqVKfKVKlaZo/CMiImJToUKFdufMmfOwPuUvrSBKisIWFpcB+HMqV65cR6666qqfSpUqtbl8+fLrYmJiZmpj2jcuLu72I0eOhHsY6ZHLIrqX4L6LRo0aFfbQQw/FanSoXbt2cnh4+K7cuXP/TytzJkeOHFhuFDurTz3v6bSwCBSaSz7Ce/kFz04WLFjwx+uvv351y5Yte3Tu3LnypEmTCujzAxfvU+Gz4Pp7WNOmTZvpV8c8Te5NhQsXPpA3b15Rgp915gLzv4VFWgA+GW6ZY9q6qwIFChwqXrz4Fm3ZF7Vo0aKldpsL6d9E3Nz1K/qEFBa8T58+0VWrVu1WpkyZl/Wr47DJ0KuAsd5nvLCW3CItAZ8Mv7DoPsLzqY3t0aioqNc0P3t169YtRh/3iZPDKcRJcP2ZY9WqVeVr1qw5WD85m7W//ZfJRH+XV4g+TUjNsXz58in9EKhixYqpMtdco2LKlROUK1vWwuKSYDgTGRGhSpQooXQ7T+XPnx+++YiPUdV8O8sxL05q7m2vXr164rJlyypp3ubU551nrEXcBxYsWBCrfZ+ROqPtJhOst/6ekuD6t8rXXqtatWqlBj/2mJowYYJKmjdPJS9eLFi0aJGFxSVBOJOcrBbMn6+mTJmihg0bptq1a6duvPFGlSdPHkN0vIcz8BA+Gl5qnn590003jZ07d24VfcwnPl57We/zY3r37h1To0aNYdoyf6X/NeQW51//L+TW1l3ph0A90KGDmqiJ/cYbb6hvdu1Shw8fVqdOnVLaTxKcOXPGwuKSAF8Qvh89elT98MMP6p133lFTp05VXbp0UZrEYt3hHzzUfMSi+7qrNV+/qVWr1qjBgwdX0P+LwGuN7PLFeyybJmkxnVhv/ZrYpi32aVwRLyC4JFa0aFGlG6JqnrbY23fsUP/973/Vn3/+KcpZsZJWAulPnDihDh06pL755hux8vfdd5/SjU5DdHgpvjpEh6Oat19Vq1at35EjR0ro30V0UjnOmfRs2fLWrVu3VenSpd/R3yURr3tiGgCqYsWKql+/furNN99U+/btE2WsWMkI+e2338SyPzpwoKpy3XUpiA5Pzf+av+83bNiwbYMGDfLp/8/xW3/J1alTp+sjIiKStStyxPl08HPu3LlVlSpVVGJiotq6datkasS4JadPn/a5KRYWfxfwyXDKKTu2b1dPPvmkuMvGV4enXr7iSh+PjIxcrl2cm/TpuYXgyIYNGyLatGnTV7dqv+RE/WSIH65/kkQg+KhRo9S2bdvE5zbiVsyKlbSS1LgF8b/+6iv11Jgx6oYbbvBZdPgKd0F4ePhXms8D169fH61/80jLli0b6VbsK/opOKb/lVeAhpBcm381aNAgtV0/QUbcjQUrVtJT4JnhnJGvNNGHDhmiypQpY6y5+Od8L1iw4PGqVau+0bp167v0//qIUvm0rz1At073YMEx+xrihxcpUkS1b99OffDBB56UtbifLCtWMkrc3Pvwww9V586dpDMEKnu5K55IoUKF9lauXHnI3r17C+Cq1KpUqVKSfgpOek/0OfG6paqWLVuqjh075k3Wk5EVK5klTv4dP35crVmzRtWseYvwFWDR+dREPx0bG5u8aNGiBtlGjhw5WFvyf5mTIDlPA1a8R48e0n2DmMQtya1kprh5+OOPP6i+fftI16LXkvsGiqKiot7THB6VrWHDhqu1373NewI/nmUiTM2aNVVSUpL6448/JDHrg1sJFoGHxj/Hy1iyZImqX6+e9ALCX3xzuKzdmJ20NbMxX1c3OPfyI+znkzkDnTt3Vh999JG0ZhFLcivBIk6S8/3zzz9X8fHxKiwsTPhrLLkm/UEZude+y37NfHpVfCQvXLiw0m6M+vnnnyUhxJLcSrCIk+TIwYMH1dixY2WCoIPH4IQGi3myndTMP+09KChZsqSaMWOGDNcbsQS3Ekzi5OPJkydlmklERISPw15AeLrCPV0v3oOC6OhotXDhwhRPiyW5lWASNx+XL1+uKlSo4OMwnHbw+nySx8TEqMWLF1uSWwlacfNx9erVqnLlyj4OX5Tk5cqVkzm+luRWglUuRnJwQZKXLVvWuitWglrcfFy1apW69tprU/D4wpZck9xacivBLBcjefbsluRWQlwsya1kebEkt5LlxZLcSpYXS3IrWV4sya1kebEkt5LlxZLcK+hscWkINXHrfMWR3Fl5FoEhVMSta5YnObqhKwi1ygomMWXnLMtgFbduWZbkwVwJVtJXrgiSo49TP7ew4OPAgQPql19+0fhV/fqrhRuUC+VDOTkXyDiFcjYIJnHrk6VInlqB79+/X23atEn9c9060X38+PES/vexxx7TGKwGD7Zwg3KhfCgnwm5Tbq+99pr64osvJJCrW1Ir+8wQtx5ZhuTuQmbZE+v7PvvsMzV//nwJoVG3Th0J5F6wYEFZvW1xaaC8IiMjVf369VWfPn1kBTxxLwnHbRazI5bk6Sjk79SHmIwff/yxGjv2KdW8eXOJi+cM62txuciurr76aokH3q5tWzV92jT1n//8x1vqHqEugoEPTgl5krvzJkA7N9WtWzcVFRXp0/sqbY1Yn8ruBPXq1VN33323PADNm99jcQHExcWpunXrSqRYFgMTksSUaZXKlVVCQoJap91A/HinBBMnQprk5GvyRp+dO3eqZ555RkLYEWeDQDLsRhcbG6uaNW2q+vbtq8aMeVJNfXaKmj1rppo7d47FRTBLl9OUKZPVqFEjVc+e8apx48biuhBkiriChChp0KCBmjNnjjRUTX046yajxZ1vyJLcnefnukFEQ8m5li8qKkrdc889Enn32SlTtN4L1YoVy/VNr1SrwepVFpcAymv58mW6bZOkJk4Yr/r1e0TdcccdqmTJq6Wc4cjNN9+snn76aV/oQCPBwI2QJbnJn88tmzerAQMGSEwYdCwQVkAXejUVH99D9pVZsWKFev75NVJZS5cuUYsXs+HSQotLRHLyYrV02VIpv7W6HJfr7xM02Tt16qgqX1tZ3paUO29MAvl89913UjeIJfllCHk58/v222/VsMcf9xE8f/4w8bmHDXtcyIwFIvruc88lS2VxbKGfirS4MCg3yo9y5G0I5iclqYHauFSvXl1cQ7hSvnx5NW7cWPXTT3u8NXR+naW3uPMKSZIb2bt3r1hqtlJEN/zw22+/XfxHLDbWm08qiVftggXz1cKFCwTuSrRIHabMKD/KEcJD8rVrn9fEX6SGDBmsat16q8qt/XTqgTZRUtI86cI1Ykl+ieLMh92/Xn75JWn5oxeb4tapU0eNHDlCrVy5QmAqxpI6bWFID9lXrlohb0p2dqiu/fLcuXOJVW/UqJEMHlFPGS0hS3LyMHmeOnVS/fvf/5bY0+z2jF433niDGjz4MbVkyXNCcF6rWB1L8PSBMSCmvCH8gAEJPjIVKVxEuhcZITV7SVF/GcUVp4QUyU0+jLQRdLRSpUqiE/54165dtF4L5BVKJYSaBUdfA3+/ByOcFp1yx6jQGGXAiHrBjaSeqC/EWYfpKe48QoLkzvTJ98svv1QdO3YUfeirvfPOO9XkyZO0RVkuDc1QI7izUWcax/7OC0YYi06546fT60JfOvVC/TzwwAMyBSCz+IKEBMmdebEx6YrlK6RFjz6MatJvSyEDU/DuyghWoCvkpnvOdHPiAvg7N1hhrLnpyXrkkb4yYET9MAWAuS7ORqizPtNDQp7kWHH6xHkl0ths3LiRWA8IYvxwfxURjIAYYN68uTKqOG7cOHkjMdJofvN3XTCCcqf8qYeJEyeINad+mDPESLNzjosluR9xpv/222+rO5s0kdlxZa65RsX36CHdVVhAXvWh4tNCYPSli3P8+GdUu3btpH+/dev7ZWIZ1hzShArRKXfuh3pg1mfPnj1lrgs9LQz7v/HGG94azFi+IEFPcnfazoDqNGyeeCJRvyKX+EYyQ8FVMTpCYl7xiYnDVdWqVaWnqEqVyjKfm9c+RA+le0JX6oF7YqyCSV3UE9MrhDMZNC03pEnOHPFnn31WtlhEl1tvvVVNmjTRZ8VNYbsrINhgdITENNaGDBkicd+5pzJlrlEDBw4QooTig0s9MC/oWe1+3XabZwyD+ehMnDt29Ki3Ji3JfUK6zrRZkfLEE0+oPHnyiC5NmtypZs6cIZOIQuW1Dpwkp4956NChMhzOPUVGRqhHHx0YciR3gvqYM3uWatr0brknXEvucd++fd6aPL9u01Lc6YYUyZmzzExD0z3FfGcaaRSqv8IOVrhJ/vjjj2sXLFbuKTo6Sg0a9GjIkhxdqQ8aoq1btxaCMy03IaG/bB5rBP5Ykmtxk5z5ypCcgkOXrEPyoSo21mPJ8V8ffTT0SU5DlD5y5hPx5n3kkUdkMp0RS3KvuEmOJadRZkkevHCTvECBAjIV10Pyc3PNLcm9Ykme1UhuLfl5YkluSX45YkkeBLAktyT3iSW5JfnliCV5EMCS3JLcJ5bkluSXI5bkQQBLcktyn1iSW5JfjliSBwEsyS3JfZJVSE7FOwEB+GSqLbMQhw4d4iB5pBo4cKBvqi3Xm/OdcOcRLEA3S/IA5EoiuXMW4qWQHLjzCQaglyV5AJIVSA6RISyuhwHk5RNXhVXuTB82C0Gw5ATrWbNmta6clT6yO68HwbpqyJI8QMkKJIeIkBKyLlvGQl/PYl98bgr/hRdeUCNGjFAVK3pIzlRbLDvk575YCbV0acprSc8sEgk2WJIHKKFO8oULF6qZM2fK4mQWKrOqyYMpaurUZ9X06dMl5DEEKKvLlXtiZVCvXj0lZPKMGdP1uVP1tVN8106ePFlWQ/EbROIhCiaLbkkeoIQyyXExkpOT1ejRo1T79u1U06ZNVbNmzVKAsNL33nuvql27tipatKjcU6FChVTNmjVVixYt5P6aNm2W4tq77rpb3X9/KzV8+ONCKI/fbknuFEvyDAAVbVwSFinXrl1LyIveLCCg0vn0IK8cN+XMJ/EEz/3uOR9wHosQqla9UbFEDoKTD28Mf3pkBizJA5RQJjkEhOQzZ05XHTo8oIoVK5aiHC8XkJz7njx5oqRPPhDKnx6ZAUvyACWUSc7nkiXJohvBdurVq59ivx3ikZjv7jJ2/u/8jlVnR4cnnxwtPTM0QD2DRZbkTrEkzyBQ2abC+b93796y1YspT3e5pgbneWXLRqvOnTvJImG6GE0e7rwzE5bkAUqokxwy4k5gcelRueee5rrSw1KU56WCFe8NG94u0bVMlyTpW5KfL5bk6QQq14D/Tdce/dm4FsQITExMlL2MiBHoLNOLATelYsWKEnSItIB7MMidf2aB/C3JA5BQIbmTYIZkkBCLCyD4unWvCuG7d+8uMQKdZeoPznIn/nrbtm3kXkmH9MwbgnxS0yEzQN6W5AFIsJKciqQSAf9DNHo60ANf2QzJQ0LOmTNntpo1a5YMChEIkyF8Z8PTH5zlzia7Xbo8KNF7SYt7xlUhffIxeZI/ehjiGx0zkvSW5AFKsJGcCjSEwSqbfmrnUDthmBnNZFNcAiH16tVLKpvBnSZNmqhbbrkl4C3Q2RCWeOxxcU1k8Khjxw7q4Yd7Sfqy+a7Oj3zJHz2MTujHMbfu6QlL8gAluEh+bvYgI5n4xVhPLCc6jH3qKZXQv796oH171bhRI9nevFy5suqaa65RJUqUkMEgKtyfP+4uY/f/gOsInFm4cCFJj3RJn3waNmwooZ/76/zZRxN9mN2IfuiJvuiN/tyH//tLG1iSByjBQHJDjsWLF/rcA4hDDG7iihPjr02b1hJbvJJuHJrheSfoH4eYLIigG5Fhe3ZgKFWqlDQqzXmmrPkk3mN4eLi64YYb5Hyui4yM0m+BEiq/nweFSL80TtGjTZs2sknV+PHjRXc261250uM+cU/mYXXfa1rAkjxAyXSSL/RUGr0YEASrzb0zuPPwww+LxWbbkHz58gopISwjklhcSA3pbrvtNnX//feL20Jgz4kTJ+r0Fqtp06bJvkfORqjTT4fguCacv0ifz+eQoUO1T99Ltdbp1dPpkj75kJ+JOYgeWH0eKHZ76N37YW+ei3wuDPdmSW5JLqCi8GlNt9306dNkhiDWEhJBLFMuEI1A+vfdd59U6FPafUlKSlJr165Vb731lvroo49kW8Zt27apH3/8UfagX716texRb9JwljWx17l++44daveePXLdpk2bJB3SI11+J59+/fpJvuSPHiYN9KPRWr9+ffHh0Z/7wJVJ1g8O9+fvvv8OLMkDlMwiubFyEHz5imXySQOvVauWKiYmxlcW+Nm4Eew+x744WOeXXnpJffLJJ2rnzp3qp59+Uvv375dNodjQi0/+P3DggDpy5IjatWuXTOCKioxIUc7Mc+nTp4/asmWLOvzHH+qgvtZc50yH9Mnn008/lXzJHz3Qh0o1e5wCltfJVi36oXhO++gr9FvJ2Sh13v/fgSV5gJJpJF/gqXQs3iLti7NPP9YQK4k7AJj/je/LXG92HoaQ3333nRDv559/ls/du3erH374QcBvAAv+9ddfy72AV199RabiGkLiasTFxWnXYpmkwzkQmetMGiZN0nfmx2/ogT6TJk0SN4k3DnWIzjyUDW9vKA8W7ovcH/drSX7lkJwKAov1/XkGW55TI0YkynxvKos88YGZBw6JcBt2aHeCuOlYWawrOkI+Q2gICqm/+uorH7Zv3y4VDjH5nDlrpvjXpF+6dGn91hgju9yRLungqjivJz0n8cmPfI215zryYDOqCRMmqLvvvls3iD2zIHlQ2eaE7dnZepD7hPDm3v2VSyCwJA9QMoPkVI7pa6aByZYg+fOHSTlgFR966CFZsga5cB3YIgQfG9fDENB87tq1U477AyQlDbaIeffdd1W7tm1VqZIlxdV49dVXxSXBWptz3dd7cO4BMp8cRx/0Qj+I9fzzz6suXbr49taEeCzAoEFq+vi5b0tyL7K6u0Il0Tjje3x8vBCbvOiXZibh+vXr1d69e8Va+rPYfBqcT8pz8DwEu4TM27WlnjVzpurVs6d6etw42Y8eghrXxn2tE878TP5OC4+elNs777wjPULcB/dDg5TRV6w495sWBAeW5AFKZpCcSqcvfNq0qeqOO+6UvAC9F+vWrRMLeejQISERrgq4GKH9wVyD1f1Wk3Ljxo3iXrz//vtyfM+ePSnOCwRcY3RDz99//1305g3BfZh74q0xY/p0uV/u2195BApL8gAlI0luLBk+Kg0yprSyQIF8GGgZPXq0uA9YRmNhL4eAbpg0ICPpf//99743g/vcQEEa6Am5KDvSHjVqlEwT4L5urlZNjRs7Vu73uSXnJno5yyVQWJIHKBlNcqyZ8cedm60yC5CGJvnTkwFxLuZGXCqcJMeqQ0Tn8b8Lo6vpqcEPZ6CJ+7ruuuvUaH2fxi83DVB/5XOpsCQPUDKT5Fhuht7Jh663gQMGyP7w+NAQhkYeSCsyko6Bv98DBekYHdEXvdE/ISFB7of7YvCIaAKW5FcUyT3uCpXOSCIzBk0ZNKhfX0YYcSVoFOJa8N0QKi0Jerlw64F+6Im+/D937lwZrTV1WqNGDblP7leG+/X9W5JrXAk+uSE5E6PMfRfRfiwNtQULFghh6PqjTxr3AmtJIy8tLXugIF+jB+4J5EY/9OR3HlDm2hh/HPAQpyC5oxwuF5bkAUrmknyMqum15AaMGt5+++0ywLJhwwapNHRydik6G47GH3bCWFoDN1mdcJ+bWnrkR76my5CeFHRCP/RkNmKDBg3Oq0uPJR9jSX4lkxwSkA+zA5nhxyd5lytXTnXq2FGsI11/huwQjFFM6RbUxyCfcWmcxPX33R8udK5Jm3yw2uRrdODYxx9/LPp16tRJ9EVv6tLcB/fFQgxLcjlw5ZGcKbVUvml40huBBWfarJn/TeMNknTu3Fk9/fTTMgrKRCkq0ow24iocPOiZXIXuENFYe84Dhqz+4TnHWGlDZNL77beDkj75YLU5n4lhjG6OGzdOHkL0M41M9MYfZ8W/6V2h4cl9cr+W5N4fwZVEclbdkA+xwwmvzEKJDh06yEzEMF15pkyYrEW8QuKKT506Ta1Zs0ZGRpkay7wTCIi1ZYCHng6srRPclxue4+fO4TquNw1eM/V2/fp39P2vlpAXAwYMkHkq0d5RWsB0W/RlyRz6cx8mFjoLMizJ5cCVR/IVy5fLlFQsHflAYqLT4oZ8+OGH4uMySYv+c37n9Q+ZWLsZFRUtbk7Lli1Vv36PaKs6VsiFpX/zzTfVBx98IOTcuvU/QlT8aqcbAnbu9PRvb9++Tc7jfK7jetIhvbFjxwlxWra8T+dXXealkD96mDpDP/REX/RGf+7DRNDlIeY+uV9Lcu+P4EokOfNXZsyYoQ79/rs6fPiw2vbll+of//iHrKfEXalbt64qU6ZMinICxYsXk5X59GKwSqd58+aqbdu2qlu3rqpv3z5i+VktRDwWNzjO3kHMD+/WrZtcx/WkQ3qxsRXOi69IXaErbsmDWi/0Q0/0RW/05z7MfBxLcvn/yiQ5ge/pWnOSnJHC77WrgP+7V+uxz+sHY2Epj6FDhoj1ZioAk5+woqz3ZGor/rC7HHPlyqkrP4+QAL/ZDUMOImc5ryMd0uN30icfLDNvj9atW6vhw4fLwuX/03oxJwY90Re90Z/7cJKc++R+Lcm9P4IrmuS6AUjjj0/jXwMqb8vmzeKHs2B46tSpatiwYaq7tsD3NGsmS9mYL3711VdLpbuJezHQdcl1XE86tWrVEjeEQEWQetq06WqN9ss3vPuujGqiD3oaP96ptyW5JXmqJGfuimk8muFy/Gf+N70pvx08KI1ELPznn3+u3tWkf/HFF3W6i2SXCKYKECuFpW1du3aVlUXEY4GwbnAcy/zggw/KFF+u43rSYSE0bgjz0MmH/Cgb8kcP9KE3Bv2MrqbRyn1YkluSX5DkWMRzDcSUAzrf6UqkcQehILsZJOIajkPGHTu2i7U1i5Lfe+89eQO4wSDORx99qD777DN9/ha5jutJ56efPJOtTPrkx3Hyd+rl1A0dLMktyeUzEJIbQrlHH82MQs7FZTCE9OBX+d/AdA+6wXG6ED3XGnjSMNeZh4f8yNeti1NPS3JL8ssmuRtOohlXATiJZx4E0gMQ1Q3zG3405HCm7U7XmXZqsCS3JE8zkhtAOjecvznPvRjoNz/3PfV0LwRLckvyNCf5heCPqBeDv3QCgSW5JXmGkjwzYEluSW5JbkluSW5JfmmwJA9QLMnTDpbkluSW5JbkVxbJ3bMQo6OjZL+frEDyyZMnywQy7guS21mIcsCSPCoqMstacktyOXDlkZyVMmPHaJJrEpBPVGSkzN6DJAy5M2Lpj0jBCvRFb/RPOQvxBiG5XRl0hZH8XHChUb4IWhViYyXAPcPtoWzJ0Z/7YCEH9yURtBzBhZzlcLmwJA9QMprkKcLEjRwpJCCfa6+tpGbNmimz/SBLWo1CZgSMruiN/qwMqlSpktxXlSpVJByeIbmNoOVFVie5cVdY4Fut2k2SD4Hxn3nmabGEzALk9c/kqGAnOvqhJ/qiN/qzkp9d57ivatWqeXtXPO6KJbkXWd1doaKJ180GsI0bN1I5c+aS5Wbt27dXb7/9tpCFuILMIvTMADRkDw7CG8ttZiiiJ/qi99tvvSVrRSk/Vic1vqOxrGLifrlvZzlcLizJA5SMJDmgggCVTiWxeoeg9ZQBe2gOHDhAbdz4say+YeEClWZI5SG6f+JlJJz6QHAanOhLsKEBCQmypSL3ExEZobo/1E0tXLRArfIG4f+7BAeW5AFKZpCcysE/BQQNIv6h2UW5QoVY1b9/P/XPf/5TE+h7bzzEg+LvEgjIPdc7vYlP+uRjAu6TP0SC2Fhv9GM+OvqyDWKsbkBzH2yeGxfXRD0z/mm1dLlug+h75b4tyb3IyiQHVJLxzZ97LlkNHTpEVuDnz+8hOouJWZtJCDasI+SG5D//7Fmps2e3Z8c3rCiVarobjXX1uDjnFjpcDP7OJz3SJX2z+MJE2DJ68DvL69ATfdEb/SH4LTVqqMcfHyr3t2Rp2vjiBhcm+TfemrQk90lmkBwYorMDA5VF/JNbb63py5eQEUSf6tq1i5o1a5YsKIZ4hH44sH+/hHFjeRrEg4QQzklYY+mdBE4N7nNJh/RIl/TJh4XLBw548vz6652yPxC9KCyCRk/0Re88eXKr2rVr6TJ8TO6R+0tLggM3yQl2RJvGWvJUxE1yKpFV6yakQ4sWzdON5Hxi6cxel+zlGXdXnG9IHBQsWEDinVCZI0eOlK0R33zjDdl5GdJjUT0EPCDuAzBbIXKch5Z7Sg38znlm60JnGhynS3Dnzq/Vpk2fqddff10iaxGYqF27dvL2gWBGV/S+S+ufmDjM9wBzf877TQsYks+fnyTRBjAM1FdCQn/1448/eGvSktwnbpJT2UOHDvVZ1GbNmqo5c2anOckNsEbsWkw/Mpg8ZZLq3q2rJlA1iV6Fr06IOMqI/w3hiYUye/Zs2Rr8X//6lwTiZIU+FhkrjJ9Mdx6WGEBWN8xvnMf5XMf1pEN69PSsWbNazZw5Q6Jt0WtCgFICDqEPeqEfeqEvUbvQ39wL98X9+bvvvwvqg3phe0jqifqi3ngwjbjrNi3FnW5Qkxxxps1W3fTr4leiC5Fm2aWNQsU6UcBpbZWAbD++fJkgad5cGSXs0uVBVa/ebapUqdKO8skuQe6JS8h25AQVIgAnbgMh4di6nK5J/GR2XOYheOWVV6RhiCVm9zc++Z+dml94Ya3kiYWmq4/r6eEhNN1dd90lmwRQeZGRET6XxIC+/fr164me6DtP601aWPD02m6cT+qB3eSID0P5oAt+OY34o0ePemsy4ziDhBTJT508qebNnesbzOCVTEBNuvzSau6FG6SHxeNzqc5jjX6gVq1eKaR58snRsnltkyZNZDIXsxXZKc7E/zbIlSu37ORMdFkmRREBq1GjRhIJly0H2R6cxiHWmE9e8wTy5E3FeewIzXVcX6JE8fMicOXIkVNb8CKqbNlosebo06PHQ/JQoCf6YgjSq4wAaUJweqV4mCgbdEY/Hnq2cj99+rS3Ji3JzxNn+lg+LBh6EQOwf//+UrhmQCO9XsHAVCS+LK98KpPvM2ZMl+Hx3r17CTnr1q0j3Y0Qm7cOvQv58oF8PnDcCedvKX9PeTyvTof0+I30mYdCwNFWrVqqPn16q9GjRok+6IV+6Ml39E4PchsY1w4rTj69ez8s5Kae6tevL/v9G8lIviAhQXJnXkSUYgtt3IKrrrpKwqnhsjz//BopZBo8/iohLUDlmYfIkIhK5QGDTPw2ffo0ebvQ9cgOyMQFv/feFtLfDvkZSseVoc+axiCDTSVKhIsvzT3xJiAEM28rwkDHxpZXVfT5TDGoo68nHdIjXdLH1yU/8kU/9EAf9DIPIfqat5HzftISlDt5UQ9TpkwWd4oHkTYBem7evNlbgynrMz0k5ElOrwMxts0ko4oVK0iX2KpVHqJRkelZmQbkQcVCHqwkeUMsGoOA77y6OY/GIYsumA8zfPgwNWjQo/IGwvL26NFDHtqOHTuqDh0ekCD/+Ny4QcRAZPCJ87lujL5+kk6H9EiX9N15ood5o6FfRpUFnzxUgM0AcK2oH2ZyLly4UDoNjFiS+xFn+vh1DHI0a9ZM9KHlfs89zcSa06hatlQTXft/GVW5Jh+IxZsEawbwf41/agABOWYGmpwNQHaVg5hOi5uc7HGNTFpcv8yRnjMtkx56uHVLT3h0ny+6Uf6sPIqLi/O1G1q1aiVBSTPKH0dCkuQIeZh8sAoEmDc7JvDKj4/vIXqtXfu89Fc7yZIRMJXtJirkMwRdrklgXAkaggbGEjvh/J3zuY7rzYNCuhfKNyNg8uY7bgr/M9/HdAzgkrFIg+kFiLMO01PceYQUyU2eJ0+elO1B2IGB7in0olcB/xQCQAhIkNGV7gZ5G/iI6DgWCLjOpOE87i/fjIDopHWhnCnvJUuSxW1ktRH1QXupV69e0qdPfSHUnyX5RcSZz/Hjx2WnM7NrMo0cehlGjBghr00KnsowpHBXUkbCScq0gr98MgrkT7nynXKmvJ94IlHVqVNb0YtEfdDIJob6n3/+6a2xzOEJElIkR5x5MezNwlxzAwxjsylrYuJwsTBr166R1zt+qmkkBgNJQg2mzCg/03tFueIa0iZgRzm6CcPCPIN0rDiijcQcdiOZxREkJEnuzI9JPxRymTIRoh99yExCeuyxQVIpppEG6Z0NM4tLBwR3NqwpT6w3x4cMGaLq6Ddo3ryeWZrMV+dtylQEI+46S29x5xVyJDdi8idv5lIzX4TBB3RkAIX1mQ8+2Flb+olSKTSMTBebs1fD4sKgnCA4bR3Kj3JcuXK5mjp1iurevZuM9ObP75kIRvlTD9SH4URmcCPLkNyd5/bt28WCmKFkQCu/SZM7ZT/NCRPGy6sWwrt7Nyz8g8225LsmCZYbwjPQ8+ijA2XKAVbblDX94SP0G5V6cIol+d8U8jV582lCLtSpU0cmLLFrGlsJYmHuaNxY9ewZL8PvVNTs2bNUUtI8cWks/GN+UpKaM2eOmjZ1qgxksfcoE84Y6GGOOHN0ChYooG6tWVNNmTxZ/aBdFGd9mO8ZLe58Q5rkiLswWfr10ksvySR9543R+4LlweLQC8PkKCZCMTWWkUY+LVKCyWLsRNdANyrpomUaAvuS+rhQrqwYjhfWrpUVUUbcdZLR4s475EmOkL9bH+ZKTJkyRWb44TeGh4enuA9gNn2l4vi0SAka8e4yYy4K7R3IT3iLTz/9RJ1xjGZSD8HAB6dkCZIj6ODUg2FkttpmkcGSJUtl78zbbrtNtgenq5HpAJCcirTwD8qHcmL2Izs/M/uTDXKZD89EOaIAmIEexF0HmSVuHbIMyZHUCvnQoUPqiy++kMUITBZiAj+jowkJCeLWWPgHk8hYU8tClXnz5qmXX35ZyO2cbGUktbLPDHHrkaVIbsQUeGp6HTt2TAYqzPaBLC3j0yIlWCzNrE9WZKUmweCeuMWtT5YkuZWMk2Cs+yuO5OiGrsFocUJNQqUs3bpdcZYcXQ1MhVmkDlO3oVbHTrli3RV0trg0hJq4dbY+uZUsJ5bkVrK8WJJbyfJiSW4ly4sluZUsL5bkVrK8WJJbyfJiSW4ly8vFSA4uTvKFCy3JrQSt+CM58ScNh+H0BUkeU66cRKhyJmRJbiWYxM3H1atXp05yF+MFQvLFiy3JrQStuPm4cuXKC7orZzTOev8RsE6SlSGnTp3yJmFJbiW4xG2Ak5OTVTltnJ08dlryYxp/Oa05sbMJ4sjSMiOW5FaCSZx8ZIEMERzMFo+G4Bqn9feT2cLCwvbkzp37sD5w1kv0syz6Zcs/ttozjU8+LdGtBIPAQ8NLvrPHKRuHefdUEh7D5xw5chzLmTPnvmwVK1b8oHDhwj96D8pJLG5lpTbrJf/66y9JzJLcSrCIk+S41OvXr5e9mFiM7SR5gQIFfilduvRn2Vq1ajUrKirqMw7yoz7pDJ/sU0M4AvaUREjYktxKMIiTi7jUuCqEJCHQlOEvfC5VqtSWhg0bPpdt7ty5HTWhX9Y/cgIRk2iIylPBrmWs3DZPDWKJbiUzxc0/YjJ26tRJYqV7yS38BbGxsa+PHj26d7YDBw5U0P9M1C7KcdwVDV9PC6HCxj/zjESsMmLdFiuZJfDOaXAJQ0IvIIGQDGfhL2TPlSvX/zSvZ3zyySdVs+lzc+uTOmvTvjVv3rzyFHCS/jxL0Jn69eqpF1980ZOqVyzRrWS0GII7ecdO2M2bN5dIYPDVCwmWVKRIkV3aQ+mpz8+rj2XL1qtXr6p169adW7Bgwf9yEr6NsegEe2TXMrY2MRmYDJ1PlRUr6SX++LZlyxYJjsQ+p/AUN9twNiws7MiNN964onXr1rX1/x7R1xTu2rVrG23NP9ZPwRl29dJE9z0ZbG/ds2dP2RvmxIkTnly0kLkTVqykpRheOclNb8q2bdvUsGHDVMWKFY2bclbz9QzGGe4WL178i5YtW3bbunVrSf2bEDw7SEhIKFutWrWJJUuW3MPJuCz6k850ITrxBePj49X7778nmRkxShCX0ChlYZEWgFNub4G4l4mJibLHq3eLRbq+pUcF3hYrVuy/2k2Z265du4r69JxwXEjOZ4MGDXK1atWqrj5hmbbmx/nJ+wrwDfsTEBLXBR99tyOMrxUr6S00MukPJ3aj04LTm+LlKL74mZiYmHVNmjS5S/+fW8PDb/njlQ0bNuTSjdBWRYsWfU9fcFIfEovuJDrRYtkgiZDJ+EXs38juX+4nzoqVvytE06UfnHiWy5Ytk01xjQ8OjAXnO16H5u3mGjVqdN+/f39BfUxEJ5PDfPERvVatWsW0Ve+qE9uI+deHpBGq4XNdCPnL64K44AwYvfbaa+rb775TR48eFeWsWPk7Arn37d+vNm7cKJF22bb95ptvNsP2AAuOH24GMOkn31a3bt1BvXv3jtT/i+ikcmh4uG2+mM9du3aFV61atZd24GmI/o+fSIxEnVYdsCOvdvJlhzCsO/PQV6xgR2J2GbawuDQwHxxgsefOmaOeGjNGNipmD1d2EPHyTdwTJ7k1HyH/du2BJC5durScPuYTH8GNcEDDY9q1zJw5s3idOnW6FilSZIN28P8kMSw7Vp2nSJ8iRCczRkcLXXWVCtevkrJRUWLlmdtrYXGpYMEDiC1fXl1TurQqWqSIuMbexqUA3nkNrXBR46Q+Z6t2UQa/8MILMU5jfR7Bjbh/1K5I+PXXX9+ybNmyy7RV30vC+rDx0w3ZjWX3WXcLizSA4RR+t1hvyM1vfGr35HhUVNRr2o2J7969e7Q+7pNUCW7ETXT9PWeHDh3q69fB5JIlS36sXw178ckhOj+TITD/W1ikFeAVhhVuAax6wYIF/9Dtxa3a8CY3bdq01dmzZwvpc0Xc3A1IXn/99bw8LRr3165de254ePgO7auf4AnTivCkiY/kAZbewuLyoSkngFeaX+KH689T2jX5RRvbl9q0afNw+/btrxs0aFABIaiWyyK396nw+eiIfmoK6NbrLVWqVOmmG5yTtO/9YkRExL+1df9JP3FHtTKnIHqOHIbwFhaBwcsdXOAT2pAexKCWL1/+bc23pOjo6IFxcXF37Nu3zzOS6RV4etkW3BDdTXZEEz569uzZnVq0aJEUExOzMU+ePL/qwyc0RFk+LSwChZc7dFf/rv3uHdWrV39RW+zBX3755S2ah7n0cZ84+HkBgmfL9v+1J1IQ5cO5bQAAAABJRU5ErkJggg==;" parent="1" vertex="1">
                    <mxGeometry x="290" y="310" width="100" height="100" as="geometry"/>
                </mxCell>
                <mxCell id="31" value="" style="shape=image;verticalLabelPosition=bottom;labelBackgroundColor=default;verticalAlign=top;aspect=fixed;imageAspect=0;image=data:image/png,iVBORw0KGgoAAAANSUhEUgAAAIgAAACFCAYAAACAJLCMAAAAAXNSR0IArs4c6QAAAARnQU1BAACxjwv8YQUAAAAJcEhZcwAAFxEAABcRAcom8z8AADZcSURBVHhe7X0JfFTV2T6LC26EPQsIsgkkJJlJALPOJGSZfQKWaK1W+rWW1t3WtvpZ65CZe2cSwN261KpfbWv/pVUhc++dBNCItVor2latUpe61AUUF/Y1mf/znHsnBJiETBYbdN7f7/3dZObOXc55zvO+7znvOWdQUpKSlKQkJSlJSUpSkpKUpCQlKUlJSlKSkpSkJCUph0k0Otjniw6prV05lMq/e6vGlZNyrEutb+UJzmVK2oKANtXlD0+neoJN0xLVal/TtMrrw9N5tIUiZ7iuVUYat0jKsSr2W7UTPahQjxw52xuKXOmRwtdQ3SHlx4mqU1J+bA8o1zr9yo9tsvI9WyBc5vY1jkmyyTEsNTe3jEDrt7sl9TZ3UH0S+oI7GHnBFVSf74k6Ze3vjoC6wR5QFUcg/BO7T8shQxm3S8qxJnZZG+sJKue5gkqjS1a3ABz7qK6gtrdnGtnvCCh7HZLyBoByq60uUmj1tQwzbpeUY00IEFeDdr4rpDQDILu8DWujVE99c4/Uu+yxqDPYFLVL6jv2gHaLXVpTYL/1tRON2yXlWJMYQJxBpcklKztiFe0ORXqknoY1UTDIHltAecZGn0Rel5l/z4bjjdsl5ViTGEDcAIhTVrfDRKCim6LuoJaQeggOqCsU2WuXlNccfvVOMEh1je/REYN8vqSTeqyKe0XLGLDHeWCPsENStzlDZA9oHBB0pR6AigqQ7UQ084RLUi9jqGvcJinHqlTWr00BMBwAyL2o2HedQa1NmJg4IOhKYwBBFLQdvkwzHN1vLlzePM64TVL6XWpXDp3n04ZXXrM2ZUkf2nSGoI6geqZbVi91BpQ1AMunqPA2vbLjgyGedgQItAkRzfnngZ2M2/Raltxzz/G1ALPd95fhLAvj46RQ2Jll80dmVNaFbeU+zTlf1nKsvpWnGl/3Wty+xpPtcqMVALndKStvuIJqa6Is0p8MUrW8+ZRFITXb5Q87K+siNsv1yqzFydBZF7ZwDwDhqFMvs/uVX1QG1Aeq6tSfuOsaCy9Y/vdTjNN6JVar7zjeAxUrARyvumTtgA4QOKxxwBBP+wsgBIervmmeR1avhgm8vyqg3FtVp1yBv02LfQ98tUFC5qjyhWdXL1Uur1wa1myS9q4j1PxetT+8vrJOva6iTpvbF0xi9QEg9auzPEG1DpX9ykABiP1y7USPf3UWrnc1Gsdj9mDkPUcw8q5NUiOVfvVK+/WrzAuCa0dbv4pAyQRzwKxksbUAHOFKv7LZHmyOepatizqC2mdV/vDjtkD4Old9eF7V8gd7xSRWX8txX6uPZLllxT+QGGSRr2lUjawucEnKb20BZbOjfm3U07CWkdLmar+i2f3aT2ESz3ZJ4XkM131flXC61vfyCVVy8+wqSbmkcqnSaAM4nMGmNnesl7OhmYX0GQrmcUQd1yBMPavW19JjJiGDDESAcHTZE9SuwjWfhEnZ42lYF/WigbhDTW1OSd2C5/wLvvsdnjnglpo9KI/xxk+/vEK69IA5EE1cxgEvuxz50BVsAjDW6L2VqAwvAELF35/ivMftHIGFD9Fzmxwd7A2tMqOgQ6jcjT0FCDvY8PvtiIia8Pc3Ft3YNMq4QcLi9Clp8+vCC1EGD7hl7W1c70CsM45l4akXYNztCkY2o7H8HWVwt1OK1NiuezjduMSXT2hWHPDW3ZJyBQq6EQWzmQURt7L4GdQRCH8CkDzsDEbO+/ot61KNS3VbOBTPIXlnSKlxSeqDCE/fhSYcxRAceAYym2AQXOtCj8zniQ42btUtoZlYKEXSvZK2EGb0LpiWf+J6+0QDab8fyoKNhVq/JuqQtH0AyCt2WbnLBpNjk9anMwHKuOSXQxituOTwbPZHQBUUymYvKolMoVN3h8qg4jPvsrUoHPWAS1aew/nXLahfM8u4XHdk8ILgI6ONZB+7O6g0wJ6/4JS1XSj4thhbdVc7MMgO+AxPuILhq7whzbywXptANqi9o1smcDCAkLEAYEUjuRMgewUMsZtgjVcGglEIHJhdOK8cQX4V73CXQ25aUOlbk2Fc89gX3azAWw+ql6GAFVTOJhbIoa3mMGXh6K2oFb7D+245/JA3FKn1smC6aD3scPI2PHUas8Zg12twvytx37sdsrrBIWvbXawIQd9x7tmFxujfHdL2ArD/Atgf9ATD1+B4Mf0RVyBcVulblcE+l86cyWo4pd6Q4mIlkxHAZGAO+FxxwHGI8nvhvGr7XJL2CljsHjxLje2mSDrTJ43LH5siejL9arYnoFyOF1uNytqMAtG7u1ng8Qqkg5JhUMlgEXWjR1LvdofUr3kbVh0JEvxf42sZsRAsBTBUgTGuAPs8iGs8iXu+gc92C3Ak4HfEU1RMGwCyG9d/Az7Cs7j2n9xyRHUGlJsRql7gDDQVeQKrJx+eAsCQ3i1F8vA7n01SXoB52e+ir9GNMhDK81BmcF73410Qqkd+7gppC53LWtISNXMDRhjnu3zNsxGJXOKWtLAAhzAr3S+YmI+C425UzEayAVrRQpFXCh+AZoTRhH2ZNtUlRWweWf2JMxC+B2asBaB63xWK7MRvWnWfJnHmOFx1FuGzq/t1J1Lbhcr6HGy1ESB5xClpKxxS5CJ73dq5dp82we1rGVMh+jIiZ9jkCEPWXwO4m8SgYVcMGkeF4wqfxA5zUw3fxeYP3+YJNc/neJNR5MeOLH6gRUQrzoB2OSqoEX7Ah3zBLs1KZ4oKoT+iVwo7utQHQNM/EI5iUDmPFE/GwP9345xncM7bOGd77H7dbqUJKK8ZA6+7HvQvKW24/0doDBvtfjVi92uyzQ+gLNXOR4v/hk1SL7LL6jKYIj7fdr5Tos+FkFiUhRPmBgDZDX3CIUcuJWMZxX5siEgUllfnoKVcBscKZkXbhIJso1Pa08qinRaVAZCg8t+C/gnajELTeMQ563F8A/fa7a6H3xKrQJqVHt6zS+X1hcbuoZsvRDoHELp+ClD8zRFQ1kGb8FwRhxxeCxC9ABb8BL9L2EluV94TZhfXb60KKBur/cqN+LuYDdIo/oEtIloB/QMc3wc4VISpHyVqVjpTVgSvA1+mzRlQd4GZOLIqFMCAKdFa9ZRC3qv35iQhZcWxAeD+IiSW1b0AxA6GxThuB+MxPIbvYpiKXpSFAcw2lO9WAOSxiqXKD8BYZo7rGNUwcKXq6uZT7LJmRXx/uz2gvOMKrUGFrYv7oj1VAAGKAkZFxFqwAEQvAdhnKipQZxcRGuNZ4QuJz3rrJMdUNAIA0i5HPq6ESauu066y1a/Oql358sDOsK+6+sFTQH0WPPStsJFvueCM9TVARCEbFTAgAQKNAUR/Ll17y6Ad1cvrkU3RAKv8yvtojPc6g4rduqJxzIDuRGOyT3lAm1oZCH/XLqmrYWo+dARRQIz3e+GD9KWKiuOzJKR4hz5q/b1SlF/MhMLE7LEHmz4DOF5m9OQMKRb4f8MHfC+ryPGoj2SxEwm+wiNA+AcwO/thGkQml2hV8V6+P1S0ZKM1s6IP3ruVPgtDYP3YufJc/Vq8hv78AuhfMNjFPfEOMFetjoC6pdoffg6m/FFPMBLySEoNu/CNKhj4wkjGK2uZLlm72OZX/gjP/iU4ah/AUdvnRSz/RTHJQXDQwYUDKWttAMXH+O7f0Dfh4EJ57FL/DWfzY2gr+y4OAUmce/aXelBuHA+yBdQPq/yqUl2n3OAMKOctCEYKETWmMq3BKP5jQ8gk3obHZnCgzeEPB0CJvwHi/+GU1B3s8OlWN3MP1SsAsQaAUAkIdmjthIn4HN+9BlCswt+3eULqchcUn62Ip/yO5+D821yS8igAshHX+RzXw7XENVtZafQF+us9BMBxDxfKSkzYCqib0OAaK5ZqF1f7m3LZSbjoB78/ySjyY09qV64ciorKcPmVfLukLaxcqjTA5DwL32SHJ9TcphcCCrevWiOvw+sBIKjQfS5JfQsV+gx7VqEqGOR2hJ3fgvkrXbBCyXc3RPK8DeqceMrvFoRwTr1W4pDCF3qC2i0AhuKWlRZeE0D/N0C/F2DDe3R0SvvmXXT24/uANeSmA9VgDocMcMuRS20w4V+qCVs0OexyrqxrrKiWOLLKjq7IOzA5W1kAYtQyTiElonpra44669nTqO6DvgxQ3o/vfoR7XOQNaue7AkpldaDpdA6qkeF0fbkT1b8XSc/12gSvrJR7g+Hz3SH1Ileo6WqYz3udcvg5AO8/UDFrz7usb9iE76LnxKj7AcSP8B4bbQHtUQD+MvZQszyNov1ySUXwkdGuULgM9H01x0xA02tQ0O+gAvf2tPXFCpNmBdfbZ5cj2yr94X9WLg3/vNqvLvD6V80giy30NY8TXn4Pxduw6jReg9fiVArcy+mR1evAKPe5JfVJsNOH7pC2C5Uq8k30yCf+M3elB8tB3YEG9DJY6g9g3OW432KOinOMy3ikL6ewoBHVZNp8SiXCs0tQsA+hYN52hWjTEyxUwRosUAGOz1igaM1rwVA3OwAOGzz7/sjl5DVdIWUkM90ADgdMzA+ZW4pK/TMAw6GAvfpzxXnmLpUmpbnNIWk7cY2/4rMVdr/2dRscUXd940SmMxiP8OUWetzMWGdLdMra5fAL1qFSP0GBIBRm6+kekwhHFOAABW+yS8oafNaACvoezUGtT0nDrfq1T0CYofq1KW65aSao/2yPHL7aFVTuBUj/hvfYyecjmxz+3PFUmEgonNE9iFReAcBvdQUilVVgrYIbj2FHtDfC2B0t5bt2fzhil9SPGePrLHIUgBBEBo1zFLXKH1aqpMYrPJJWcHZAmeT98arTjFt8IUJGYea51x+ZIUyPFF7uCarP41l3dRckupMLh1RStyOMXVflUy5hyoBxi6+eLEKr8Aabz0LhNIBB/smMqW47eAQGQARa/wg+TBit7cr58uocOm/9YVK6K8zwop/lDjRWI9JZBibZAN2tM13XoI8BBA1lR2Wdur7ap11l/6k21bj0V08q61emeIJNbjDIQyjMj/SeyqO0NBQgIx5mh8EkbUb4GXEGI1cwa63PJxhNKDhpSn5lyjS7PWGnkIlM8K0q3JKyAiB+ARV/cG2SeO8lVDetdrlpX2Wd8m+bX/0l3svNpKNBX8V10OjkMc9UXx5K+VzYYGFe4hUe1PjeVd/ciggIzKEqnpB2eXWoKbeXnv1QtP2hUcNfycmpOmWc2VI4Jqvo3OEz51WfeOa8yZmZtQmPklZcu3a0SwrboMvBIn+H6YHjejRTAx8ktIYJQXsR3v4V7/gTp1+Zdcz1kvaFuOvXToTX/30U3GNgECPLqnOAiMLFOfBTNrkCAIekXVUTUrN70Scw+NRpJWPHZhZMG5NTcuYYk2X6eOjpueXVGeby34zNLtlw0uQ5DYMmmC0ZMytGR3swCMYpF26p0QMzyP6YtxHV6D4W3uPw92tXdqmzB1hWX0cjqncuazZ9ZaKXmJx/qza8Rl5T4ZK0O9C6XoNPsVcApBPnVLALC1XWPkdhP+aSI1cyxOyxWbFaj0vNKZ2cbiqtSc0puWJ4VuH1J06fd+MpmcV3jc4uUUZmFu879cyzosOmzLntpClz54yaZh/eE4BQ3HLjTERW14Iln0PFH9Bnz3UOEGbeARxtdin8tj2g3gpWKWS0ZFzuyy++aHSItyEyA5X9AxQEUwd3i5zTzgqN4NALrdUT1F5F1HKTh2l2PV0iobZ26Lg5JVNSc63fSjOVPDAut/TJUbOLXj5lVsG2UzOLoqfNLNx74pQ5W4ecbn7qlGkF38isruYMuh6HyxxI88raIvgjv2P6A02kSKDu5H0FQBDuI9TdVO1XVrr84a8zQbunAD3mpODGp0/iPBK0qtvBHswjbRMjrXEKSygBAsfUISm7cX4LwsfLQL1TjMslJr5BQ8aardPG55dfmJpb+tsx2cVvj8kp3ZlqshxIyyuPjsgqiZ4wec7rx03K/79hU+d9c1S2dUJvoyLmyDD8xbNfCgZhju4HfCdjeukRKpiSTngwQj/kZTSI5R65ubibk7OObSFVim5qKXwZO8dQWJ+hsDpf8UcUliiwfTgfYFLuqGnQKsTicYm2apqVeaWT0wCOdFPZ7wCKd8bllEbTzGVRACYKn2PPaWee9eLxk/JvOXlaXnVm9aIez709XMh2Lrl5Nt7pElR4BEDZAhZpFWCI895kTD09QdkKpg3jNxfWijkwX3LhHA59KmT4lyikd11BgIPOZ5xCosY6zeB3fAbVnLLynerAo6fjUomBA2ZlbF7R1LS8ssVpZutvM0yWtzPM1uj4vLLoBIAjLdey79Rpc/8xdKL5FpgY97QS+1jjl30mHAB012lzYWZCYMOXnDKjmvh5JbrPhe+CkT0wrS/gWMeJV0uWDPAR3Pwl9xwvJitxAnLDmgzOctOPh6roHo6Tp8AZ8XjZ80C3KjO9RT5FlwBZA3Ag9JPUdxDS3sWJQgmvFwLmoFkBML4JUAAc1ndwPEDWEJpn3ZOea/lHyszC206Yku+EX9Ln4IiJ27d2Iuf1onE8A0bcQ1MiGDLOu7NhAEBtKKtPOPHMIynfqtEbxxHCPqXS6x5O5/TPg3WCo29NxsKbIunnIZrqy7Xf4grDSXvgsanwAdwIT/8HEcgSoPu7HP6OKT8TfwfVc/GSc6sBCC5VTWDRvNQEmk73BLTvoMLXwavfofcedmFeglwrQ9kKMD1G3+Ns/5rpCYV8AEeauXCSDg7LQxnmsrcEcwAYGWCPdLN1V7rJ+mKGufQWfOacUljVJ+uOdSZc48Ndr3wPYf0T9KmY9d85QOCw6hPGCJKNcMyX0Tm3+7ThrOxYKgK7C7yhSCX8usWOgPpdl19Z4pZYHxG9PurV/2GovWCZNrU/o6HBXHMUJsGLB+bC+E14gfV40fX4u6VdZY3/P47PHwZ4lrr96gJPvVZg968yeyV1To0UscGe1qHCn0Ur2tUpQEix7BTjRKmg+ips8c0L6teWsHveeJ5uyegi72njzCUVMC23AwxvABytNCvUdHPZ7nSz5e8Azy0ZeSXuKTmFAEf/Rgocr4GpXAT9fwD+ZhcXzumsgUD1vh+NEdxmNKg/igZZr5VwZQE46vnegGIBCL7t0bsLIihbAE9dj7JtcYXUJ3CN9Tg203fD9wt6u+hNFxIdvOjGdeNB80tQYetcIW0LKnEXHmAXHE1OWtIVlQ7dgYfc4gwozzkC4V87Q+rN+GwZzl2BgrnLJSlr8LL05PeTRnU9rGAEQES4txcv9xy34+BSDsbDdFsmFFSPSjNZawGCVQDItgxhUsqiMDP74Ie8Pt5kuWu8qbxfzUpHsT7QMgwgyUGFXuMMak+hwW0TpqQrFhUMI3yRjajklTjeinAf5Sm68e9AOYd1Bz4CptV2gp1RB9pOlOFO1hHA8hk+exLn/YjRlPEofS3RwVwLA+bjUjzg0wDIXmZPifU96GgZytbAcRLOh6GNxYO97wyq/8aL6QnAXE0nqH6Ca3TtnAqAiB5F7rLwFNPsausbJw6KJuacpoIVxsO8pJksTWCL7TQrBkB2jjdZnxxvKrviDHP5JOP0L0ToL3iliAvv+Ss0tvfF+3ZRFgSIAJCs7oF+iPIwylN9E+X4Nsp4C5RDEKLs2cfCutDXX4EPF9Ta0GDfdsjKfagTV7Xv6VH9sHy4ARARyytPE9G8uT7fVjcT4iUOUUYfTBrWpw7waPytz00VLSNOgVDxe4IMDPQpfvMo7vuN2mUJ53cMzsgpOXOCyXI1/I+nwBg7CRDhe5isu8abLX+eYLL+aIqpcrpx/hcil8OXY78G3usOAOQdVPTRV38WZQXtUJ5U42+jvHXtWB9C0dAAkL1kdJjq651Ss6kfstIMgASVS0D5oEZtl2CNLio5ZiaOUDx0vPNjql9TTITeyZcCyJbi87kXJDL31DdoCNkjPd+6AH7HrwAORC5l++mg6oq/Gc2YLA9m5JWfkzGnNPHQuYdyOZe/hF+Gd7wN/gUZtXvLg4vyZIUfXqZHKU8yMcuTy2HIyr0wcRWcIms8Tl9J4gDpqXZ44U2gzt9xOzGG1saDdE/y848fl2fJTjOX/RRA2ADG2Dc+D5GLARDDSd0Pv+Q1HB/A9+elZxZP5KiucYV+E3aa1dQ3FcUYBNo9gPRU0SDRyGjyP4IT+2sbAoW+XMnakC8SILHCUv8D1N/jDTVbEl3eYNo0+4mpuaXz0vOsNwIEbwpg0Ly0M4j+P77bl26yvAGA3AdWOTc9vxIg6bmMnlF0Wkp2CTc77BRoDPu5EhEBgvd7BxUHk9t/AImVJxqbAAgX2kG4+yUASEh7FyC5U6x/keDAnABITslZaebSWwAA9pq2xgMIzAv/PiBAYrb+Xwdzk5ATx4G0yWfNTz1tVslZw2YUFo3KnjeBz2B8fYi0AwShKXyDdxxfFEBEgpVYlqv6ywEQMAjo926XHClddOPTCfV/HGQQy02o+H/HBYihelRjaRXmJs9yP82NAEk3PX0mGo02F2WMyC6tOWlmgTRsxlnXj8gutMwo8sbNi40BxOn/YgGCstwMU5MECCURgPBz3T8p24dQ+A2CJNVcei57YHGpozqumXOtaSOyij3DZsz7+fFnzn39xDPPeiIls6Q2p+qCuI5gEiC91L4ACFME08xFc+CDrABA6IN0DhChRv8IzY3Z+kYqIp9U+CRHMzeMlE6eWeg6NavgjuGZBRuHzSyMHjc5791hZ877ZsGiRXGfOQmQXuohAAlpd7FrOVGA5OcvOT7NZJnbLQbpoAZIWtNNZa+nwXEdB3MzMp/RzREgET7HaLPFe/LMgltTZhe/CMZqO21mUXTw6bkvDjoj75wJBUmA9LuTirj9LofcnLCTOmmSddj4PEs5GORuvQ/E2tZdgOggQQhssr4BkN2fmmc5J10HSbuMhVnBeS58f9uY7JKXwDh7OACYMqvo48GTzL8fOjXPlp7vPtk4/RDp6KQyikkCJEHtwCDv4fgLVyhSlgiDZGZmnpCRXT4DgLgUlb4G+gm0WwCJabu5MVleBwP9H30SmhuR8Q7mGDG71DXOZLkDPstLOHfPhDnzo6m5lp0pmYVPnnTmvKtOzSzJPGoUEwtz5f4HCO5FgHzklpXfuOoHVJiL73mOOK97YOJ19b8Rt8vaH7312teZ14mHOHpPZ23t0Izsohnj8qzfRcWuhL7Hik4EHO3K35gsAiRpZsu9YIsLx+day1Jzi88ZObvo5jE5JS9y0G9C/vxomqm0bdTs4tdTZhXenpI1r3xsppUVEPd5D+8ow3sm0FGWeHmKjjIcnUF2lIV/jc8GBoPwO774Qe0m4xgF4ApGdjsl5UUU4jKu58E8CDxI5yCxWo8bM7fizFRT6XdgWh5Gxb6Piu4ZOKj4XczcZCC6ga4al1185+jsopUwKy8DMLvHExxwcEdlFe0DezyVklVwFadRGE8UV3oMEFGeKMOOZdqN8hRLa7A8ZeU/Lkm9m/OWl/ga45q/XogBkKOM5opxFqp4YZEqyN0auGw11yg7ICof54ljnJdpV3ENscv1Nvxec0qRbzHZBg8SFyDCrORUnDkuz7IEwPhjurnsP6xkw1T0TsU1LK3Qj8fllLw9Jrv4I4CjlamKuA9zWQ+MzCr694jZxfeCWZynzZzb5bAAB+sW1q8pcMva7d0FiD5+pZcnzt/HMkU9GOWJ3xrlfkhdGCASI7pMw5DQsGX1aq4vAgbp68QhAyAyAMIlDoLqntiaHIIpDBUvAeXgEDz0bWCAN6Av4XzmYL7pDCg7xJD0UQAirmcM9zsD6jM2KXKFzRc5I94KflbroOPSZ1tnpuceNCvjGbWg8uJWeKLaziTWKMDXBudVfIYoJzp6dnEb2OStcbmWB0dlFV84Yhb7TroezyFAuK4YnPDuAUSULcpMVncAVEybeJFlCn0d/stWljXLnNqxLgRIUEfOoNaKcnwN59/hlhsruBtGf6yEOHgR0+X0dEJmk32Ih9iKv7cClZ930K14mM8csvYeALLeEVB/jpe4wRnSbsC5d+KzPzsk7VO+jM4ycQoEyhdkKgGutc8W0J6rqlN/WPXT5slHvFh+/vEc0k+HWUGFPYLKex+V12aYhkMrugcKoAlwsCNNz19lqoBl97jc0m2js0s+GZFV9BpA8lBarvUCTsTCAx01HZIOt7ehqRwVew9pH+UiWnq8chANSV9jhAzwD4DkPo+sLgWwfoZy5XJaLQ5ZfY9ljmsdWhdBjdNZWR+bnZK6DudewW3QjMfocxnMhGN6wHi4EHyRP4h0/CB3jlJXH1QtjOMqUOH9ePEfOkLqfPtyLZPK5Z/ccuR6PPx6sgs8d7FGWTwVLaBhLWe676v2K8/Y6pQjGQTgGDMX4MiFWTFb/gClQ9oDsxID00EdL45gDCjMCdmiFdffMz7P+jYAsn50dnF4RGbxH0dmFt0yYlbRBcOnFbHgj9oqxQ5Y9WsnemTtO6hABZW/RbwvWvvhZSA+h3nwCICoXCHyIVdAO3+hvynXWb9mFucWeYLaVQDO/Tg+apR9e12Iugnhs5D6B1dIredCN9xF03iUvhcmHnN9L4adHIKHnoO/a10hpV35GWeRAQAO2jrrHS2nIqw7jlrUsOo0W124FC+6HIh+GSwilp06PD8ELys+M9Ya2wazpKFgFhs+iC6IVkbPKZ+Rair7DvyAlXRIhVlJGBxU/Ia/66CCKfDdmJzSKPyLnTQjAMqz+Py+8SbLFak5JV9PmV28MCWruGzkFPaRWLs1uZqLzQAMVaisO1Hpb4A59ungiG9yjaTlVrekvQTmkFAG85iozPLk2uxcqYllzTLX6+NgXbBu+JmnPnI2HdOF9S0T+DvjUfpH2AK4hBS39OQOSkLBLO1q/M/5LwSU8bN24ZJQTLIFwiMAStxpD/yfM9ztUmSHPcD1NZRgTaCpqH1mmWFWxpmsF8Gk6A6pUanxARBHY+ebLPuhO+GA7oBuN447mJIIQMCMFH8IM/InmJFfIDr634w8q/v0vPKpZ+Zbx0zKtY4wwtluC7P6wa4Xo6Ifx/vvJAA6Yw+CxtPQ1Aom2ATmXVkTVM/l9mfGpYSwwlnWHcv+kLqAkvnPRwTIFSeNnw1cYagKKqxgsq09EH7TIXNFoRhAaG/BHKHmaFVA2YWW8VcPzBlT+r8R+hNzLEQomwHmSGe0IsyKHq2Iln84CDpTnqufTyC8AkC0pJmta6DN+tGyFsBbh3tEwEwPAkBX41iVmmOdzSRo8Rw9EGbE1SBcByPe7JCUVwGQ/cKRpJ9xGDiEiRXlonK66bM49zrOzDvmtyA7mhDFNSuaTrf7w9+urAuHq/wK94dt06OhpqgD4IBZ2WXXUw2X0euuubmF0ywpQ9hDisq7SIADDulBs9JNgAhwMDy1bkOlP4Pf3QyQXAy2uBDgYHLzhWmm0sViYrc+l8Z7+tzyLA7d54O5jOdIWLjvr0tqmgfzeQ3M65NwHLnhUZvhgB6hBAfDU4CD67Y9DFCd149TFgaWcMuK6oBSNH9p+MaqOmUjgHDAu/wxHRySttPuV56HE9zAWXSuGHMMGnQc1+4QoazJ+jAAAuZIzKyIc/Vh/e3pprJncA0/x2vSzOWTUnOqxnHqw7jZ81N1PUscJ2QWjCJrGc/QI2HH2EJ/ONfJqQ6y8hh8A87LFVHa4cAQSvYQflmEU0ieB4vWcU5RogOWx6yIBd+WaVPtAe1iRCmPo0XtcS5riVbUhXfbmHktARyyWrX4IHMM4gIvHfs5wAQJja1QdTBZduD3fwZAAmCJspH5ldzvrc/7BDqKmALJRXyDyqN4V4ADwOjU79DZA8zB2XQfQH8Df2VhbzZxPibFfc+Gk7n2J8zM3eVLwzsqpKZo+dLGFxxSeHkNfJQOZkVMXcgwl39b9znE2IpuVroLEJyng4PMYflLWq5VBmtYDHD0u7jk8GyXpP7MJXNLMrW1y7VQoDpAFABEeQsAuZlb0/f7vNqBKM5lSprVF77MurTxWYDjJfgeyxxgjnaHFKGj6ATjwJuIVmBW2is7DhDiqG5WeD6Yw2T9CwASgCmxMgLR79GPAqYke8CsnOPkHvyy+j6AoS/50BVA9K5xgET7lzukBFFOpiVxIsIvvVReszalsk6rsPnVn8EpvQGFU92xI0c4pO3RCs1K4v0ch5oVq5RmKrOOmjevx8txJyLcHdsdUr8GJ/wuhKrwtbQD7Po+HBCHKoADgCDKof/xJ3aELVihntnv/RcDUbiXv0taN94dbCzkrgod7OwQ4ZCyE4wOqd4Jpvsc3QQIgWGAYzsA9owAh7n0CzMrXt+qDI8UqYGJuAfm5VVELPoW7F35HsI5jXD65F5EORvBILe7Y4vl9P1UyWND2DKsKIB2D9066DiuNnjQrCQ+KnsQHFaYFctfwB51ZI6U/jYr0ehgLhJT2bAmw+NXzgZr3I1KfsUdVPeLkLULs0LVe5U5YqtuB9s8BnN7qdvX2Kt5Ol82GZwxp8joPme0IsZWEhyVbWeOHQDZ08Ihhc8xbZq9X80Kh8+58pFbasxzB5vOdQUUmpV/IrTdp4+ndM4cMW0HSFDdDgZpcdYpV1T99BjbNLkfZag+KivMCphDRCtGZXcPIDpzxPo5LM+m5pUF4MOUjpyS329mhcy36FZtrAsm0hMIL0bk4XcFtd+7JOVfHGtiTktXIW1H7Whi4IO8Yfcrv3D5I14688btvqLCTLBYtMKBN9EJlphZORjd6NFKqohWyqycCmncRfS/GH/2TmBKxAo/y1rS4FQWehCleILhOrekcHT7H6jsDxnO6l3l8cHQucIM4XcOSQNIuFeMemeVFF7IpaX0SKZ/F7gZeFI7aOhoRCsiTfCgWTHSBLsJEJ6rn0/meCbNbAmm5haXxcDBaZHspq4JRc7gCj+9cfi4DJfrxnXjnZJi8sra19nj65bUPwAQz8Pf+BRssZcVLcZYuskcRyjNEdQpR/ZUB5R/VtQpd1bVKbUci+HacF+OPhGwQnp+/smpOVWnpObkQHnUlZ9zSgAjCmaCjcsTo7IPC7OSl7hDKrrP88q2AVyin2MMoxXDrNBpZO6EV6QiaBd7Q9pCW0NkBiMD9z2NJ3PonMPmXSnNCGfDE1xeac0cT722mIzhJDAk9RU4lB8DIHvpiIrR2W74G0dT4Y8w5VKO7AVINlbVqQ9VBZTrmQ8CE5TbD7PzvzAZkpmZeSpa8ay07FJLal7pfK4RxmO75heXpXIMxGRxIpy9EmalZ6Oy7Q4pohU4pACIn8wxyGCO2pXRoaIXM6hehlb+OxT84zj+2h7UrgIDuLwNSrnIbQmp87tShJpW+BiVzK9wBuBjyEoY1/obALIJJqBVb/EwDTGNU+E9UlzLyKo7YAso79sC2gYcH6n2h6+ZL4Xn5fd94nH/CsNIpt1NQNSQnlt6FVrzHdD74Xhy/Y37YooK/aVQk+XX8BkeA3N8gP8T7j43ZubvADBgVth9XmqJmZWVAIe+b2/4YoesrEbI+AEcxu2OgPqeXc/FeBAV8EuhQfW+rtRTr9wLUNwPMKx0BJTncfyMDiicUdHKRf9GXwKjg4pRblwfzws2adrD0e+KpeHH59eFf1JRp811+zYcAyChOcksnpieU2pDpV/CJSVRaU+k55W9heOHAMAmguBwxbmbAJCtNCuJMEe7WRE+h/VZmhU6pB3NygK/MgtguBT0vNoOcHDPWe/yx2nXoVy9WP0Qlf9BIgrG+AjMs4eRiR669g8o4qm+V//aqCPIdAjt0wq/sq7U13gtNI8bI1h9LcMG6p4yg8dll0xhHgUq6m5U4OOo9FcZTaDS2w6v3L7QdrMChzTdVCql5haVj5qmd5+LjQLAHKjIS+yS8mhVIPyhjbtti1ZumII4FdBt5e/74joJK+/LJCJ97Tb4I59YljauLfMpN3BnT5sUyYMDPfa/udvWkSLWASudDHq/APpbsMKbqDym7e0nI+hZ4Mayk51pdyMVKs7XwWEhc/yF0YrefW4wRzQ6dIF/zSyH1Ph9hwTmCCibHGAOgqNjheoOoD5nJGH9woFxqIq+ErAXzZsNpq5Cat5ouSHcXOVX/3fBskghfKWRR2T+/zeE2VXcUkPPxLI8BCfzLT0CERGFUfmiYhMaQ+lM20Em+jnYfW7xC7NigOPyW187kczB7mkwh/A5aFboI8Qr6P5WHYQxIOLYx8DyNjRFa5avi9rr10XLlob/Y/OHb6tZHinjfnkDYdxmyMR2s1L26/Q8scST3nchKtEAg8myVfgaNDeJMEUc7cAcT6fnwazkW8ti3ecrwRwL5ebZBIdDDq/i/vYAR5s+4+yLbPG6GehS4/4ucWVITeA5Ze2D6kD4YTjOFzEJayCM+g5hOl6auexrAMaDgjnMZYhAdObQK1KAYXOGyboex0cAErb4z/id/n18EMTTg8xhBdjAHHlWid3nsYE3+hyg1Skuv7YEEYYK07LFU782qu/qxP4I9YjC7RdF5ZMtYv0gMAFcdfoTY94LN3zeT8D2uPMspryPDrY2Zqc5AmHFJSlLuG/vwNhbF6ZlYsH8vPGgeFT8i9BWffwDFRoDgMnyMT7X0kzWH6WZSy7IMJX5YBbWAzBbO1R4txTnt3EKAq73LIDRMU1QCDu67AGtBBHLzXZJfQ0swn4JMSEr5jf0ZcuNqfAFOpgRgpHJ17jXXpekbgJAnnIF1YfdIXUlzlfwfP8Es+3Sp532AiS4L9nDGVRb0RhedvjDIXtd41xfS3Rg5IswEwtU780Ae+D4oajsmN8hmMPyMQASgfm5ekK2JTs93zpmfLa1IN1cuhQV/SR0m/6bboCE5+jzVl4He9yZnm+p4jalxqMIIUAAimKHrNTD93jKGVD+5ZC0N9G6PgZ7tNGh0wHSlyDRW7EAiKhwsez4PrTk/3iC2vNuSfu9R478xCWHF3mDES+++xYc5ltskvLX6oC602Hs8MAJYvGv34Xyngx3JXU77rdGsAeXKB8Iwu7xk6fPNZ06fd5147KL/4pK3EVGiG2tAab4GJ+tAUh+ODbXaopNE2D3eoaptEgwidn6Z5yzlaASbBIPGDHF9wDGXvz914xc648nmK1HLKvAcQmbGGMJL7JL2jVgE7890HgLCnC1U+wa2fSZW9b26asQ9GTw7FCNsRJMBmfY7wBYtrqCkc0AwQtOWfmVR1J/5g6o53rldZlc/Jcz6Zg8ZAsolXi+Bhw3ILISE6ZqjppddqiK54fT7QxGduL9NuD+9c76pqIB0+3OvVSGTMw9f8jpJmVkZuGnXFWHSyDQDMCEbAEAIgQHnMg8LgFl/EzIjBlFp4FNSsAGPpzzFCp++1HNjQ6QPel5ZU8DWJdzeoJxuUPE19JyHGg3o9rXNJMbLDt9SpHTz1ar3Q6QqCjcl0D524TpEWwSvwK6VmH3OXTfiorZCnp/CSy1zi2uL/JNl7qCYa+L0xuWKWmHz2LjTDcwXRVMTj1M0QY8126d3WhujvZMYBthyvR9+9ibC7ZssB+WovlflxlFlRnHTTJdN2RC7gcjsoqjMYDAtIA5LE0wHz9CSzdNsh4KjphwmmJ6bkkxzA0zvP6EiARM0gVIDgXIZQZA4sb47CDi2IueodYyjHveo0WXAxiLUcgN8AfWw+P/VPgAPXAU9QrC7+TIp2CLJ+BTLONKB6jsr3skpYbzVjjNsat1N9hHwRRCm19dXu1XngOj7BK9sgIk8e9L5fdciwX32gU/awPAscIWiFQSdAOizyMmM0tt6UMnm5cNOcMcHTG7hLPed47KLt40Oru4ebzZ+oOMHIt5woSCLj3pafPmDc+YU1oEgNyQxkRiYW46iW5iADGXPQOGugIO6hm4RLcLhHN5ySxuOLEAyM/Q+p52yhEwSSRBJtH9DVcowsjkeYTSEiehi2v7Gse4rlVGcs0P47ZdCiu1rE6rqPCDAcAEuOZ2sWNGJ+ZPrMECn8NTz3sruLe6jOaqYiAxR0zIIEOn5vmHnJG3OSWzcMuY7OKnTpw+57cnzJhz5USYFWsnzHG4jC6CucmxlqTlWQCSsifBJNv6AyAx4XxgV33YhgK+FxX8FsCSUDKP3sIjbfjdJ2ChtTArl3IJh562XjGxWm6qcgaVBjzPBlxv9xGz7AwnmBEL/t+FczaI3JOBZlZiQgqfXjB//PFT8y4aPMn8m+EzC+4bl1N89UnT55w9aLp51oSCrpnjcOGoa4apvAgMUgcmeSpudNNHAGEWVjV8AxSujEp+FVR9QAdId1nEYBCxZpr6D7ekyHAS5zB5yLhBwsIppS4pbHP4lTthsl7HffbrkZHu64hRYjCHMwYOmBVvSKnkqgrGJQaWMCtrYnbJyJOm5887YaL5a8OnnVU1Kd86k9uH1tb2bAuNUfPsw+mTpOWV+QAQOq6fZeR1WK5SB8heAORZpg/oK/gkDhCr1XccnFaO7i5FxTLBJ0GA6BGE2OCIUyfFtmDaIpoX4xY9Eu6A6azTLsE1H4e/tJude+w+J0hgevbiHp/DnD0PluFmhlUDkjkOkyHsweTQfkq2a2Rf9PnT3IzNLyuGP+NLYz8JfBJGRTE20QEiZsT1mEEIEJcvPLuyTvFXB9RXwAIHaNsTAQijDY7tIPrYjqilCaHmN7n1q3GLHkmNr2UE2MPlkpT7EZm8BwByg2nOyd2Ce/zdJakRro2C+w9Ms9KZ9JQxOhOaJ47KAhy3gEm4XsdugkP00MIRho/yGBOauZAtTk8YIIws7NLqgsqlyo1VAeW1gwCJA4ROVPghBIms7nBK2lpHqOnC3i7HwCRkbtToltTvAyirAdjXcK+NMIONYBQ/QuZvc1KZGKH9SgtXDDJbCsebS1cAJOy+36WbGW4bZnkT7HFXem55dUqJ2KgnIYAw7OWyWfD8v1npVx6p4kCerLYxAedwEHSlBIjwQ8AgAFgzGaQv1utgSM5kZFz3ux5JvQmmZDnY43+4yzZXI/rKLPnQmbDPZKypPBcMwRTFCEzKFpiYVuGDmC2fZphL1QlcwZB9ID1grqKGp05z1inl7Oqu8of/VS2p+9kXkmg3dwwgqLztqMxmtPY+AQiF66XYA9pUhuNcauvsgDJJZK4PpD6O/4ZwN4SMuVYTKv8HMC1NAMgmAKOVS1vrqwxa3gKD3M7lr4/Wv9KZsL/AsbTxXLukPWrzK58zgagn66IfDpC+8EEOEfhzHFciY3CDIuPTr7BMs59I5mCoPC63pCkt1/Ix+0L0/hA4p6ZSJiO3sAeVE7mtPVzlx/6/2lj7Uu18Oxw+RAvbEaoKXyIeCLrSfgdIUg4Kx2lSMotMo7KKrxyRVaiNnF20JTXX0r5QLcLZ/aOyi18dm1N60+n51pL8TrbV6I50BAh8h+2ionvS1X4YQPrSxCSlg9BUjMgqzk3JKr5qRGZBEwDy0ZicEoSz+qgwF8YfPbtoz4isosdGZhZ/LyOrmpFLj4UAccjqNxAVaKjYbT0GiDEWwzDXHlCb4DOcf96Kll71gyTlSDk+ZXqRaWRm4dUAQGRkVtGWsTkWvfcUmmaytI2eXbxvRGbhmylZhXcPn1lUPXJK79bz4Gw4V1A73xlUmtyyssNbz93CjQEy9lrGAcMRivP0dIEmkYdR7VeaAZDFnlvWcYuSpPSJTJt24ogZlmxulzEis6hJB0cpgFEuRoTH5ZbuATjeS8ks/HvK7KIHR8wsvhAMMhE+fq/6XARAGrTzYRqaXEF1J8c2qIIRugkS9myK39UzMUjdBX3SJWlXsQ/DuE1SeiWZmadOOquibHJB1S2peeVPjZpd/PlY+BzjTJZoqsmyC5HLR+NySv8KX+RXYI6lKVlFXxvLtc97sS5pTNwwA1yhmCsMgkk2wXfYRcXfHJndR4eVYx7tM+QMFSkB4jPOj1VbHdyGY/njUdeK9dEqv7IJYfNdXJC/5qu8+k8fyGDu4zJiRkE2TAgczvJtqblWrn3elppb2joup+QD+Bt/STOVrgRIrk/NsXjG5FjMp0w+i9TdJ4XOjC6umuiW1Xq3HFFdIfUJsMl6MMN6MMFLqHxOo2wFaA5hDfgazBhvg0nZb5PUt6sCyotVAfX9iuC6T62+xncr65T7wCperh/PPBTjdklJRBiacgR4VI7l7JTpZzWfOnVe9KRJedFhk/PeA4v8bWxu6UNjZxdfOybXcg4TjSZmu0Z2ts9bT4UdTmJ9dClig6n4lqte/a4X6tY3RlrmZF6nrL2Ov98HcLijwvtC+XdQe9cpaS/a/MpvAIgboNfOl9dcZ/Gtvq48oHyTqwmJXbCSDNIzIUCmzbNPSDXP95w8ec6tg1Oz1g0eOyt8wum5P0+ZVbg0Ld+6aKJpfianUfSFOelMuL45h9fR4jO4LOXCmyLpzGN1BpQiLgkBdrnZHVR+AYD8EuzxC+aN8G+XpN4NBgk4/co53LliobQ+nT4NF9S3Qo0t0pLSCxnMrvTT8+xT07MtpaMQlYyaWVzFgbmJeeX5k+Za0/p64K/bEo0OZq+lqyE8vaZeKXLLXOIhUsZj7G97nWYFQOZw0ZY4i+iztzPZ49kXkllbe8KiRT84ybdy5QmLfb5h7iVLTrbbL+9TU9JTYXLx4gdahhEssa7u2N9cf6M3SUFJSUpSkpKUpCQlKUlJSlKSkpQvRgYN+v9dlhjSbJRz8AAAAABJRU5ErkJggg==;" parent="1" vertex="1">
                    <mxGeometry x="480" y="190" width="84.87" height="83" as="geometry"/>
                </mxCell>
            </root>
        </mxGraphModel>
    </diagram>
</mxfile>